<svg xmlns="http://www.w3.org/2000/svg" xmlns:svg="http://www.w3.org/2000/svg" id="svg2" width="4266.667" height="2666.667" version="1.1" viewBox="0 0 4266.667 2666.667" xml:space="preserve"><metadata id="metadata8"/><g id="g10" transform="matrix(1.3333333,0,0,-1.3333333,0,2666.6667)"><g id="g12" transform="scale(0.1)"><path style="fill:#fff;fill-opacity:1;fill-rule:nonzero;stroke:none" id="path14" d="M 32000,0 H 0 V 20000 H 32000 V 0"/><path style="fill:#ebf3fa;fill-opacity:1;fill-rule:nonzero;stroke:none" id="path16" d="m 3398.49,2046.2 c 0,0 -3209.658,3446.1 -542.8,7177.1 2366.21,3310.3 5124.97,3084.1 7149.01,1740.7 862.1,-572.2 3347.6,-70.5 5463,3297.9 2884.9,4593.6 12884.9,1807.5 11061.6,-5259.8 C 25646.9,5582 29214.6,5457.7 27396.7,2039 l -23998.21,7.2"/><path style="fill:#dfebfd;fill-opacity:1;fill-rule:nonzero;stroke:none" id="path18" d="m 29426.6,6620.5 c -226,834.5 -1634.2,573.7 -1634.2,573.7 0,0 -956.2,-1460.4 -1234.3,-1495.1 -278.2,-34.8 573.7,1408.2 573.7,1408.2 -539,52.1 -1912.4,-608.5 -1912.4,-608.5 0,0 86.9,-1703.7 -191.2,-1669 -278.2,34.8 0,1512.5 0,1512.5 -521.6,-156.4 -1008.4,-764.9 -1008.4,-764.9 -608.4,-991 695.4,-1721.1 695.4,-1721.1 0,0 17.4,-591.1 -347.7,-1269.1 v -0.1 c 0,0 -82.4,-125.1 -166.1,-337.9 h 142.2 c 11.6,38.1 24.4,75 38.6,110.4 0,0.2 0,0.4 0.2,0.6 0.2,0.5 0.4,1 0.7,1.5 9.7,22 23.7,53.3 41.1,91.3 0.1,0.1 0.1,0.1 0.1,0.2 0,0.1 0.1,0.1 0.1,0.2 43.4,85 72.8,147.8 91.3,193.2 0.1,0.1 0.2,0.3 0.2,0.4 130.2,267 317.7,614.8 442.7,687.7 0,0 -15.7,22.2 -30.4,65.2 9.7,-20.8 19.8,-42.4 30.4,-65.2 243.4,-521.5 1460.4,-608.5 2138.4,-469.4 678,139.1 382.4,330.3 17.4,640.7 -365.1,310.4 -1130,228.6 -1356.1,350.3 -226,121.7 104.4,243.4 556.4,208.6 452,-34.8 678,-486.8 1408.1,-556.3 730.2,-69.6 1286.5,1303.8 1286.5,1303.8 -504.1,-156.4 -1408.2,121.7 -1442.9,295.6 -34.8,173.8 1303.8,156.5 1512.5,208.6 208.6,52.2 573.7,469.4 347.7,1303.9"/><path style="fill:#afcdfb;fill-opacity:1;fill-rule:nonzero;stroke:none" id="path20" d="m 10235.5,6392.8 c 0,0 62.1,-495.7 -30.8,-501.6 -93,-5.9 -29.5,557.4 -29.5,557.4 0,0 -441.97,247 -621.76,240.7 0,0 253.12,-495.9 161.58,-478.7 -91.54,17.2 -378.9,521 -378.9,521 0,0 -461.69,115.2 -553.64,-157 -91.95,-272.1 20.63,-417.9 88.76,-439.5 68.12,-21.5 512.41,-43 497.34,-100 -15.07,-56.9 -320.54,-130.7 -484.55,-68.6 0,0 156.52,-466.8 400.09,-458.6 243.56,8.2 327.72,153.5 478.33,155.8 150.61,2.4 257.65,-44.7 180.25,-80.5 -77.43,-35.7 -329.45,7 -456.85,-88.5 -127.39,-95.5 -229.3,-152.9 -7.28,-212.9 222.02,-59.9 627.33,-55.9 718.73,112.2 4,7.3 7.8,14.3 11.4,21 -5.7,-14 -11.4,-21 -11.4,-21 40,-26.8 95.1,-146 132.8,-237.2 5.3,-15.4 13.7,-36.9 26.4,-66.1 v 0 c 5.1,-13.1 9.2,-23.9 11.9,-31.4 67.1,-203.2 4.1,-543.1 4.1,-543.1 l 47.2,-15.8 c 127.7,338.6 -41.6,633.6 -41.6,633.6 -107.3,232.3 -89.5,428 -89.5,428 0,0 447.3,215.6 265.7,556.6 0,0 -149,211.7 -318.8,274.2"/><path style="fill:#cde0fb;fill-opacity:1;fill-rule:nonzero;stroke:none" id="path22" d="m 6890.67,4180.3 c -40.05,611.4 964.08,759.9 964.08,759.9 0,0 976.48,-759.7 1170.98,-719.1 194.5,40.5 -708.03,812.5 -708.03,812.5 349.41,158.7 1422.05,31.1 1422.05,31.1 0,0 332.85,-1162.4 511.45,-1075.3 178.5,87.2 -347.3,1014.3 -347.3,1014.3 385.7,14.8 851.8,-281.5 851.8,-281.5 635.5,-524.7 -71.1,-1313.7 -71.1,-1313.7 0,0 124,-400.4 524.5,-771.2 v 0 c 0,0 84,-65 189,-188.5 l -95.3,-32.6 c -16.6,22.9 -33.6,44.6 -51.2,65.1 -0.1,0.2 -0.2,0.3 -0.4,0.4 -0.2,0.3 -0.5,0.6 -0.7,0.9 -11.6,12.5 -28.2,30.2 -48.6,51.7 0,0.1 -0.1,0.1 -0.1,0.1 0,0.1 -0.1,0.1 -0.1,0.1 -48.7,47.1 -82.8,82.5 -105.6,108.6 -0.1,0.1 -0.2,0.2 -0.2,0.3 -148.6,149.1 -354.2,339.3 -454.8,359.5 0,0 5.5,18.4 5.4,50.7 -1.7,-16.2 -3.5,-33.1 -5.4,-50.7 -43.5,-405.7 -839.53,-743.4 -1326.11,-805.8 -486.58,-62.4 -332.31,133.7 -158.76,425.7 173.54,291.9 705.26,412.7 828.87,546.2 123.6,133.5 -125.83,139.2 -420.94,12.1 -295.12,-127.1 -342.89,-482.1 -816.54,-696.3 -473.65,-214.3 -1162.03,578.9 -1162.03,578.9 373.99,10.8 916.32,404.9 899.72,529.5 -16.6,124.5 -910.25,-194.5 -1062.12,-207.4 -151.86,-12.9 -492.47,183 -532.52,794.5"/><path style="fill:#6bb7bf;fill-opacity:1;fill-rule:nonzero;stroke:none" id="path24" d="m 25696.3,15147 c 0,0 -107.1,80.8 -134.7,201.6 -20.5,89.6 30.9,202 35.1,207.1 l -143.4,28.6 c 0,0 -42.5,-190.3 29.5,-316.9 22,-38.7 85.9,-92.1 127.1,-112.1 45.3,-22 86.4,-8.3 86.4,-8.3"/><path style="fill:#86d1cd;fill-opacity:1;fill-rule:nonzero;stroke:none" id="path26" d="m 25945.5,15234.2 130.5,-149.3 c 0,0 -368.9,-97.9 -579.7,163 0,0 310.5,-105 449.2,-13.7"/><path style="fill:#f99746;fill-opacity:1;fill-rule:nonzero;stroke:none" id="path28" d="m 19220.4,17108.2 c 0,0 133.1,220.9 367.9,85.7 l 128.7,140 c 0,0 -134.4,89 -418.6,-104.5 -186,-126.6 -78,-121.2 -78,-121.2"/><path style="fill:#f99746;fill-opacity:1;fill-rule:nonzero;stroke:none" id="path30" d="m 19088.9,16891.5 c 0,0 -44.8,240.9 351.7,418.6 0,0 -142.2,-80.7 -171.9,-325.6 l -179.8,-93"/><path style="fill:#5685d8;fill-opacity:1;fill-rule:nonzero;stroke:none" id="path32" d="m 11008.3,9937.7 c 0,0 -218,85.9 -132.4,316.6 l -144.8,94.1 c 0,0 -59.4,-133.8 156.9,-359.1 141.5,-147.5 120.3,-51.6 120.3,-51.6"/><path style="fill:#739af0;fill-opacity:1;fill-rule:nonzero;stroke:none" id="path34" d="m 11222.2,9852.6 c 0,0 -209,-76.4 -428,251.9 0,0 93.8,-115.2 317.5,-104.8 l 110.5,-147.1"/><path style="fill:#f1a34f;fill-opacity:1;fill-rule:nonzero;stroke:none" id="path36" d="m 11636.4,12960.4 c 0,0 120.3,76 133,167.8 0,0 117.2,-6.3 142.5,-44.3 0,0 -53.8,-152 -117.2,-180.5 0,0 -142.4,-9.5 -158.3,57"/><path style="fill:#f1a34f;fill-opacity:1;fill-rule:nonzero;stroke:none" id="path38" d="m 3739.36,7468.3 c 0,0 -128.35,81 -141.86,179 0,0 -124.98,-6.8 -152,-47.3 0,0 57.42,-162.1 124.98,-192.5 0,0 151.99,-10.2 168.88,60.8"/><path style="fill:#86d1cd;fill-opacity:1;fill-rule:nonzero;stroke:none" id="path40" d="m 18121,14624.7 c 0,0 -179.3,113.3 -198.2,250.1 0,0 -174.5,-9.5 -212.2,-66.1 0,0 80.2,-226.4 174.5,-268.9 0,0 212.3,-14.1 235.9,84.9"/><path style="fill:#cde0fb;fill-opacity:1;fill-rule:nonzero;stroke:none" id="path42" d="M 29127.8,15151.2 30242.2,11662 c 49.2,-154 -36.6,-320.2 -190.5,-369.4 l -6121,-1955 c -153.9,-49.2 -320.2,36.6 -369.4,190.5 l -1114.4,3489.3 c -49.2,153.9 36.6,320.2 190.5,369.3 l 6121,1955.1 c 154,49.1 320.2,-36.6 369.4,-190.6"/><path style="fill:#afcdfb;fill-opacity:1;fill-rule:nonzero;stroke:none" id="path44" d="m 25607.7,10715.9 -1631.4,-521.1 c -69,-22 -143.5,16.4 -165.6,85.4 l -5,15.7 c -22,69 16.4,143.5 85.4,165.6 l 1631.4,521.1 c 69,22 143.5,-16.4 165.6,-85.5 l 5,-15.6 c 22,-69.1 -16.4,-143.6 -85.4,-165.6"/><path style="fill:#afcdfb;fill-opacity:1;fill-rule:nonzero;stroke:none" id="path46" d="m 27757.5,11402.5 -1631.4,-521 c -69,-22.1 -143.5,16.4 -165.6,85.4 l -5,15.7 c -22,69 16.4,143.5 85.4,165.5 l 1631.4,521.1 c 69,22 143.5,-16.4 165.6,-85.4 l 5,-15.7 c 22,-69 -16.4,-143.5 -85.4,-165.6"/><path style="fill:#afcdfb;fill-opacity:1;fill-rule:nonzero;stroke:none" id="path48" d="m 25740.8,12557.7 c -11.9,37.3 -26.1,67.3 -42.6,89.9 -25.3,33.9 -52.6,46.2 -82.2,36.7 -30.3,-9.7 -45.7,-35.4 -46.4,-77.1 -0.7,-28.2 5,-61.1 17,-98.8 32.4,-101.5 74.5,-143.9 126.3,-127.4 29.9,9.6 45.1,35.6 45.5,78.1 0.4,27.7 -5.4,60.5 -17.6,98.6 z m 75,23.6 c 19,-59.5 24.2,-111.5 15.6,-156.1 -10.8,-56.3 -43.4,-93.2 -97.9,-110.6 -54.5,-17.4 -102.5,-6.3 -143.9,33.4 -32.8,31.4 -58.7,76.8 -77.7,136.2 -19,59.5 -24.4,111.3 -16,155.4 10.7,56.3 43.5,93.2 98.4,110.7 54.9,17.6 103,6.5 144.4,-33.1 32.4,-31.1 58.1,-76.4 77.1,-135.9"/><path style="fill:#afcdfb;fill-opacity:1;fill-rule:nonzero;stroke:none" id="path50" d="m 26075.8,12664.7 c -11.9,37.3 -26.1,67.2 -42.7,89.9 -25.2,33.9 -52.6,46.2 -82.1,36.7 -30.3,-9.7 -45.8,-35.4 -46.4,-77.1 -0.7,-28.2 4.9,-61.1 17,-98.8 32.4,-101.5 74.5,-144 126.3,-127.4 29.9,9.6 45.1,35.6 45.4,78.1 0.5,27.6 -5.3,60.5 -17.5,98.6 z m 74.9,23.6 c 19,-59.5 24.2,-111.5 15.6,-156.1 -10.7,-56.3 -43.4,-93.2 -97.9,-110.6 -54.4,-17.4 -102.4,-6.3 -143.8,33.4 -32.9,31.3 -58.8,76.8 -77.8,136.2 -19,59.5 -24.3,111.3 -16,155.4 10.8,56.3 43.6,93.2 98.5,110.7 54.9,17.5 103,6.5 144.4,-33.1 32.3,-31.1 58,-76.4 77,-135.9"/><path style="fill:#afcdfb;fill-opacity:1;fill-rule:nonzero;stroke:none" id="path52" d="m 26583.4,12826.8 c -11.9,37.3 -26.1,67.3 -42.7,90 -25.2,33.9 -52.5,46.1 -82.1,36.6 -30.3,-9.6 -45.8,-35.3 -46.4,-77 -0.7,-28.3 4.9,-61.2 17,-98.9 32.4,-101.4 74.5,-143.9 126.3,-127.4 29.9,9.6 45.1,35.6 45.5,78.1 0.4,27.7 -5.4,60.6 -17.6,98.6 z m 74.9,23.6 c 19,-59.5 24.2,-111.5 15.7,-156.1 -10.8,-56.3 -43.4,-93.1 -97.9,-110.5 -54.5,-17.4 -102.5,-6.3 -143.9,33.3 -32.8,31.4 -58.7,76.8 -77.8,136.3 -18.9,59.4 -24.3,111.2 -16,155.3 10.8,56.3 43.6,93.2 98.5,110.7 54.9,17.6 103,6.5 144.4,-33.1 32.4,-31.1 58.1,-76.4 77,-135.9"/><path style="fill:#afcdfb;fill-opacity:1;fill-rule:nonzero;stroke:none" id="path54" d="m 26918.4,12933.8 c -11.9,37.3 -26.1,67.3 -42.7,89.9 -25.2,33.9 -52.6,46.2 -82.1,36.7 -30.3,-9.6 -45.8,-35.4 -46.4,-77.1 -0.7,-28.2 4.9,-61.1 16.9,-98.8 32.5,-101.5 74.6,-143.9 126.4,-127.4 29.9,9.6 45.1,35.6 45.4,78.1 0.5,27.7 -5.3,60.5 -17.5,98.6 z m 74.9,23.6 c 19,-59.5 24.2,-111.5 15.6,-156.1 -10.8,-56.3 -43.4,-93.2 -97.9,-110.6 -54.5,-17.4 -102.4,-6.3 -143.8,33.4 -32.9,31.3 -58.8,76.8 -77.8,136.3 -19,59.4 -24.3,111.2 -16,155.3 10.8,56.3 43.6,93.2 98.5,110.7 54.8,17.6 103,6.5 144.4,-33.1 32.3,-31.1 58,-76.4 77,-135.9"/><path style="fill:#afcdfb;fill-opacity:1;fill-rule:nonzero;stroke:none" id="path56" d="m 27253.4,13040.8 c -11.9,37.3 -26.2,67.3 -42.7,89.9 -25.2,33.9 -52.6,46.2 -82.1,36.7 -30.4,-9.7 -45.8,-35.4 -46.5,-77.1 -0.7,-28.2 5,-61.1 17,-98.8 32.4,-101.5 74.5,-143.9 126.3,-127.4 30,9.6 45.1,35.6 45.5,78.1 0.5,27.6 -5.4,60.5 -17.5,98.6 z m 74.9,23.6 c 19,-59.5 24.2,-111.5 15.6,-156.1 -10.8,-56.3 -43.4,-93.2 -97.9,-110.6 -54.5,-17.4 -102.4,-6.3 -143.8,33.4 -32.9,31.3 -58.8,76.8 -77.8,136.2 -19,59.5 -24.4,111.3 -16,155.4 10.7,56.3 43.6,93.2 98.4,110.7 54.9,17.5 103,6.5 144.5,-33.1 32.3,-31.1 58,-76.4 77,-135.9"/><path style="fill:#afcdfb;fill-opacity:1;fill-rule:nonzero;stroke:none" id="path58" d="m 27588.3,13147.8 c -11.9,37.3 -26.1,67.2 -42.7,89.9 -25.2,33.9 -52.5,46.1 -82.1,36.7 -30.3,-9.7 -45.8,-35.4 -46.4,-77.1 -0.7,-28.2 4.9,-61.1 17,-98.8 32.4,-101.5 74.5,-144 126.3,-127.4 29.9,9.5 45.1,35.6 45.5,78.1 0.4,27.6 -5.4,60.5 -17.6,98.6 z m 74.9,23.6 c 19,-59.5 24.2,-111.5 15.7,-156.1 -10.8,-56.3 -43.5,-93.2 -97.9,-110.6 -54.5,-17.4 -102.5,-6.3 -143.9,33.4 -32.8,31.3 -58.8,76.7 -77.8,136.2 -19,59.5 -24.3,111.3 -16,155.4 10.8,56.3 43.6,93.2 98.5,110.7 54.9,17.5 103,6.5 144.4,-33.1 32.4,-31.2 58,-76.4 77,-135.9"/><path style="fill:#afcdfb;fill-opacity:1;fill-rule:nonzero;stroke:none" id="path60" d="m 28096,13309.9 c -12,37.3 -26.2,67.3 -42.7,90 -25.2,33.9 -52.6,46.1 -82.2,36.6 -30.3,-9.6 -45.7,-35.3 -46.4,-77.1 -0.7,-28.2 5,-61.1 17,-98.8 32.4,-101.5 74.5,-143.9 126.3,-127.4 30,9.6 45.1,35.6 45.5,78.1 0.4,27.7 -5.4,60.5 -17.5,98.6 z m 74.9,23.6 c 19,-59.5 24.2,-111.5 15.6,-156.1 -10.8,-56.3 -43.4,-93.1 -97.9,-110.5 -54.5,-17.5 -102.5,-6.3 -143.8,33.3 -32.9,31.4 -58.8,76.8 -77.8,136.3 -19,59.4 -24.4,111.2 -16,155.3 10.7,56.3 43.6,93.2 98.4,110.7 54.9,17.6 103,6.5 144.5,-33.1 32.3,-31.1 58,-76.4 77,-135.9"/><path style="fill:#afcdfb;fill-opacity:1;fill-rule:nonzero;stroke:none" id="path62" d="m 28430.9,13416.9 c -11.9,37.3 -26.1,67.3 -42.7,89.9 -25.2,33.9 -52.5,46.2 -82.1,36.7 -30.3,-9.7 -45.8,-35.4 -46.4,-77.1 -0.7,-28.2 4.9,-61.1 17,-98.8 32.4,-101.5 74.5,-143.9 126.3,-127.4 29.9,9.6 45.1,35.6 45.5,78.1 0.4,27.6 -5.4,60.5 -17.6,98.6 z m 74.9,23.6 c 19,-59.5 24.2,-111.5 15.6,-156.1 -10.7,-56.3 -43.4,-93.2 -97.9,-110.6 -54.4,-17.4 -102.4,-6.3 -143.8,33.4 -32.8,31.3 -58.8,76.8 -77.8,136.2 -19,59.5 -24.3,111.3 -16,155.4 10.8,56.3 43.6,93.2 98.5,110.7 54.9,17.6 103,6.5 144.4,-33.1 32.4,-31.1 58,-76.4 77,-135.9"/><path style="fill:#afcdfb;fill-opacity:1;fill-rule:nonzero;stroke:none" id="path64" d="m 28765.9,13523.9 c -11.9,37.3 -26.2,67.3 -42.7,89.9 -25.2,33.9 -52.6,46.1 -82.1,36.7 -30.3,-9.7 -45.8,-35.4 -46.4,-77.1 -0.8,-28.2 4.9,-61.1 16.9,-98.8 32.4,-101.5 74.5,-143.9 126.4,-127.4 29.9,9.6 45,35.6 45.4,78.1 0.5,27.6 -5.4,60.5 -17.5,98.6 z m 74.9,23.6 c 19,-59.5 24.2,-111.5 15.6,-156.1 -10.8,-56.3 -43.4,-93.2 -97.9,-110.6 -54.5,-17.4 -102.4,-6.3 -143.8,33.4 -32.9,31.3 -58.8,76.7 -77.8,136.2 -19,59.5 -24.3,111.3 -16,155.4 10.8,56.3 43.6,93.2 98.5,110.7 54.8,17.5 103,6.5 144.4,-33.1 32.3,-31.2 58,-76.4 77,-135.9"/><path style="fill:#afcdfb;fill-opacity:1;fill-rule:nonzero;stroke:none" id="path66" d="m 29100.8,13630.9 c -11.9,37.3 -26.1,67.2 -42.6,89.9 -25.2,33.9 -52.6,46.1 -82.2,36.7 -30.3,-9.7 -45.7,-35.4 -46.4,-77.1 -0.7,-28.2 5,-61.1 17,-98.8 32.4,-101.5 74.5,-144 126.3,-127.4 30,9.5 45.1,35.6 45.5,78.1 0.4,27.6 -5.4,60.5 -17.6,98.6 z m 75,23.6 c 19,-59.5 24.2,-111.5 15.6,-156.1 -10.8,-56.3 -43.4,-93.2 -97.9,-110.6 -54.5,-17.4 -102.5,-6.3 -143.9,33.3 -32.8,31.4 -58.7,76.8 -77.7,136.3 -19,59.5 -24.4,111.3 -16,155.4 10.7,56.3 43.5,93.2 98.4,110.7 54.9,17.5 103,6.5 144.4,-33.1 32.4,-31.2 58.1,-76.5 77.1,-135.9"/><path style="fill:#afcdfb;fill-opacity:1;fill-rule:nonzero;stroke:none" id="path68" d="m 24694.1,13455.9 -1596.5,-510 c -69,-22 -143.5,16.4 -165.6,85.5 v 0 c -22,69 16.4,143.5 85.4,165.5 l 1596.5,510 c 69,22 143.6,-16.4 165.6,-85.5 v 0 c 22,-69 -16.4,-143.5 -85.4,-165.5"/><path style="fill:#afcdfb;fill-opacity:1;fill-rule:nonzero;stroke:none" id="path70" d="m 28571.8,14400 c -14.5,45.6 -43.8,82.4 -80.8,107 -10.8,7.2 -25.4,3.3 -31.3,-8.2 l -5,-10.1 c -4.9,-9.6 -1.9,-21.3 7,-27.3 26.8,-18 47.9,-44.8 58.5,-77.9 10.6,-33.1 8.9,-67.1 -2.5,-97.3 -3.8,-10.1 0.6,-21.4 10.1,-26.4 l 9.9,-5.2 c 11.5,-6.1 25.6,-0.8 30.3,11.3 15.9,41.5 18.4,88.5 3.8,134.1"/><path style="fill:#afcdfb;fill-opacity:1;fill-rule:nonzero;stroke:none" id="path72" d="m 28675.2,14433 c -23.9,75 -73.7,134.5 -136.4,172 -10.6,6.3 -24.4,2.1 -30,-9 l -2.9,-5.7 c -5.1,-10.1 -1.4,-22.3 8.4,-28.2 52.3,-31.6 93.8,-81.5 113.8,-144.1 20,-62.6 15.1,-127.4 -9.2,-183.5 -4.5,-10.4 -0.5,-22.5 9.6,-27.8 l 5.6,-3 c 10.9,-5.7 24.7,-1.2 29.6,10.1 29.4,66.9 35.5,144.3 11.5,219.2"/><path style="fill:#afcdfb;fill-opacity:1;fill-rule:nonzero;stroke:none" id="path74" d="m 28765.9,14462 c -32,100.2 -99.5,179.4 -184.3,228.2 -10.7,6.2 -24.3,2 -29.9,-9 v 0 c -5.1,-10.2 -1.4,-22.6 8.5,-28.3 75.8,-43.6 136.1,-114.4 164.7,-204 28.7,-89.6 20.5,-182.3 -15.9,-261.7 -4.8,-10.4 -0.7,-22.6 9.4,-28 v 0 c 10.9,-5.7 24.5,-1.2 29.6,10 40.8,88.9 49.9,192.5 17.9,292.8"/><path style="fill:#afcdfb;fill-opacity:1;fill-rule:nonzero;stroke:none" id="path76" d="m 28864.1,14493.3 c -40.8,127.7 -127.5,228.2 -236.1,289 -10.7,6 -24.3,1.9 -29.8,-9.1 l -5,-9.8 c -5.2,-10.3 -1.4,-22.8 8.7,-28.4 96.8,-54.5 174.2,-144.2 210.6,-258.1 36.4,-114 25.3,-231.9 -22,-332.5 -4.9,-10.4 -0.8,-22.8 9.4,-28.1 l 9.7,-5.1 c 10.9,-5.8 24.4,-1.3 29.6,9.9 53.2,112.5 65.6,244.6 24.9,372.2"/><path style="fill:#ffa412;fill-opacity:1;fill-rule:nonzero;stroke:none" id="path78" d="M 24744.9,2083.7 H 21260 v 10037.8 h 3484.9 V 2083.7"/><path style="fill:#ffb93e;fill-opacity:1;fill-rule:nonzero;stroke:none" id="path80" d="M 21260,2083.7 H 12053.3 V 12121.5 H 21260 V 2083.7"/><path style="fill:#ffa412;fill-opacity:1;fill-rule:nonzero;stroke:none" id="path82" d="m 12053.3,6508.6 v 702.6 H 21260 v -702.6 h -9206.7"/><path style="fill:#fa9712;fill-opacity:1;fill-rule:nonzero;stroke:none" id="path84" d="m 21260,6508.6 v 702.6 h 3484.9 V 6508.6 H 21260"/><path style="fill:#f99746;fill-opacity:1;fill-rule:nonzero;stroke:none" id="path86" d="m 18401,12014 c 0,0 2080,1351.6 3493.9,917.3 l -291.7,-272.4 131.5,-457.8 c 0,0 -1572.3,512 -3376.7,-264.1 l 43,77"/><path style="fill:#f99746;fill-opacity:1;fill-rule:nonzero;stroke:none" id="path88" d="m 18284.7,12320.1 c 0,0 -367,44.4 -914,119.6 -1452.1,199.7 -4172,617.6 -4660.2,1004.3 -767.1,607.5 1050.6,3187.4 1837.5,3545.6 786.8,357.7 3736.7,-4669.5 3736.7,-4669.5"/><path style="fill:#f99746;fill-opacity:1;fill-rule:nonzero;stroke:none" id="path90" d="m 24039.4,15532.8 c 131.1,-639.2 -5808.7,-3400.4 -5808.7,-3400.4 0,0 108.1,292.2 283.8,749.8 0,0 0.3,0.4 0.5,0.7 642.2,1671.2 2189.3,5549.2 2697.6,5495.5 51.1,-5.3 110.8,-23.5 177.6,-52.8 780.8,-343.5 2528.4,-2204.2 2649.2,-2792.8"/><path style="fill:#ed7d2b;fill-opacity:1;fill-rule:nonzero;stroke:none" id="path92" d="m 21340.1,17757.3 c -362.8,-630.1 -2787.1,-4809.2 -2825.1,-4874.4 642.2,1671.2 2189.3,5549.2 2697.6,5495.5 0,0 100.7,2.9 177.6,-52.8 92.6,-67.5 150.1,-220.4 -50.1,-568.3"/><path style="fill:#ed7d2b;fill-opacity:1;fill-rule:nonzero;stroke:none" id="path94" d="m 17371.7,12439.7 h -1 c -1452.1,199.7 -4172,617.6 -4660.2,1004.3 -220.4,620.9 351.5,671.6 767.8,715.2 415.9,43.7 3893.4,-1719.5 3893.4,-1719.5"/><path style="fill:#ed7d2b;fill-opacity:1;fill-rule:nonzero;stroke:none" id="path96" d="m 17176.9,12122.3 c 0,0 333,757.5 988.3,799.5 684.5,43.8 1073.2,-799.5 1073.2,-799.5 h -2061.5"/><path style="fill:#ffc261;fill-opacity:1;fill-rule:nonzero;stroke:none" id="path98" d="m 21407.7,10740.9 h -9633.5 v 1380.6 h 9633.5 v -1380.6"/><path style="fill:#fa9712;fill-opacity:1;fill-rule:nonzero;stroke:none" id="path100" d="m 25038.7,10740.9 h -3631 v 1380.6 h 3631 v -1380.6"/><path style="fill:#f99746;fill-opacity:1;fill-rule:nonzero;stroke:none" id="path102" d="m 17514.3,12237.2 c 0,0 -1886.8,597.7 -3160,202.5 -1467.6,-455.5 -1380.6,-2266.3 -1380.6,-2266.3 l 345.1,141.9 466,-218.6 c 0,0 78.6,1917.5 1275.1,2185.9 1034.6,232.1 2454.4,-45.4 2454.4,-45.4"/><path style="fill:#ffa412;fill-opacity:1;fill-rule:nonzero;stroke:none" id="path104" d="m 16546.4,2084.7 h -702.6 v 10036.8 h 702.6 V 2084.7"/><path style="fill:#ed7d2b;fill-opacity:1;fill-rule:nonzero;stroke:none" id="path106" d="m 10719.2,13277 -645,-216.1 -622.66,1857.8 645.06,216.2 622.6,-1857.9"/><path style="fill:#f99746;fill-opacity:1;fill-rule:nonzero;stroke:none" id="path108" d="m 10074.2,13060.9 -1704,-571.2 -622.7,1857.9 1704.04,571.1 622.66,-1857.8"/><path style="fill:#ffb93e;fill-opacity:1;fill-rule:nonzero;stroke:none" id="path110" d="m 8095.7,13308.7 -43.59,130.1 1704.04,571.1 43.58,-130.1 -1704.03,-571.1"/><path style="fill:#f69b34;fill-opacity:1;fill-rule:nonzero;stroke:none" id="path112" d="m 9799.73,13879.8 -43.58,130.1 645.05,216.2 43.5,-130.1 -644.97,-216.2"/><path style="fill:#ffb93e;fill-opacity:1;fill-rule:nonzero;stroke:none" id="path114" d="m 8980.98,14792.8 c 0,0 442.95,412.2 837.3,444.1 l -56.4,-73 65.43,-73.6 c 0,0 -440.52,-30.2 -852.11,-315 l 5.78,17.5"/><path style="fill:#ffb93e;fill-opacity:1;fill-rule:nonzero;stroke:none" id="path116" d="m 8888.54,14770.9 c 0,0 -70.67,-14.6 -176.59,-34.6 -281.15,-53.1 -810.5,-144.5 -924.85,-103.2 -179.66,64.9 -3.26,655.2 120.16,770.2 123.43,115.1 981.28,-632.4 981.28,-632.4"/><path style="fill:#ffb93e;fill-opacity:1;fill-rule:nonzero;stroke:none" id="path118" d="m 9754.35,15722.5 c 63.92,-110.2 -864.17,-989.7 -864.17,-989.7 0,0 1.89,60.8 6.03,156.4 0,0 0.02,0.1 0.04,0.2 15.2,349.1 60.96,1162.8 158.38,1184.4 9.78,2.2 21.97,2.6 36.13,1.3 165.83,-15.2 604.72,-251.1 663.59,-352.6"/><path style="fill:#f69b34;fill-opacity:1;fill-rule:nonzero;stroke:none" id="path120" d="m 9116.75,15966.8 c -28.05,-139.1 -217.51,-1063 -220.5,-1077.4 15.2,349.1 60.96,1162.8 158.38,1184.4 0,0 18.46,6.8 36.13,1.3 21.34,-6.8 41.47,-31.5 25.99,-108.3"/><path style="fill:#f69b34;fill-opacity:1;fill-rule:nonzero;stroke:none" id="path122" d="m 8712.13,14736.4 -0.18,-0.1 c -281.15,-53.1 -810.5,-144.5 -924.85,-103.2 -79.31,101.3 23.41,146.1 97.74,180 74.28,33.9 827.29,-76.7 827.29,-76.7"/><path style="fill:#f69b34;fill-opacity:1;fill-rule:nonzero;stroke:none" id="path124" d="m 8695.77,14665.6 c 0,0 14.64,160.8 133.33,209.2 123.96,50.6 248.23,-81.3 248.23,-81.3 l -381.56,-127.9"/><path style="fill:#ffa15a;fill-opacity:1;fill-rule:nonzero;stroke:none" id="path126" d="m 9564.52,14672.4 -1783.03,-597.7 -85.65,255.6 1783.04,597.6 85.64,-255.5"/><path style="fill:#f78639;fill-opacity:1;fill-rule:nonzero;stroke:none" id="path128" d="m 10236.6,14897.6 -672.08,-225.2 -85.64,255.5 672.02,225.2 85.7,-255.5"/><path style="fill:#ffbe55;fill-opacity:1;fill-rule:nonzero;stroke:none" id="path130" d="m 8751.1,14707.8 c 0,0 -386.31,-6.5 -597.45,-158.6 -243.37,-175.3 -114.94,-505.1 -114.94,-505.1 l 55.08,47.7 99.8,-11.6 c 0,0 -104.4,359.8 100.41,483.7 177.09,107.2 457.1,143.9 457.1,143.9"/><path style="fill:#ffb93e;fill-opacity:1;fill-rule:nonzero;stroke:none" id="path132" d="m 9207.17,12752.4 -130.03,-43.6 -628.06,1873.9 130.03,43.6 628.06,-1873.9"/><path style="fill:#233862;fill-opacity:1;fill-rule:nonzero;stroke:none" id="path134" d="m 21332.8,11056.7 c 0,0 -255.1,-150.3 -98.5,-441.4 0,0 -223.4,40.9 -271.6,107.5 0,0 5.6,-27.7 13.9,-41.7 0,0 -205.3,46.5 -272.5,132.1 -67.1,85.7 262.3,1112 796,846.2 0,0 488,-90.6 296.8,-632.3 -191.1,-541.8 -10.5,-589.7 -10.5,-589.7 0,0 -56.8,-11.5 -81,-5 0,0 -31.9,22.9 -33.7,44.3 0,0 -1.1,-32.6 5.4,-44.8 0,0 -199.9,33.1 -277.8,132.5 -77.9,99.4 -124.5,385.4 -66.5,492.3"/><path style="fill:#ffb27d;fill-opacity:1;fill-rule:nonzero;stroke:none" id="path136" d="m 20964.5,10184.4 c -0.3,-0.1 -0.5,-0.2 -0.9,-0.3 -1.6,0.2 -1.2,0.3 0.9,0.3"/><path style="fill:#ffb27d;fill-opacity:1;fill-rule:nonzero;stroke:none" id="path138" d="m 21584.5,10362.9 c 7.5,-67.2 16.4,-127.4 20.4,-156.1 9,-64.4 -601.5,-22.5 -640.4,-22.4 27.1,11.8 110,274.5 136.2,374.7 31.7,121.5 56.7,252.8 56.7,252.8 l 431,-27.3 25.7,-1.5 c -15.9,-58.8 -27.2,-114.3 -35.1,-165.8 -1,-6.9 -2,-14 -2.9,-20.8 -7.9,-57.2 -0.9,-150.7 8.4,-233.6"/><path style="fill:#233862;fill-opacity:1;fill-rule:nonzero;stroke:none" id="path140" d="m 21098,10855.3 c 0,0 -69.9,221.6 -55.8,391.6 10.1,121.3 182.8,535.2 598.1,359.1 0,0 122.1,-45.6 218.8,-156.3 77,-88.1 176.1,-260.6 -74.4,-595.4 l -72.8,-116.2 -613.9,117.2"/><path style="fill:#ed975d;fill-opacity:1;fill-rule:nonzero;stroke:none" id="path142" d="m 21584.5,10362.9 c -301.6,88.3 -429.5,436.6 -429.5,436.6 127.5,-3.7 293.7,-92.2 424,-182.2 -1,-6.9 -2,-14 -2.9,-20.8 -7.9,-57.2 -0.9,-150.7 8.4,-233.6"/><path style="fill:#ffb27d;fill-opacity:1;fill-rule:nonzero;stroke:none" id="path144" d="m 21605.8,10485.3 c 0,0 -544.8,134.6 -455.7,472.6 89.1,337.9 78.8,582.9 430.3,511.2 351.6,-71.7 384.9,-218.4 382.6,-338.4 -2.3,-120 -213.2,-671.8 -357.2,-645.4"/><path style="fill:#233862;fill-opacity:1;fill-rule:nonzero;stroke:none" id="path146" d="m 21829.7,11412 c 0,0 -253.5,-357.1 -496.9,-355.3 -243.4,1.7 -326.1,88.9 -326.1,88.9 0,0 211.6,92.6 312,325.4 0,0 448.9,159.3 511,-59"/><path style="fill:#233862;fill-opacity:1;fill-rule:nonzero;stroke:none" id="path148" d="m 21784.3,11389.5 c 0,0 87.5,-117.8 91.8,-211 4.2,-93.2 -30.5,-273.5 22.7,-281.2 0,0 183.2,239.8 97.8,425.5 -90.5,196.9 -212.3,66.7 -212.3,66.7"/><path style="fill:#233862;fill-opacity:1;fill-rule:nonzero;stroke:none" id="path150" d="m 21801.4,11370.7 c 0,0 -215.7,-387.1 -538.5,-443.9 0,0 355.1,178.9 452.1,446.5 96.9,267.5 86.4,-2.6 86.4,-2.6"/><path style="fill:#fff;fill-opacity:1;fill-rule:nonzero;stroke:none" id="path152" d="m 21520.8,10701.9 c 0,0 6.8,-51.4 39.6,-63.6 32.8,-12.2 119.9,-34.2 128.8,-28.7 8.8,5.4 41.4,45.5 41.4,45.5 0,0 -137.2,52.7 -209.8,46.8"/><path style="fill:#ffb27d;fill-opacity:1;fill-rule:nonzero;stroke:none" id="path154" d="m 21317.4,5532.4 c -6.9,-29 -13.9,-57.6 -20.7,-85.9 -41,-170.7 -79.3,-328.9 -103.3,-461.4 -31.3,-172.3 -38.7,-300.5 2.4,-354.4 169.1,-221.8 0,-1982.1 0,-1982.1 l -192.6,-198.3 c 0,0 -334.7,1737.9 -425.5,2010.2 -41.3,123.8 -101.4,652.5 -154.5,1192.3 -2.7,27 -5.3,54 -8,81 -9.1,94.4 -18,188.4 -26.5,280.2 -47.7,510.7 -83.3,948 -83.3,948 0,0 355,249.6 677.6,277.4 190.1,16.6 368.8,-43.9 457,-277.4 128.6,-339.7 -1.7,-926.3 -122.6,-1429.6"/><path style="fill:#ed975d;fill-opacity:1;fill-rule:nonzero;stroke:none" id="path156" d="m 21317.4,5532.4 c -263.8,190.5 -634.9,529.5 -769.6,1085.2 -25.8,276.3 192.1,538.9 435.2,621.8 190.1,16.6 368.8,-43.9 457,-277.4 128.6,-339.7 -1.7,-926.3 -122.6,-1429.6"/><path style="fill:#ffb27d;fill-opacity:1;fill-rule:nonzero;stroke:none" id="path158" d="m 22279.4,8889 1296.4,-334.9 v -151.3 c 0,0 -1290.1,15.1 -1373.3,158.8 -83.2,143.7 76.9,327.4 76.9,327.4"/><path style="fill:#ffb27d;fill-opacity:1;fill-rule:nonzero;stroke:none" id="path160" d="m 23575.7,3899.5 -60.6,-250.1 c 0,0 -1753.6,905.7 -1980.4,1079.7 -91.2,69.9 -211.5,449.4 -323.1,878.7 -166.1,640 -312.4,1390.5 -312.4,1390.5 0,0 245.8,945.5 903.9,366.8 393.8,-346.3 332.6,-1013.5 289.5,-1532.5 -28.7,-348.2 -49.4,-629.7 81.2,-702.7 254.7,-142.1 1002.2,-797 1238.8,-1247.6 l 163.1,17.2"/><path style="fill:#ffb27d;fill-opacity:1;fill-rule:nonzero;stroke:none" id="path162" d="m 20600.9,8102.4 c -458,116.5 -961.5,827 -961.5,827 l 129,111.9 c 133.5,-157.4 688.7,-428.5 688.7,-428.5 -3,144 0.7,275.4 9.8,395 61.6,812.8 368,1083.6 451.7,1143 13.5,9.6 21.2,13.6 21.2,13.6 0,0 0.3,-5.9 0.8,-17 1.2,-24.2 3.4,-72.8 5.7,-139.6 17,-497.5 37.3,-2002.9 -345.4,-1905.4"/><path style="fill:#fff;fill-opacity:1;fill-rule:nonzero;stroke:none" id="path164" d="m 20963.6,9077.8 c -23.8,-579.8 -110.5,-1154 -362.9,-1117 -309.5,45.1 -390.1,333.9 -406.5,548.6 -10.2,133.7 4.5,238.6 4.5,238.6 0,0 152.3,0.7 176.9,23.4 117,108 82.3,1167.6 140.2,1277.6 57.9,110 433.5,180.7 433.5,180.7 0,0 37.9,-578.8 14.3,-1151.9"/><path style="fill:#dfebfd;fill-opacity:1;fill-rule:nonzero;stroke:none" id="path166" d="m 20963.6,9077.8 c -23.8,-579.8 -110.5,-1154 -362.9,-1117 -309.5,45.1 -390.1,333.9 -406.5,548.6 76,3.8 209.7,22.4 262.9,103.4 76,116.1 313.4,863 313.4,863 0,0 93.4,-167.7 193.1,-398"/><path style="fill:#fff;fill-opacity:1;fill-rule:nonzero;stroke:none" id="path168" d="m 22915.6,8889 c 83.8,-119.1 37.6,-350.1 -138.3,-536 -109.2,-115.5 -257.1,-183.8 -497.9,-148.3 -105,15.5 -398.3,181.1 -429.1,382.9 -5.5,36.6 -8.6,58 -8.6,58 0,0 -133.5,-133.7 -138.5,-158.9 -2.3,-11.4 -13.8,-112.4 -15.6,-126.2 -2.1,-16.7 9.8,-78 9.8,-78 0,0 -637.8,-279 -1165.2,38.7 0,0 -150.3,1288.5 -42.3,1502.9 53.6,106.5 354.6,313.9 459.4,405.6 23.6,20.6 47.5,82.7 41,122.7 -5.3,33.8 33.6,90.8 66.2,80.5 63,-20.2 241.4,-108.5 366.9,-74.8 62.5,16.6 141.7,88.9 202.3,72.3 74.1,-20.2 -4.2,-198.4 37.8,-200.7 57.9,-2.9 370.3,-65.4 396.5,-115.8 9.1,-17.5 98.8,-255.3 211.4,-569.9 0,0 0.1,-0.2 0.1,-0.8 211.2,-590.1 521,-479.4 644.1,-654.2"/><path style="fill:#dfebfd;fill-opacity:1;fill-rule:nonzero;stroke:none" id="path170" d="m 21841.7,8645.6 c 0,0 -15.6,491.5 -55.3,485.5 -39.7,-6 -612.7,-557.5 -476.5,-778.1 136.1,-220.6 531.8,292.6 531.8,292.6"/><path style="fill:#2b478b;fill-opacity:1;fill-rule:nonzero;stroke:none" id="path172" d="m 22279.4,6630.3 c 0,0 -220.9,-68.2 -546.2,-113.2 -402.8,-55.7 -965.9,-75.8 -1468.8,113.2 0,0 -41.4,748.4 77.7,1138.4 119.2,390.2 174.9,576.9 174.9,576.9 0,0 477.4,-119.7 962.2,-26.9 68.1,12.9 136.4,30.2 203.4,52.5 0,0 299.1,-634.9 381.3,-907 82.3,-272.2 215.5,-833.9 215.5,-833.9"/><path style="fill:#233862;fill-opacity:1;fill-rule:nonzero;stroke:none" id="path174" d="m 22279.4,6630.3 c 0,0 -220.9,-68.2 -546.2,-113.2 -596.6,338.3 -305.7,1761.8 -305.7,1761.8 17.7,14.3 35,27.6 51.7,39.8 68.1,12.9 136.4,30.2 203.4,52.5 0,0 299.1,-634.9 381.3,-907 82.3,-272.2 215.5,-833.9 215.5,-833.9"/><path style="fill:#b64c41;fill-opacity:1;fill-rule:nonzero;stroke:none" id="path176" d="m 21024,8204.7 c -353.7,0 -499.5,121.7 -510.3,130 l -22.8,166.6 c 3.4,-2.6 477.9,-287.5 1212.3,-14.6 l -15.6,-126.2 c -282.4,-104.9 -479.9,-155.8 -663.6,-155.8"/><path style="fill:#ffb27d;fill-opacity:1;fill-rule:nonzero;stroke:none" id="path178" d="m 23575.8,8554.1 c 0,0 237.8,117.2 332.4,128.5 94.5,11.4 253.4,15.2 253.4,0 0,-15.1 -170.2,-120.8 -215.6,-128.5 -45.4,-7.6 -132.4,-71.9 -105.9,-79.5 26.5,-7.5 166.4,24.6 168.3,0 1.9,-24.6 -85.1,-39.7 -100.2,-58.6 -15.2,-18.9 -68.1,-41.6 -153.2,-30.2 -85.1,11.3 -179.2,17 -179.2,17 v 151.3"/><path style="fill:#ffb27d;fill-opacity:1;fill-rule:nonzero;stroke:none" id="path180" d="m 19768.2,9041.7 -129.3,-112.8 c 0,0 -229.7,167.8 -240.7,236.6 v 6.9 c 0,71.5 145.8,220 266.8,225.5 12.4,0 23.4,-2.7 33,-8.2 64.5,-40.4 72.2,-208.4 71.6,-295.3 -0.2,-31.8 -1.4,-52.7 -1.4,-52.7"/><path style="fill:#2b478b;fill-opacity:1;fill-rule:nonzero;stroke:none" id="path182" d="m 23575.7,3899.5 -60.6,-250.1 c 0,0 -1753.6,905.7 -1980.4,1079.7 -91.2,69.9 -211.5,449.4 -323.1,878.7 149.7,-30.7 472.9,-47.1 881,224.8 -28.7,-348.2 -49.4,-629.7 81.2,-702.7 254.7,-142.1 1002.2,-797 1238.8,-1247.6 l 163.1,17.2"/><path style="fill:#233862;fill-opacity:1;fill-rule:nonzero;stroke:none" id="path184" d="m 23922.4,3802.4 c 0,0 -0.5,0.1 -1.6,0.4 -7.8,2 -43.9,13.9 -67.8,71.2 -15.8,37.8 -20.5,68.8 -34.9,106.2 l -59.3,102.2 c -61.9,81.5 -83.6,62.4 -83.6,62.4 0,0 -16.2,-20.7 -40.1,-48.1 -39.5,-45.2 -100.1,-108.2 -143,-124.4 -30.5,-11.4 -49.5,-30.4 -61.3,-47.9 -14.9,-22.1 -18.2,-42.1 -18.2,-42.1 0,0 127.1,-22.1 116.1,-84.8 -21.6,-121.3 -16.5,-143.3 -14.3,-147.3 l 0.7,-0.8 c 0,0 216.9,-113.5 286.3,-135.8 123.4,-39.5 187.8,-123.4 227.8,-161.7 16.2,-15.6 38.6,-22.7 60.7,-19.2 32.6,5.2 74.8,15.6 84,35.6 l -251.5,434.1"/><path style="fill:#233862;fill-opacity:1;fill-rule:nonzero;stroke:none" id="path186" d="m 21195.8,4630.7 c 169.1,-221.8 0,-1982.1 0,-1982.1 l -192.6,-198.3 c 0,0 -334.7,1737.9 -425.5,2010.2 -41.3,123.8 -101.4,652.5 -154.5,1192.3 160.4,-71.6 551.9,-227.5 873.5,-206.3 -41,-170.7 -79.3,-328.9 -103.3,-461.4 -31.3,-172.3 -38.7,-300.5 2.4,-354.4"/><path style="fill:#233862;fill-opacity:1;fill-rule:nonzero;stroke:none" id="path188" d="m 21389.3,2362.1 -103.9,-56.3 c -37.8,-13.3 -68.9,-17.2 -107.1,-31.8 -58.1,-22.2 -98.9,-66 -100.9,-73.8 -29.3,-119.2 -70.9,-111.6 -70.9,-111.6 l -417.3,-3.9 c -19.7,9.8 13.7,94.1 29.7,109.8 39.4,38.9 157.5,19.3 200.6,141.5 24.3,68.7 144,282.2 144,282.2 l 0.9,0.7 c 4,2.1 26.2,6.6 146.8,-18.5 62.3,-12.9 88.1,113.6 88.1,113.6 0,0 19.9,-3.9 41.5,-19.5 17.2,-12.2 35.6,-31.8 46.1,-62.6 15,-43.3 76.2,-105.7 120.2,-146.5 26.7,-24.7 47,-41.5 47,-41.5 0,0 18.5,-22.3 -64.8,-81.8"/><path style="fill:#4a75cb;fill-opacity:1;fill-rule:nonzero;stroke:none" id="path190" d="m 17194.1,2071 h -1772.3 v 5104.8 h 1772.3 V 2071"/><path style="fill:#739af0;fill-opacity:1;fill-rule:nonzero;stroke:none" id="path192" d="m 15421.8,2071 h -4682.2 v 5104.8 h 4682.2 V 2071"/><path style="fill:#afcdfb;fill-opacity:1;fill-rule:nonzero;stroke:none" id="path194" d="m 10739.6,4321.3 v 357.3 h 4682.2 v -357.3 h -4682.2"/><path style="fill:#88b3ff;fill-opacity:1;fill-rule:nonzero;stroke:none" id="path196" d="m 15421.8,4321.3 v 357.3 h 1772.3 v -357.3 h -1772.3"/><path style="fill:#4a75cb;fill-opacity:1;fill-rule:nonzero;stroke:none" id="path198" d="m 14155.2,7254.4 c 0,0 1435.4,651.5 2436,403.9 l -199.8,-133.7 100.7,-236 c 0,0 -1113.2,290.2 -2365.7,-72.7 l 28.8,38.5"/><path style="fill:#72a9f7;fill-opacity:1;fill-rule:nonzero;stroke:none" id="path200" d="m 13909.3,7279.4 c 0,0 -186.6,22.6 -464.8,60.8 -738.5,101.6 -2121.8,314.1 -2370,510.8 -390.2,308.9 534.3,1621 934.4,1803.1 400.2,181.9 1900.4,-2374.7 1900.4,-2374.7"/><path style="fill:#72a9f7;fill-opacity:1;fill-rule:nonzero;stroke:none" id="path202" d="m 16835.9,8913.2 c 66.7,-325 -2954.1,-1729.3 -2954.1,-1729.3 0,0 55,148.6 144.4,381.3 0,0 0.1,0.2 0.2,0.4 326.6,849.9 1113.4,2822.1 1371.9,2794.8 26,-2.7 56.4,-12 90.3,-26.8 397.1,-174.8 1285.9,-1121 1347.3,-1420.4"/><path style="fill:#4a75cb;fill-opacity:1;fill-rule:nonzero;stroke:none" id="path204" d="m 15463.1,10044.5 c -184.5,-320.4 -1417.4,-2445.7 -1436.7,-2478.9 326.6,849.9 1113.4,2822.1 1371.9,2794.8 0,0 51.2,1.5 90.3,-26.8 47.1,-34.4 76.4,-112.1 -25.5,-289.1"/><path style="fill:#4a75cb;fill-opacity:1;fill-rule:nonzero;stroke:none" id="path206" d="m 13445,7340.2 h -0.5 c -738.5,101.6 -2121.8,314.1 -2370,510.8 -112.2,315.7 178.7,341.5 390.4,363.7 211.5,22.2 1980.1,-874.5 1980.1,-874.5"/><path style="fill:#4a75cb;fill-opacity:1;fill-rule:nonzero;stroke:none" id="path208" d="m 13345.9,7178.8 c 0,0 169.3,385.2 502.6,406.6 348.1,22.2 545.8,-406.6 545.8,-406.6 h -1048.4"/><path style="fill:#88b3ff;fill-opacity:1;fill-rule:nonzero;stroke:none" id="path210" d="m 15496.9,6473.7 h -4899.2 v 702.1 h 4899.2 v -702.1"/><path style="fill:#3969b7;fill-opacity:1;fill-rule:nonzero;stroke:none" id="path212" d="m 17343.5,6473.7 h -1846.6 v 702.1 h 1846.6 v -702.1"/><path style="fill:#4a75cb;fill-opacity:1;fill-rule:nonzero;stroke:none" id="path214" d="m 13516.9,7234.7 c 0,0 -959.6,303.9 -1607.1,103 -746.3,-231.7 -702.1,-1152.6 -702.1,-1152.6 l 175.5,72.1 237,-111.1 c 0,0 40,975.1 648.5,1111.7 526.1,118 1248.2,-23.1 1248.2,-23.1"/><path style="fill:#afcdfb;fill-opacity:1;fill-rule:nonzero;stroke:none" id="path216" d="m 13024.6,2027 h -357.3 v 5148.8 h 357.3 V 2027"/><path style="fill:#233862;fill-opacity:1;fill-rule:nonzero;stroke:none" id="path218" d="m 5069.67,9272 c 0,0 1319.75,-967.2 1642.59,-943.9 322.83,23.3 1466.09,728.8 1466.09,728.8 l -241.86,287.5 c 0,0 -1035.42,-383.6 -1225,-277.8 -189.58,105.8 -930.07,1003.5 -1240.76,955.6 -310.69,-48 -617.66,-402.5 -401.06,-750.2"/><path style="fill:#233862;fill-opacity:1;fill-rule:nonzero;stroke:none" id="path220" d="m 4291.38,2005 h -394.52 c -49.67,27 -93.92,88.7 -107.9,180.7 -19.27,127.2 -161.72,196.4 -192.55,300.4 -30.76,103.9 127.1,250.2 127.1,250.2 l 26.41,34.1 27.47,35.3 261.85,-61.6 c 0,0 6.49,-62.4 10.42,-141.9 2.85,-57.3 4.35,-123.5 1.14,-181.6 -7.71,-138.6 38.75,-287.9 161.93,-314.9 91.06,-19.9 87,-73.9 78.65,-100.7"/><path style="fill:#233862;fill-opacity:1;fill-rule:nonzero;stroke:none" id="path222" d="m 6580.97,2005 h -902.22 c -43.39,52.9 -27.4,248.3 -20.84,312.1 1.36,12.9 2.29,20.4 2.29,20.4 0,0 308.09,246.4 350.41,57.7 1.28,-5.9 2.85,-11.7 4.57,-17.4 53.31,-176.5 292.46,-256.7 430.55,-279.1 89.78,-14.5 122.97,-61.2 135.24,-93.7"/><path style="fill:#f99746;fill-opacity:1;fill-rule:nonzero;stroke:none" id="path224" d="m 6409.07,7041.1 c 0,0 -46.78,-583.7 -101.77,-1285.3 -74.74,-953.1 -164.6,-2123.8 -173.5,-2345.6 -15.36,-385.1 -77.04,-1001.1 -77.04,-1001.1 0,0 -146.24,-146.3 -438.94,-84.7 0,0 -260.83,879.4 -335.33,1809.9 -1.16,15.2 -2.31,30.6 -3.47,45.9 -69.3,947.2 -177.08,2941.7 -177.08,2941.7 l 1307.13,-80.8"/><path style="fill:#ed7d2b;fill-opacity:1;fill-rule:nonzero;stroke:none" id="path226" d="m 6409.07,7041.1 c 0,0 -46.78,-583.7 -101.77,-1285.3 L 5282.49,4134.3 c -1.16,15.2 -2.31,30.6 -3.47,45.9 -69.3,947.2 -177.08,2941.7 -177.08,2941.7 l 1307.13,-80.8"/><path style="fill:#f99746;fill-opacity:1;fill-rule:nonzero;stroke:none" id="path228" d="m 6195.42,6971.8 c 0,0 -843.22,-2113.9 -1397.68,-3107.3 -554.44,-993.4 -727.71,-1270.6 -727.71,-1270.6 0,0 -317.66,127.1 -346.53,213.7 0,0 212.02,1917.8 583.33,2385.3 209.81,264.2 456.26,1056.9 467.81,1334.2 11.56,277.2 75.09,825.8 75.09,825.8 l 1345.69,-381.1"/><path style="fill:#ffb27d;fill-opacity:1;fill-rule:nonzero;stroke:none" id="path230" d="m 5639.6,9981.5 c -314.69,-142.6 -914.32,67.8 -914.32,67.8 0,0 274.34,262.7 201.81,731.5 l 277.52,-173.4 188.51,-117.7 c 0,0 9.13,-81.8 7.59,-227.1 -0.42,-38.2 -1.54,-80.9 -3.8,-127.7 149.72,-60.1 242.69,-153.4 242.69,-153.4"/><path style="fill:#ed975d;fill-opacity:1;fill-rule:nonzero;stroke:none" id="path232" d="m 5393.12,10489.7 c 0,0 9.13,-81.8 7.59,-227.1 -194.32,9.8 -447.37,291.4 -447.37,291.4 93.55,39.7 177.83,55 251.27,53.4 l 188.51,-117.7"/><path style="fill:#ffb27d;fill-opacity:1;fill-rule:nonzero;stroke:none" id="path234" d="m 5492.23,10509.5 c 0,0 -529.54,-154.9 -620.93,176.3 -91.38,331.3 -221.28,534.4 112.96,647.3 334.24,112.9 435.08,4.7 492.48,-98.5 57.39,-103.1 150.89,-676.3 15.49,-725.1"/><path style="fill:#2b478b;fill-opacity:1;fill-rule:nonzero;stroke:none" id="path236" d="m 6441.94,7249.2 c 16.51,-152.6 24.2,-247.7 20.52,-251.5 -8.89,-9.4 -19.69,-15.7 -32.83,-17.3 -122.99,-13.1 -473.03,-124.4 -779.92,-129.9 -258.53,-6.3 -493.82,42.1 -749.86,121.8 -33.95,10.6 -113.03,41.3 -115.63,77.5 -3.7,39.6 -6.66,97.4 -10.46,170 -13,252.8 -34.97,687.6 -124.23,1181.6 -16.39,92 -30.15,183.6 -41.4,274 -83.81,673.9 -21.56,1283 222.85,1516.2 21.05,19.2 170.16,-32.7 307.27,-80.9 126.77,-44.6 247.09,-36.8 357.35,-0.2 l 125.06,-86.3 c 153.08,-111.2 324.71,-266.7 421.96,-522.6 82.86,-217.7 164.3,-618.4 232.86,-1035.5 31.05,-189.2 60.77,-380 84.31,-561.6 l 0.79,-6.6 c 3.8,-17.8 6.18,-37.6 8.35,-55.6 4.37,-32.3 8.54,-64 12.66,-95.2 25.5,-194 46.12,-367.1 60.35,-497.9"/><path style="fill:#2b478b;fill-opacity:1;fill-rule:nonzero;stroke:none" id="path238" d="m 4866.95,10718.3 c 0,0 54.33,15.9 36.18,91.2 -18.14,75.3 -30.07,175.2 34.28,164 64.34,-11.1 73.42,-60.4 95.44,-28.3 22.02,32.1 7.74,154.5 191.48,185.2 183.75,30.8 266.59,-24.4 347.96,23.7 81.38,48.1 70.24,178.7 70.24,178.7 0,0 -18.84,-49.4 -53.98,-68.6 0,0 119.73,213.4 -62.44,327.8 -182.17,114.5 -340.79,6.1 -436.15,-11.3 -210.08,-38.4 -345.25,-67.5 -397.62,-214.9 -52.37,-147.4 22.68,-530.1 174.61,-647.5"/><path style="fill:#233862;fill-opacity:1;fill-rule:nonzero;stroke:none" id="path240" d="m 6441.94,7249.2 c -25.96,-4.7 -477.56,-85.8 -784.59,116.4 -316.12,208.2 -686.44,1442.7 -686.44,1442.7 0,0 710.01,-789.6 723.79,-820.7 11.54,-26.3 523.55,-189 686.89,-240.5 25.5,-194 46.12,-367.1 60.35,-497.9"/><path style="fill:#ed7d2b;fill-opacity:1;fill-rule:nonzero;stroke:none" id="path242" d="m 10171.7,7698.9 -3512.28,-50 -49.98,3512.3 3512.26,50 50,-3512.3"/><path style="fill:#f99746;fill-opacity:1;fill-rule:nonzero;stroke:none" id="path244" d="m 9422.14,7688.3 -3512.25,-50 -49.97,3512.2 3512.24,50 49.98,-3512.2"/><path style="fill:#fff;fill-opacity:1;fill-rule:nonzero;stroke:none" id="path246" d="m 8564.17,8904.9 c -2.23,157.4 -91.25,293.5 -225.21,291.6 -140.64,-2 -212.41,-137 -210.12,-297.8 2.24,-157.4 91.26,-293.4 225.21,-291.5 140.65,2 212.37,140.3 210.12,297.7 z m -786.95,-11.2 c -4.72,331.5 222.54,602.7 564.11,607.6 338.22,4.8 569.7,-256.5 574.46,-591.4 4.67,-328.1 -222.53,-602.7 -564.11,-607.5 -338.21,-4.9 -569.69,256.4 -574.46,591.3 z m -670.05,1189.6 c -2.24,157.4 -91.26,293.4 -225.21,291.5 -140.65,-2 -212.41,-137 -210.12,-297.7 2.23,-157.4 91.25,-293.5 225.2,-291.6 140.65,2 212.37,140.4 210.13,297.8 z m 1150.51,589.1 398.5,5.7 -1677.85,-2368.5 -398.5,-5.7 z m -1937.46,-600.3 c -4.72,331.5 222.53,602.7 564.1,607.5 338.22,4.8 569.7,-256.5 574.46,-591.3 4.67,-328.2 -222.53,-602.7 -564.1,-607.6 -338.22,-4.8 -569.69,256.5 -574.46,591.4"/><path style="fill:#ffb27d;fill-opacity:1;fill-rule:nonzero;stroke:none" id="path248" d="m 7628.98,7527.1 c -118.56,2.3 -270.64,53.2 -319.39,77.5 -82.4,41 -124.38,80.7 -124.38,80.7 l 12.51,78 15,93.3 c 0,0 9.16,1.4 24.38,3 15.13,1.6 36.45,3.2 60.61,3.7 0,0 39.03,-11.9 71.29,17 32.2,28.8 91.59,48.3 136.56,37.5 44.9,-10.8 141.5,-0.7 144.56,-16.4 7.58,-38 -133.17,-31.1 -149.62,-54.9 -14.88,-21.6 -1.33,-36.2 1.44,-38.8 0.21,-0.1 0.35,-0.3 0.56,-0.4 82.4,-83.1 366.01,-113.3 354.67,-179.3 -4.28,-24.6 -178.02,-101.8 -228.19,-100.9"/><path style="fill:#2b478b;fill-opacity:1;fill-rule:nonzero;stroke:none" id="path250" d="m 4754.68,9281.3 c 0,0 649.6,-1501.7 939.91,-1644.8 290.32,-143.2 1615,-31.9 1615,-31.9 l 8.75,256.3 c 0,0 -1140.94,226 -1251.03,413.1 -110.08,187.1 -295.03,1336 -587.32,1451.7 -292.28,115.8 -736.38,-34.9 -725.31,-444.4"/><path style="fill:#ffb93e;fill-opacity:1;fill-rule:nonzero;stroke:none" id="path252" d="m 27728.6,5261.2 c -14.4,-8.8 -29,-17.3 -43.8,-25.4 -5.1,-2.8 -10.1,-5.6 -15.1,-8.2 -11.5,-6.1 -23,-12 -34.6,-17.8 -555.7,-272.9 -1233.5,-63.4 -1535.7,484.6 -288.1,522.7 -133.2,1170.1 339.6,1510 37.7,27.2 77.4,52.3 119.1,75.3 14.9,8.2 30,16.1 45.2,23.6 14.7,7.3 29.5,14.3 44.4,20.9 45.7,20.4 92.1,37.6 139,51.6 69.7,21 140.4,35.1 211.3,42.6 219.8,23.3 441,-16.9 637.1,-112.8 208,-101.7 387.9,-266.3 508.3,-484.5 302.9,-549.6 116.2,-1236.9 -414.8,-1559.9"/><path style="fill:#ffa412;fill-opacity:1;fill-rule:nonzero;stroke:none" id="path254" d="m 27127.2,7245.6 c -167.5,0 -334.1,-43 -481.8,-124.4 -233.8,-128.9 -403.5,-341.2 -477.7,-597.7 -74.2,-256.6 -44.1,-526.7 84.8,-760.5 175.9,-319.1 511.8,-517.3 876.5,-517.3 167.5,0 334.1,43 481.7,124.4 233.9,128.9 403.6,341.2 477.8,597.7 74.2,256.5 44.1,526.6 -84.9,760.5 -175.9,319.1 -511.7,517.3 -876.4,517.3 z m 1.8,-2063.4 c -387.8,0 -745,210.8 -932,550.2 -137.1,248.7 -169.2,535.9 -90.2,808.7 78.9,272.8 259.3,498.5 508,635.6 157,86.6 334.2,132.3 512.4,132.3 387.8,0 744.9,-210.8 932,-550.1 137.1,-248.7 169.1,-535.9 90.2,-808.7 -78.9,-272.8 -259.3,-498.6 -508,-635.7 -157,-86.5 -334.2,-132.3 -512.4,-132.3"/><path style="fill:#ffa412;fill-opacity:1;fill-rule:nonzero;stroke:none" id="path256" d="m 27128.1,7028.5 234.5,-475.1 524.3,-76.2 -379.4,-369.8 89.5,-522.2 -468.9,246.6 -469,-246.6 89.6,522.2 -379.4,369.8 524.3,76.2 234.5,475.1"/><path style="fill:#ffb93e;fill-opacity:1;fill-rule:nonzero;stroke:none" id="path258" d="m 28427.9,8101 c -8.1,-4.9 -16.4,-9.7 -24.7,-14.3 -2.9,-1.6 -5.7,-3.1 -8.6,-4.6 -6.5,-3.5 -12.9,-6.8 -19.5,-10 -313.6,-154.1 -696.2,-35.9 -866.7,273.4 -162.6,295 -75.2,660.4 191.7,852.3 21.2,15.3 43.6,29.5 67.2,42.4 8.4,4.7 16.9,9.2 25.5,13.4 8.3,4.1 16.6,8.1 25.1,11.8 25.7,11.5 51.9,21.2 78.4,29.1 39.3,11.8 79.3,19.8 119.3,24 124,13.2 248.8,-9.5 359.5,-63.6 117.4,-57.4 219,-150.3 286.9,-273.5 171,-310.2 65.6,-698.1 -234.1,-880.4"/><path style="fill:#ffa412;fill-opacity:1;fill-rule:nonzero;stroke:none" id="path260" d="m 28088.4,9221 c -94.5,0 -188.5,-24.3 -271.8,-70.2 -132,-72.8 -227.8,-192.6 -269.7,-337.4 -41.9,-144.7 -24.9,-297.2 47.9,-429.2 99.3,-180 288.8,-291.9 494.7,-291.9 94.5,0 188.5,24.3 271.9,70.2 132,72.8 227.7,192.6 269.6,337.3 41.9,144.8 24.9,297.3 -47.9,429.2 -99.3,180.1 -288.8,292 -494.7,292 z m 1.1,-1164.5 c -218.9,0 -420.5,118.9 -526,310.5 -77.4,140.3 -95.5,302.4 -51,456.4 44.6,154 146.4,281.4 286.8,358.7 88.6,48.9 188.6,74.7 289.1,74.7 218.9,0 420.5,-119 526.1,-310.5 77.4,-140.3 95.4,-302.4 50.9,-456.4 -44.5,-154 -146.4,-281.4 -286.7,-358.8 -88.7,-48.8 -188.6,-74.6 -289.2,-74.6"/><path style="fill:#ffa412;fill-opacity:1;fill-rule:nonzero;stroke:none" id="path262" d="m 28089,9098.5 132.3,-268.2 295.9,-43 -214.1,-208.7 50.5,-294.7 -264.6,139.2 -264.7,-139.2 50.5,294.7 -214.1,208.7 295.9,43 132.4,268.2"/><path style="fill:#cde0fb;fill-opacity:1;fill-rule:nonzero;stroke:none" id="path264" d="m 17131.5,16635 c -4.8,-5.9 -9.7,-11.7 -14.8,-17.4 -1.8,-2 -3.5,-3.9 -5.2,-5.8 -4,-4.3 -8,-8.6 -12.1,-12.8 -195.9,-199.9 -516.4,-212.6 -727.7,-24.4 -201.5,179.5 -232.8,478.9 -82.4,694.9 12,17.3 25.1,34 39.5,50 5.1,5.8 10.3,11.4 15.7,16.9 5.1,5.4 10.4,10.6 15.8,15.6 16.4,15.6 33.6,29.9 51.5,42.9 26.5,19.5 54.6,36.1 83.7,50 90.2,43 190.5,59.1 288.6,47.7 104,-12 205.5,-55.1 289.6,-130.1 211.8,-188.7 235.7,-509.9 57.8,-727.5"/><path style="fill:#afcdfb;fill-opacity:1;fill-rule:nonzero;stroke:none" id="path266" d="m 16728,17416.5 c -8.9,0 -17.8,-0.3 -26.7,-0.8 -120.5,-6.9 -231.1,-60.4 -311.5,-150.6 -80.3,-90.1 -120.7,-206.2 -113.7,-326.7 6.9,-120.6 60.4,-231.2 150.6,-311.5 90.1,-80.3 206.2,-120.7 326.7,-113.8 120.6,7 231.2,60.5 311.5,150.6 80.3,90.2 120.7,206.2 113.8,326.7 -7,120.6 -60.5,231.2 -150.6,311.5 -83.5,74.4 -189.2,114.6 -300.1,114.6 z m -1.2,-932.8 c -118,0 -230.4,42.7 -319.2,121.8 -95.9,85.4 -152.8,203 -160.1,331.2 -7.4,128.2 35.5,251.6 120.9,347.5 85.5,95.9 203.1,152.7 331.3,160.1 128.1,7.5 251.6,-35.5 347.5,-121 95.8,-85.4 152.7,-203 160.1,-331.2 7.4,-128.2 -35.6,-251.6 -121,-347.5 -85.4,-95.8 -203,-152.7 -331.2,-160.1 -9.5,-0.6 -19,-0.8 -28.3,-0.8"/><path style="fill:#afcdfb;fill-opacity:1;fill-rule:nonzero;stroke:none" id="path268" d="m 16609.6,17298.2 171.4,-167.3 235,46.4 -106.1,-214.8 116.8,-209.1 -237.1,34.5 -162.8,-175.6 -40.4,236.1 -217.4,100.6 212.1,111.4 28.5,237.8"/><path style="fill:#cde0fb;fill-opacity:1;fill-rule:nonzero;stroke:none" id="path270" d="m 15588.8,2430.4 c -8.6,-10.6 -17.5,-21 -26.6,-31.2 -3.1,-3.5 -6.2,-6.9 -9.3,-10.3 -7.1,-7.7 -14.3,-15.3 -21.6,-22.8 -349.8,-357.2 -922.4,-379.8 -1299.7,-43.6 -359.9,320.6 -416,855.3 -147.2,1241.2 21.4,30.9 44.9,60.7 70.4,89.4 9.2,10.2 18.6,20.3 28.1,30.1 9.2,9.5 18.7,18.9 28.2,27.9 29.4,27.8 60.1,53.3 92,76.6 47.5,34.7 97.5,64.5 149.5,89.2 161.2,76.8 340.4,105.7 515.5,85.3 185.8,-21.5 367.1,-98.5 517.3,-232.4 378.4,-337.1 421,-910.7 103.4,-1299.4"/><path style="fill:#afcdfb;fill-opacity:1;fill-rule:nonzero;stroke:none" id="path272" d="m 14867.9,3826.2 c -15.8,0 -31.6,-0.5 -47.6,-1.4 -215.3,-12.4 -412.9,-107.9 -556.3,-269 -143.5,-161 -215.7,-368.3 -203.3,-583.6 12.5,-215.3 108,-412.9 269,-556.4 161.1,-143.4 368.4,-215.6 583.6,-203.2 215.4,12.4 412.9,108 556.4,269 143.5,161.1 215.7,368.3 203.2,583.6 -12.4,215.3 -107.9,412.9 -268.9,556.4 -149.2,132.9 -338,204.6 -536.1,204.6 z m -2.2,-1666.2 c -210.7,0 -411.4,76.3 -570,217.6 -171.3,152.6 -272.9,362.7 -286.1,591.7 -13.2,229 63.5,449.4 216.1,620.6 152.6,171.3 362.7,272.8 591.7,286 228.8,13.4 449.4,-63.5 620.6,-216.1 171.3,-152.5 272.9,-362.6 286.1,-591.6 13.2,-229 -63.6,-449.4 -216.1,-620.7 -152.6,-171.2 -362.7,-272.8 -591.7,-286 -16.9,-1 -33.8,-1.5 -50.6,-1.5"/><path style="fill:#afcdfb;fill-opacity:1;fill-rule:nonzero;stroke:none" id="path274" d="m 14656.5,3614.9 306.2,-298.8 419.8,82.9 -189.6,-383.6 208.6,-373.6 -423.4,61.7 -290.9,-313.8 -72.1,421.8 -388.4,179.7 378.9,198.9 50.9,424.8"/><path style="fill:#2e3552;fill-opacity:1;fill-rule:nonzero;stroke:none" id="path276" d="M 28982.4,2011.5 H 1461.46 c -17.19,0 -31.25,14.1 -31.25,31.3 v 10.6 c 0,17.2 14.06,31.3 31.25,31.3 H 28982.4 c 17.2,0 31.3,-14.1 31.3,-31.3 v -10.6 c 0,-17.2 -14.1,-31.3 -31.3,-31.3"/><path style="fill:#6bb7bf;fill-opacity:1;fill-rule:nonzero;stroke:none" id="path278" d="m 18541.6,8506.3 c 0,0 -130.5,-89 -275.6,-74.4 -107.7,10.9 -213.8,110.6 -217.9,117.2 l -85.8,-149.2 c 0,0 196.3,-119.1 364.6,-86.5 51.5,10 135.1,61.2 172.9,99.6 41.6,42.3 41.8,93.3 41.8,93.3"/><path style="fill:#86d1cd;fill-opacity:1;fill-rule:nonzero;stroke:none" id="path280" d="m 18538.1,8817.2 215.7,89.3 c 0,0 -29.6,-448.3 -400.1,-585.3 0,0 234.1,306.9 184.4,496"/><path style="fill:#f99746;fill-opacity:1;fill-rule:nonzero;stroke:none" id="path282" d="m 20051.5,3458 c 0,0 94.2,-106.7 186.9,-104.6 0,0 12.3,-116.7 -21.2,-147.7 0,0 -158.6,29 -196.8,86.9 0,0 -32,139.2 31.1,165.4"/><path style="fill:#cde0fb;fill-opacity:1;fill-rule:nonzero;stroke:none" id="path284" d="m 18573.7,4924.9 c 0,0 -85.3,103.5 -84.1,227.3 1,92 77.2,189.4 82.4,193.4 l -132.8,61.1 c 0,0 -85.6,-175.2 -45.1,-315 12.4,-42.8 62.1,-109.6 97.5,-138.6 39,-31.9 82.1,-28.2 82.1,-28.2"/><path style="fill:#cde0fb;fill-opacity:1;fill-rule:nonzero;stroke:none" id="path286" d="m 18836.4,4951.7 92.1,-175.5 c 0,0 -381.4,-9.4 -525.8,293.4 0,0 277.6,-174.4 433.7,-117.9"/></g></g></svg>