<?xml version="1.0" encoding="UTF-8" standalone="no"?>
<svg
   xmlns:dc="http://purl.org/dc/elements/1.1/"
   xmlns:cc="http://creativecommons.org/ns#"
   xmlns:rdf="http://www.w3.org/1999/02/22-rdf-syntax-ns#"
   xmlns:svg="http://www.w3.org/2000/svg"
   xmlns="http://www.w3.org/2000/svg"
   xmlns:sodipodi="http://sodipodi.sourceforge.net/DTD/sodipodi-0.dtd"
   xmlns:inkscape="http://www.inkscape.org/namespaces/inkscape"
   version="1.1"
   id="svg2"
   xml:space="preserve"
   width="3428.1333"
   height="2666.6667"
   viewBox="0 0 3428.1333 2666.6667"
   sodipodi:docname="8307.eps"><metadata
     id="metadata8"><rdf:RDF><cc:Work
         rdf:about=""><dc:format>image/svg+xml</dc:format><dc:type
           rdf:resource="http://purl.org/dc/dcmitype/StillImage" /></cc:Work></rdf:RDF></metadata><defs
     id="defs6" /><sodipodi:namedview
     pagecolor="#ffffff"
     bordercolor="#666666"
     borderopacity="1"
     objecttolerance="10"
     gridtolerance="10"
     guidetolerance="10"
     inkscape:pageopacity="0"
     inkscape:pageshadow="2"
     inkscape:window-width="640"
     inkscape:window-height="480"
     id="namedview4" /><g
     id="g10"
     inkscape:groupmode="layer"
     inkscape:label="ink_ext_XXXXXX"
     transform="matrix(1.3333333,0,0,-1.3333333,0,2666.6667)"><g
       id="g12"
       transform="scale(0.1)"><path
         d="M 25711,0 H 0 V 20000 H 25711 V 0"
         style="fill:#ffffff;fill-opacity:1;fill-rule:nonzero;stroke:none"
         id="path14" /><path
         d="m 15176.4,15630.4 c 3.5,9.7 86.1,151 192.8,304.5 496.2,714.9 1232,1403.9 2094.9,1378 l 0.6,5.3 c -390.1,42.8 -772.4,-61.1 -1107.9,-246.3 -553.6,-298.4 -1093,-867.1 -1388.1,-1304.2 l 207.7,-137.3"
         style="fill:#f7cc7f;fill-opacity:1;fill-rule:nonzero;stroke:none"
         id="path16" /><path
         d="m 17272.6,16917.3 58.4,402.1 -298.1,276 c -34,31.4 -17.1,88.1 28.5,96 l 400.4,68.7 170.4,368.8 c 19.4,42 78.5,43.5 100.1,2.5 l 189.1,-359.5 403.4,-48.1 c 45.9,-5.5 65.6,-61.2 33.3,-94.4 l -283.5,-291 78.9,-398.5 c 9,-45.4 -37.9,-81.3 -79.4,-60.9 l -364.4,179.8 -354.6,-198.2 c -40.4,-22.6 -89.1,10.9 -82.5,56.7"
         style="fill:#f7cc7f;fill-opacity:1;fill-rule:nonzero;stroke:none"
         id="path18" /><path
         d="m 9420.84,17653.2 -53.11,-196.9 159.23,-133.9 -75.18,-216.6 213.56,-90.3 -74.2,-248.6 186.4,-107.4 -32.29,-250.9 -94.95,12.2 24.12,187.6 -196.68,113.3 71.32,239 -217.13,91.8 82.95,239 -155.48,130.7 49.23,182.6 -120.06,64.5 45.3,84.3 186.97,-100.4"
         style="fill:#9bc1f9;fill-opacity:1;fill-rule:nonzero;stroke:none"
         id="path20" /><path
         d="m 4925.21,5413.7 c 230.19,-256.8 208.64,-651.5 -48.14,-881.6 -256.77,-230.1 -651.53,-208.5 -881.72,48.3 -230.18,256.7 -208.63,651.4 48.14,881.6 256.77,230.1 651.54,208.5 881.72,-48.3"
         style="fill:#f7cc7f;fill-opacity:1;fill-rule:nonzero;stroke:none"
         id="path22" /><path
         d="m 4277.73,4700.6 c 123.07,-137.3 334.13,-148.8 471.42,-25.8 137.28,123 148.8,334.1 25.74,471.3 l -497.16,-445.5"
         style="fill:#efefef;fill-opacity:1;fill-rule:nonzero;stroke:none"
         id="path24" /><path
         d="M 20721,1879.2 H 5758.89 c -39.13,0 -70.85,-31.7 -70.85,-70.8 v 0 c 0,-39.2 31.72,-70.9 70.85,-70.9 H 20721 c 39.1,0 70.9,31.7 70.9,70.9 v 0 c 0,39.1 -31.8,70.8 -70.9,70.8"
         style="fill:#184655;fill-opacity:1;fill-rule:nonzero;stroke:none"
         id="path26" /><path
         d="m 4245.71,6977.4 -163.14,92.5 c -45.1,-71.9 -99.97,-136.3 -153.25,-184.9 -44.47,-40.5 -112.76,-39.5 -156.09,2.2 l -5.22,5.1 c -47.74,46 -46.64,123.1 2.97,167.1 50.56,44.8 99.62,100.9 137.71,168.1 55.51,97.8 55.71,186.2 -12.97,225.2 -65.25,37 -137.63,5.4 -252.62,-97.3 -166,-148.7 -322.95,-225.4 -489.52,-130.9 -151.11,85.7 -209.22,259.3 -141.09,463.5 l -163.13,92.5 95.44,168.3 151.1,-85.7 c 38.21,60.9 75.67,107.5 111.46,143.9 43.74,44.5 115.34,45.1 160.27,1.8 v 0 c 46.47,-44.8 46.68,-119.3 0.27,-164.1 -34.79,-33.6 -72.57,-78.1 -106.94,-138.7 -63.29,-111.6 -35.66,-175 12.42,-202.2 56.67,-32.2 126.81,7.5 264.53,122.3 187.99,163.4 329.18,192.3 483.72,104.7 152.83,-86.7 222,-268.9 144.35,-485.8 l 175.16,-99.4 -95.43,-168.2"
         style="fill:#fae0b2;fill-opacity:1;fill-rule:nonzero;stroke:none"
         id="path28" /><path
         d="m 20289.6,13866.2 -108,-269.2 -452.3,125.9 -206.4,-374.1 -353.9,38.9 -19.7,-179.1 473.3,-52.1 195.6,354.6 470.6,-131 162.5,405 -161.7,81.1"
         style="fill:#466eb6;fill-opacity:1;fill-rule:nonzero;stroke:none"
         id="path30" /><path
         d="m 19507.3,4332.3 94.7,235.1 c -104.3,47.6 -200.4,109.6 -275,172.2 -62.3,52.4 -73.2,144 -25,209.6 l 5.8,7.9 c 53.1,72.2 156.6,84.5 224.5,25.9 69.1,-59.7 152.9,-115.4 249.8,-154.4 141.1,-56.9 259.5,-41.3 299.4,57.7 37.9,94 -17.4,185.3 -175.6,321 -228.9,195.8 -359.7,392.4 -262.9,632.4 87.7,217.9 310,326.8 595.7,272 l 94.8,235.2 242.6,-97.8 -87.8,-217.8 c 88.4,-40.3 157.5,-82.1 212.7,-123.6 67.5,-50.6 81.1,-146.4 31.1,-214.4 v 0 c -51.7,-70.2 -151.4,-83.9 -219.8,-29.7 -51.3,40.6 -117.7,83.3 -205,118.5 -160.9,64.8 -240.8,16.4 -268.7,-52.9 -32.9,-81.6 32.7,-168.5 211.2,-332.5 252.6,-222.6 316.6,-406.6 226.8,-629.4 -88.7,-220.3 -320.5,-345.5 -625,-280.3 l -101.8,-252.5 -242.5,97.8"
         style="fill:#96d9c9;fill-opacity:1;fill-rule:nonzero;stroke:none"
         id="path32" /><path
         d="m 6306.34,12464.9 c 23.99,-31.7 22.18,-76 -4.35,-105.6 -52.04,-58.1 -137.04,-128.4 -243.73,-180.3 -156.07,-76.1 -335.12,-98.9 -503.92,-40.7 -105.49,36.4 -205.9,110.3 -281.32,211.1 l -92.22,-44.9 c -31.34,-15.3 -69.13,-2.3 -84.4,29.1 l -1.16,2.3 c -15.27,31.4 -2.24,69.2 29.1,84.5 l 75.67,36.8 c -15.04,24.9 -25.46,40.3 -32.38,54.5 -11.52,23.6 -22.98,53.1 -33.23,86.2 l -78.03,-38 c -31.34,-15.3 -69.12,-2.3 -84.39,29.1 v 0 c -15.27,31.3 -2.25,69.1 29.09,84.4 l 94.6,46 c -26.99,121.5 -22.2,243.8 14.17,349.3 61.85,179.3 197.36,315.6 360.51,395.1 95.12,46.3 175.19,64.9 240.75,71.8 45.58,4.8 86.77,-27.3 93.23,-72.7 l 0.2,-1.4 c 6.69,-47 -26.46,-90.1 -73.54,-96.4 -53.54,-7.3 -116.02,-24 -186.96,-58.6 -104.04,-50.6 -191.96,-134.4 -235.55,-255.2 -24.26,-70.3 -30.99,-152.6 -7.1,-231.6 l 532.06,259.2 c 31.34,15.2 69.13,2.2 84.4,-29.1 v 0 c 15.27,-31.4 2.23,-69.1 -29.11,-84.4 l -555.7,-270.7 c 10.31,-27.2 20.62,-54.4 28.68,-70.9 10.37,-21.3 20.74,-42.6 36.92,-69.8 l 556.89,271.3 c 31.99,15.6 70.57,2.3 86.16,-29.7 v 0 c 15.59,-32 2.29,-70.6 -29.71,-86.2 l -533.23,-259.8 c 49.96,-60.5 111.86,-103.5 175.17,-125.3 125.44,-41.3 236.16,-28.3 354.39,29.3 72.07,35.1 130.59,79.5 174.29,121.2 35.96,34.3 93.75,29.7 123.75,-9.9 v 0"
         style="fill:#86b1f2;fill-opacity:1;fill-rule:nonzero;stroke:none"
         id="path34" /><path
         d="m 4586.21,10783.8 -275.33,-28 -93.9,438.1 -407.62,8.8 -123.87,316.3 -160.12,-62.7 165.66,-423.1 386.28,-8.3 97.69,-455.7 414.32,42 -3.11,172.6"
         style="fill:#50bfa5;fill-opacity:1;fill-rule:nonzero;stroke:none"
         id="path36" /><path
         d="m 17711.3,13987.3 172.9,-57.1 c 0,0 274.1,88.9 301.1,144.7 27,55.9 34.6,191.4 73.6,195.1 39,3.7 114.3,-9 132.3,-101.7 13,-67.4 -85.6,-262 -70.2,-282.7 9.7,-13 108.1,-48.6 180.4,-73.4 47.6,-16.4 81.9,-58.2 89.2,-108.7 v -0.2 c 4.9,-34.1 -14.4,-67.3 -46.3,-79.7 l -49.8,-19.2 15.9,-51.3 c 11.8,-38.3 -9.1,-79.4 -46.9,-92 l -38.5,-12.9 12.3,-31.3 c 15.9,-40.3 -6.4,-86 -47.8,-98 l -33.6,-9.8 1.4,-9 c 5.7,-37.4 -17.7,-73.3 -54,-82.8 l -33.4,-8.8 -460.4,151.9 c -43.1,14.3 -82.8,37.3 -116.7,67.8 l -152.9,80.7 c -16.4,8.7 -24,28.3 -17.8,46.2 l 141.8,408.2 c 6.8,19.7 27.9,30.4 47.4,24"
         style="fill:#fae0b2;fill-opacity:1;fill-rule:nonzero;stroke:none"
         id="path38" /><path
         d="m 7174.09,13438.8 c -3.81,10.8 -96.06,168.6 -215.17,339.9 -553.97,798.1 -1375.42,1567.3 -2338.74,1538.5 l -0.69,5.8 c 435.54,47.8 862.28,-68.2 1236.9,-274.9 618.01,-333.2 1220.18,-968 1549.62,-1456 l -231.92,-153.3"
         style="fill:#f7cc7f;fill-opacity:1;fill-rule:nonzero;stroke:none"
         id="path40" /><path
         d="m 4833.91,14875.5 -65.16,448.8 332.81,308.2 c 37.9,35.1 19.1,98.4 -31.81,107.1 l -447.01,76.8 -190.21,411.7 c -21.67,46.9 -87.71,48.6 -111.75,2.9 l -211.1,-401.5 -450.37,-53.6 c -51.29,-6.1 -73.32,-68.4 -37.26,-105.4 l 316.54,-324.8 -88.12,-444.9 c -10.05,-50.7 42.38,-90.9 88.71,-68 l 406.74,200.6 395.9,-221.3 c 45.09,-25.2 99.51,12.3 92.09,63.4"
         style="fill:#f7cc7f;fill-opacity:1;fill-rule:nonzero;stroke:none"
         id="path42" /><path
         d="m 19901.3,7089 31.2,106.4 c 165.2,30.9 307.4,142.3 354.3,301.8 15,51.1 25.3,94.3 32.9,152.1 l -221.3,63.7 39.4,134.1 199.8,-57.6 c 8,67 19.5,153.7 43.8,236.6 73.7,251.1 295.9,364.9 534.4,296.2 68,-19.6 120.5,-44.9 159.6,-71 35.4,-23.6 44.7,-71.3 21.4,-106.8 v 0 c -23.5,-35.6 -71.2,-45.8 -107.8,-23.5 -30.4,18.5 -69,36.3 -117.6,50.3 -167.6,48.2 -270.1,-46.9 -314.4,-198 -26.9,-91.5 -34,-163.3 -41.1,-235.1 l 309.5,-89.1 -39.4,-134 -292.2,84.1 c -17.3,-82.7 -36.7,-164.8 -78.6,-235.9 -50.5,-84.7 -124.5,-146.4 -215.7,-187.1 l -1.2,-4.2 564.7,-162.6 c 41.7,-12 65.8,-55.3 53.6,-96.6 l -1.6,-5.6 c -12.2,-41.4 -55.8,-65.2 -97.6,-53.1 l -816.1,234.9"
         style="fill:#f7cc7f;fill-opacity:1;fill-rule:nonzero;stroke:none"
         id="path44" /><path
         d="m 2929.61,13349 105.1,177.6 -86.66,187.2 c -9.87,21.3 8.99,44.7 31.93,39.6 l 201.3,-45.1 151.28,140.2 c 17.23,16 45.3,5.3 47.5,-18.1 l 19.32,-205.4 180.15,-100.5 c 20.52,-11.5 19,-41.5 -2.56,-50.8 l -189.37,-81.8 -39.94,-202.5 c -4.54,-23 -33.56,-30.8 -49.08,-13.2 l -136.36,154.8 -204.83,-24.6 c -23.33,-2.7 -39.74,22.4 -27.78,42.6"
         style="fill:#466eb6;fill-opacity:1;fill-rule:nonzero;stroke:none"
         id="path46" /><path
         d="m 22338.9,10497.3 -252.1,20.4 -34.4,-233.2 -249.3,9.1 -60.4,-218.9 -187.6,-23.7 12,-95 250.9,31.7 57.2,207.4 259.4,-9.4 33.8,229.3 228.5,-18.4 -58,100.7"
         style="fill:#f48c7f;fill-opacity:1;fill-rule:nonzero;stroke:none"
         id="path48" /><path
         d="m 8843.43,16158.3 -15.39,252.5 -235.75,1.2 -26.14,248.1 -225.14,28.9 -49.92,182.4 -92.35,-25.2 66.75,-244 213.37,-27.5 27.2,-258 231.86,-1.2 13.94,-228.8 91.57,71.6"
         style="fill:#f48c7f;fill-opacity:1;fill-rule:nonzero;stroke:none"
         id="path50" /><path
         d="m 3378.67,8706.3 190.56,-72.7 149.29,144.8 207.84,-96.6 111.43,203.3 239.87,-99 125.69,174.6 246.35,-57.5 -21.74,-93.2 -184.21,43 -132.63,-184.2 -230.58,95.1 -113.29,-206.8 -229.35,106.7 -145.79,-141.4 -176.63,67.4 -76.31,-112.9 -79.33,53.6 118.83,175.8"
         style="fill:#f7cc7f;fill-opacity:1;fill-rule:nonzero;stroke:none"
         id="path52" /><path
         d="m 14875,16735.8 -12.3,-153.6 -249.4,-7.4 -45.7,-222.4 -185.7,-36 18.3,-94 248.3,48.2 43.4,210.7 259.3,7.7 18.6,231.2 -94.8,15.6"
         style="fill:#50bfa5;fill-opacity:1;fill-rule:nonzero;stroke:none"
         id="path54" /><path
         d="m 19933.2,16710.6 c 287.7,-275.8 297.2,-732.7 21.3,-1020.3 -275.9,-287.7 -732.7,-297.2 -1020.3,-21.3 -287.7,275.9 -297.2,732.7 -21.3,1020.4 275.9,287.6 732.7,297.1 1020.3,21.2"
         style="fill:#fff3d9;fill-opacity:1;fill-rule:nonzero;stroke:none"
         id="path56" /><path
         d="m 19920.9,16107.3 -307.1,-94.4 -96.3,-306.5 c -7.8,-24.7 -40.6,-29.8 -55.5,-8.6 l -184.7,262.9 -321.2,-3.1 c -26,-0.2 -41,29.4 -25.4,50.1 l 193,256.9 -102.2,304.6 c -8.3,24.6 15.3,48 39.8,39.5 l 303.9,-104.1 258.1,191.3 c 20.8,15.5 50.4,0.3 50,-25.6 l -5.2,-321.2 261.7,-186.4 c 21.2,-15 15.9,-47.8 -8.9,-55.4"
         style="fill:#fed333;fill-opacity:1;fill-rule:nonzero;stroke:none"
         id="path58" /><path
         d="m 21978,12991 169.3,10.2 c 18.3,1.1 27.9,24.8 16.2,40 l -107.8,141.1 46.5,179.6 c 5,19.4 -12.4,36.4 -29.4,28.6 l -157.6,-71.4 -140.5,100.8 c -15.2,11 -35.6,-2.3 -34.4,-22.3 l 10.4,-185.2 -133.3,-117.3 c -14.4,-12.7 -9.6,-37.8 8.2,-42.4 l 164,-43.1 58.1,-173.3 c 6.3,-18.7 29.6,-21 39.5,-3.9 l 90.8,158.6"
         style="fill:#f47458;fill-opacity:1;fill-rule:nonzero;stroke:none"
         id="path60" /><path
         d="m 9089.32,9863.7 c 0,0 303.36,583.7 350.41,798 47.05,214.2 205.2,1292.5 196.28,1362.8 -16.82,132.6 -190.95,218.5 -159.14,277.5 31.79,59.1 196.77,77.4 252.98,72.3 56.21,-5 169.15,-37.8 217.51,-77.6 48.37,-39.9 -54.37,-1333 -85.04,-1611.4 -30.66,-278.4 -407.54,-1135.8 -407.54,-1135.8 l -365.46,314.2"
         style="fill:#f7a491;fill-opacity:1;fill-rule:nonzero;stroke:none"
         id="path62" /><path
         d="m 10001.7,12320.7 c -6.74,-4.3 -32.21,-11.8 -38.2,-17.2 l -46.62,-14.7 c 0,0 119.82,3.1 190.62,-72.9 0,0 -33.6,60.4 -105.8,104.8"
         style="fill:#f47257;fill-opacity:1;fill-rule:nonzero;stroke:none"
         id="path64" /><path
         d="m 15736.2,12086.4 c 47,35.8 70.9,125.7 81,183.8 l 23.8,76.4 c -18.1,8.4 -374.8,76 -482.9,83.8 -12.1,-33.8 -18.7,-62.5 -16.2,-81.1 12,-89.3 98.6,-669.1 98.6,-669.1 l 308.9,-20.4 c 0,0 -51.6,343.9 -13.2,426.6"
         style="fill:#f7a491;fill-opacity:1;fill-rule:nonzero;stroke:none"
         id="path66" /><path
         d="m 15743.6,12329.8 c 0,0 -63.8,-28.9 -134.6,-114.3 0,0 -169.6,120.2 -161.9,155.4 10.3,46.7 185,-48.9 185,-48.9 l 111.5,7.8"
         style="fill:#f47458;fill-opacity:1;fill-rule:nonzero;stroke:none"
         id="path68" /><path
         d="m 17250.3,3850.6 c 0,0 415.7,-299.6 481.1,-389.1 94.3,-128.7 -704.2,-369.6 -617,-218.8 20,34.7 77.5,151.4 80,162.9 13.4,61.3 -156,226.7 -156,226.7 l 211.9,218.3"
         style="fill:#f7a491;fill-opacity:1;fill-rule:nonzero;stroke:none"
         id="path70" /><path
         d="m 16898.4,2990.7 282.3,398.9 c 0,0 176.2,40.9 357.1,244.4 0,0 162.5,-62 262.5,-196.5 0,0 -188.9,-203.7 -480,-432.8 0,0 -172.6,-152.9 -411.1,-233.5 -238.6,-80.6 -10.8,219.5 -10.8,219.5"
         style="fill:#f7cc7f;fill-opacity:1;fill-rule:nonzero;stroke:none"
         id="path72" /><path
         d="m 20644.3,11244.2 c 0,0 -107.4,-177.3 -119.4,-166.5 -9.2,8.3 54.9,101.7 100.6,214.9 11.7,29 23.2,57.8 33.5,84.3 27.1,69.6 -6.4,105.6 -46,37.2 -14,-24.2 -36.3,-64.9 -48.2,-96.1 -12.9,-33.7 -35.3,-60.7 -50.3,-87.4 -29.8,-53.1 -50.9,-92.2 -52.4,-89.8 -1.8,3.1 -14.9,-3.3 -3.4,28 13.9,37.6 60.4,111.1 76.6,167.9 9.2,32.2 32.4,98.4 32.4,98.4 0,0 17,106.3 11.3,109.3 -30.9,16.1 -62.4,-53.6 -69.4,-98.9 -18.8,-26.8 -41.3,-97.1 -41.3,-97.1 0,0 -76.4,-132.4 -94.6,-122 -7.7,4.4 29.7,91.1 53.6,181.8 22.2,84.2 31.2,172.6 15.8,179.3 -26.3,11.3 -60.6,-79.7 -60.6,-79.7 0,0 -20.7,-65 -29.1,-86.1 -10,-24.7 -45.2,-96.5 -45.2,-96.5 0,0 -137.5,-242.8 -153.9,-231.4 -16.4,11.3 -42.9,56.5 -39.7,74.5 3.2,17.9 25.9,48 29.2,66 3.2,18 -7.5,44 -28.7,49.3 -21.1,5.3 -69.1,-76.1 -69.1,-76.1 0,0 -38.5,-66.5 -39.5,-119.6 -3.5,-183.9 26.5,-176.6 25.4,-200.2 -1.2,-27.9 -214.2,-335 -214.2,-335 0,0 -1.4,-1.6 -4,-4.7 l 252.7,-183.9 c 84.3,137.1 149.8,244.5 169,278.1 0,0 126.8,108.5 204.3,179.2 77.5,70.7 121,172.5 140,195.8 2.7,3.5 61.4,84.7 108,203.8 40.2,102.7 -43.4,23.2 -43.4,23.2"
         style="fill:#f8a492;fill-opacity:1;fill-rule:nonzero;stroke:none"
         id="path74" /><path
         d="m 17886.1,6930.6 -65.8,-325.2 -1652.8,-1503.4 1183.1,-1197.3 -319.5,-326.5 c 0,0 -1747.4,1283.1 -1810.3,1451.3 -97,258.9 1252.5,1973.6 1252.5,1973.6 l 1412.8,-72.5"
         style="fill:#b75742;fill-opacity:1;fill-rule:nonzero;stroke:none"
         id="path76" /><path
         d="m 19103.1,2951.5 c 0,0 415.7,-299.7 481.1,-389.1 94.3,-128.7 -704.2,-369.6 -617,-218.8 20,34.7 77.5,151.4 80,162.8 13.4,61.4 -156,226.8 -156,226.8 l 211.9,218.3"
         style="fill:#f7a491;fill-opacity:1;fill-rule:nonzero;stroke:none"
         id="path78" /><path
         d="m 18750.8,2090.1 282.3,398.9 c 0,0 187.5,33.7 368.4,237.2 0,0 151.3,-54.8 251.3,-189.3 0,0 -189,-203.7 -480.1,-432.8 0,0 -172.5,-152.9 -411.1,-233.5 -238.5,-80.6 -10.8,219.5 -10.8,219.5"
         style="fill:#f7cc7f;fill-opacity:1;fill-rule:nonzero;stroke:none"
         id="path80" /><path
         d="m 17829.5,6779.9 25.8,-2136.7 1312.8,-1647 -309,-343.5 c 0,0 -1625.7,1351.8 -1803.8,1739.7 -110.5,240.5 -512.9,2516.1 -512.9,2516.1 l 1287.1,-128.6"
         style="fill:#f47458;fill-opacity:1;fill-rule:nonzero;stroke:none"
         id="path82" /><path
         d="m 16496.3,6948.3 c 134.4,303.4 118.9,2478.4 642,2987.9 184.1,-31.1 315.4,-48.6 346.1,-56.6 27.3,-224.1 57.4,-1046.3 75.8,-1799.8 12.3,-502 -0.4,-1028.5 61.4,-1306 38.4,-172 -1248.1,-102.7 -1125.3,174.5"
         style="fill:#fae0b2;fill-opacity:1;fill-rule:nonzero;stroke:none"
         id="path84" /><path
         d="m 14280.9,8688.5 c -305.8,-17.6 -434.5,-66.1 -528.6,-48.2 -94,17.9 -344.8,107.5 -340.3,201.5 335.9,67.2 922.5,-36.9 922.5,-36.9 -40.3,-196 -53.6,-116.4 -53.6,-116.4"
         style="fill:#f7a491;fill-opacity:1;fill-rule:nonzero;stroke:none"
         id="path86" /><path
         d="m 16915.2,9866.9 c 0,0 -135.7,-666.7 -293.8,-781.3 -158.1,-114.6 -959.6,-517.6 -1008.9,-514.7 -242.5,14 -1401.9,61.3 -1401.9,61.3 l 35.8,371.8 1306.7,106.2 c 0,0 946.1,620.4 1073.6,718.1 89.6,56.3 288.5,38.6 288.5,38.6"
         style="fill:#466eb6;fill-opacity:1;fill-rule:nonzero;stroke:none"
         id="path88" /><path
         d="m 16443.7,6802.9 c -117.5,0 -160.9,16.2 -239.2,39.8 0,0 -51.4,872.9 199,2167.3 94.4,488 97,784.2 289.9,859.3 174,67.7 386.9,76.7 444.9,66.9 -512.5,-1450 -514.2,-2566.1 -586.8,-2889.8 -36.4,-162.3 -68.1,-244.5 -107.8,-243.5"
         style="fill:#466eb6;fill-opacity:1;fill-rule:nonzero;stroke:none"
         id="path90" /><path
         d="m 17192.4,10155.2 -53.7,-219 c 0,0 -12.3,-190.8 76.3,-207.9 106.8,-20.7 265.4,139.1 265.4,139.1 l 91.9,617.8 -379.9,-330"
         style="fill:#f7a491;fill-opacity:1;fill-rule:nonzero;stroke:none"
         id="path92" /><path
         d="m 17192.4,10155.2 -53.7,-219 c 0,0 -12.3,-190.8 76.3,-207.9 106.8,-20.7 265.4,139.1 265.4,139.1 l 91.9,617.8 -379.9,-330"
         style="fill:#f7a491;fill-opacity:1;fill-rule:nonzero;stroke:none"
         id="path94" /><path
         d="m 17571.4,10482.4 -379,-327.2 -40.1,-163.6 c 144.8,34.8 351.4,194.2 419.1,490.8"
         style="fill:#f47458;fill-opacity:1;fill-rule:nonzero;stroke:none"
         id="path96" /><path
         d="m 17191.1,11050.8 c -91.6,0.3 -174.1,-63.3 -206.3,-154.8 -26.8,-75.8 -61,-188.2 -82.7,-317.2 -40.1,-237.5 95.2,-455 212.9,-472.4 117.7,-17.3 398.1,60.7 460.2,397.2 26.5,144.3 61.5,333.5 -57.1,432.9 -92.3,77.3 -221.6,114 -327,114.3"
         style="fill:#f7a491;fill-opacity:1;fill-rule:nonzero;stroke:none"
         id="path98" /><path
         d="m 17536.9,10247.1 c 0,0 415,369.8 433.1,658.8 18.1,288.9 -248.7,443.7 -476.9,451.7 -103,3.7 -172.8,-0.9 -279.2,-14.4 -228.6,-28.8 -376.8,-130.1 -324.6,-317.4 70,-251.5 544.4,-39.3 641.4,-117.4 80.1,-64.4 -49.7,-219.3 28.1,-278.4 73.1,-55.5 35.8,-36.7 11.6,-142.3 -24.2,-105.7 -33.5,-240.6 -33.5,-240.6"
         style="fill:#13375b;fill-opacity:1;fill-rule:nonzero;stroke:none"
         id="path100" /><path
         d="m 17696.9,10582.2 c -10.3,-69.3 -52.6,-120.4 -94.5,-114.2 -41.9,6.2 -67.6,67.3 -57.3,136.6 10.3,69.2 52.6,120.3 94.5,114.1 41.9,-6.2 67.6,-67.3 57.3,-136.5"
         style="fill:#f7a491;fill-opacity:1;fill-rule:nonzero;stroke:none"
         id="path102" /><path
         d="m 15807.2,12446.4 c -37.2,65.1 -92.8,-1.8 -56.8,-86.5 1.8,-4.2 0.1,-10.6 0.2,-10 -9.3,-22.1 -95.6,-91 -95.6,-91 0,0 69.2,-193.5 108,-142.6 38.9,50.9 68.4,215.7 68.4,215.7 l -24.2,114.4"
         style="fill:#f7a491;fill-opacity:1;fill-rule:nonzero;stroke:none"
         id="path104" /><path
         d="m 20181.7,10467.5 -282.6,279.7 c 0,0 -537,-770.6 -809.4,-904.3 -264.7,-129.9 -1146.2,-82.6 -1177.3,-75.6 -105.6,24.1 -430.6,113 -430.6,113 0,0 -272.4,-2338.4 82.5,-3151.4 115.8,-265.2 835.9,-89.4 835.9,-89.4 0,0 -222.2,973.7 -234.1,1101.1 -11.3,121.9 -73.1,1087.6 -63.2,1097.5 26,25.9 1009,240.2 1278.5,444.9 284.5,216.2 800.3,1184.5 800.3,1184.5"
         style="fill:#466eb6;fill-opacity:1;fill-rule:nonzero;stroke:none"
         id="path106" /><path
         d="m 6459.81,8345.5 c 484.7,-505.1 910.37,-57.5 889.3,-65 16.61,7 122.93,6.5 192.23,9.2 288.7,11.3 551.61,218.2 666.37,492.5 432.07,56.5 714.57,455.8 588.08,801.4 190.95,237.7 132.08,617.3 -48.56,860.3 -42.07,398.4 -562.48,465.8 -920.73,326.3 -181.61,-70.8 -336.22,-223.7 -415.82,-409.1 -345.29,8.3 -640.1,-245.7 -717.01,-599.3 C 6156.63,9612 5965.19,8861 6459.81,8345.5"
         style="fill:#ff3b3b;fill-opacity:1;fill-rule:nonzero;stroke:none"
         id="path108" /><path
         d="m 9573.65,3450.9 c -50.49,-272.8 -136.5,-512.8 -148.25,-541.1 -5.65,-13.5 -59.77,-63.1 -65.97,-77 29.04,-332.6 241.02,-530.2 440.01,-671.1 -43.17,167.8 -139.27,360.2 -126.86,397.5 19.75,59.4 96.67,330.4 260.5,671.3 -165.62,18.7 -224.59,119.3 -359.43,220.4"
         style="fill:#f7a491;fill-opacity:1;fill-rule:nonzero;stroke:none"
         id="path110" /><path
         d="M 8967.69,7408.5 7817.71,6623.3 c 0,0 560.05,-363.7 752.1,-546.7 192.04,-183 1219.54,-1013.1 1236.25,-1055 12.41,-31.1 -95.35,-424.7 -342.44,-1685 109.26,-111.7 349.9,-221.2 492.4,-257.3 298.78,672.4 636.28,2071.3 598.38,2225.2 -58.8,238.8 -1586.71,2104 -1586.71,2104"
         style="fill:#355389;fill-opacity:1;fill-rule:nonzero;stroke:none"
         id="path112" /><path
         d="m 6055.86,5828.2 c 33.79,-32.9 258.25,-470.1 343.62,-704.1 125,78.7 200.6,172.5 340.26,225.5 -110.18,159.4 -325.06,543.1 -342.72,634.4 -41.9,216.7 -91.08,248.6 -91.08,248.6 0,0 -726.28,-245.7 -774.66,-314.6 -48.38,-68.8 388.81,42.6 524.58,-89.8"
         style="fill:#f7a491;fill-opacity:1;fill-rule:nonzero;stroke:none"
         id="path114" /><path
         d="m 6405.49,5935.9 c 56.35,-0.1 -4.87,254.5 -17.79,313.2 -14.53,66 -52.76,85.8 -62.27,88.1 -25.76,6.4 -832.92,-266.7 -969.29,-364.8 -9.21,-6.6 -25.78,-27.6 -28.33,-32.3 -74.7,-139.4 590.72,-165.9 686.48,-105 85.17,54.2 137.74,101.5 391.2,100.8"
         style="fill:#3c8f7c;fill-opacity:1;fill-rule:nonzero;stroke:none"
         id="path116" /><path
         d="m 9176.63,7162.9 c 0,0 -974.24,383.6 -986.9,342.8 -100.87,-324.9 -414.75,-220.1 -601.07,-792.3 -78.03,-239.7 -139.46,-872.3 -192.08,-1341.5 -36.16,-322.4 -86.69,-580.8 -86.69,-580.8 0,0 -225.53,333.6 -650.07,811.9 -32.9,37 -375.67,-288.9 -375.67,-288.9 676.13,-1340.7 1169.35,-1530.3 1277.13,-1493.8 488.57,165.1 1136.24,2412.5 1135.17,2412.3 79.41,154.7 480.18,930.3 480.18,930.3"
         style="fill:#466eb6;fill-opacity:1;fill-rule:nonzero;stroke:none"
         id="path118" /><path
         d="m 7673.05,9434.5 c 0,0 -1163.02,1.5 -1412.02,15.8 -225.37,13 -1119.23,-9.7 -1154.17,-5.7 -34.95,4.1 -265.99,395.4 -304.4,353.3 -38.39,-42 128.58,-194 76.93,-233.4 -51.64,-39.5 -606.38,48.9 -599.02,7.9 13.78,-76.8 337.42,-67 337.09,-104.1 -0.33,-37 -338.73,20.8 -361.67,-40.7 -22.95,-61.5 325.52,-25.1 339.42,-52.5 13.91,-27.4 -323.19,-77.7 -288.7,-134.9 18.72,-31.1 298.68,51.9 297.32,9.5 -1.36,-42.3 -205.61,-138.6 -180.56,-172.4 25.05,-33.7 160.29,103.5 278.81,105.2 118.51,1.7 203.37,63.6 392.56,11.7 93.41,-25.6 806.52,-112.8 1409.1,-164.3 617.73,-52.8 1124.1,-69.5 1124.1,-69.5 l 45.21,474.1"
         style="fill:#f7a491;fill-opacity:1;fill-rule:nonzero;stroke:none"
         id="path120" /><path
         d="m 9397.59,8400.6 c 15.42,186.7 -21.32,542.2 -29.73,604.2 56.49,193.9 176.66,607.8 219.86,689.1 0,0 -202.49,389.1 -409.78,386.4 0,0 -211.69,-477.1 -375.36,-562.5 -2.4,0.6 -57.9,-24.8 -82.32,-24.6 -158.04,1.1 -710.25,17.9 -813.32,19.7 l 57.99,-783.4 c 217.64,-577.1 177.93,-1087.8 139.55,-1265.7 -21.35,-98.9 937.65,-396 1084.97,-301.2 5.85,3.8 176.96,860.5 208.14,1238"
         style="fill:#50bfa5;fill-opacity:1;fill-rule:nonzero;stroke:none"
         id="path122" /><path
         d="m 8187.54,9483.3 c -101.87,48.7 -838.97,24.3 -838.97,24.3 0,0 -103.01,-513.3 -19.81,-636.7 0,0 659.09,-98 640.35,-152.1 l 218.43,764.5"
         style="fill:#50bfa5;fill-opacity:1;fill-rule:nonzero;stroke:none"
         id="path124" /><path
         d="m 8316,9842.4 c 0,0 76.6,-269.6 90.51,-386.1 13.89,-116.5 191.43,-479.5 433.09,-427.6 241.66,51.9 -10.47,390.8 -57.79,497.6 -47.33,106.7 -175.28,538.1 -175.28,538.1 L 8316,9842.4"
         style="fill:#f7a491;fill-opacity:1;fill-rule:nonzero;stroke:none"
         id="path126" /><path
         d="m 8660.22,9887.5 c -30.39,98.3 -53.69,176.9 -53.69,176.9 L 8316,9842.4 c 0,0 14.08,-49.6 31.27,-115.4 153.59,-20.8 258.61,52.6 312.95,160.5"
         style="fill:#f47257;fill-opacity:1;fill-rule:nonzero;stroke:none"
         id="path128" /><path
         d="m 8105.36,10649.8 c 0,0 -126.67,-72.7 -171.12,-227 -44.44,-154.2 14.48,-549.7 345.76,-640.4 331.28,-90.8 469.6,225 398.08,469.3 -71.52,244.3 -223.85,552.8 -572.72,398.1"
         style="fill:#f7a491;fill-opacity:1;fill-rule:nonzero;stroke:none"
         id="path130" /><path
         d="m 8717.94,10347.4 c -5.49,-66 -41.11,-116.9 -79.54,-113.7 -38.44,3.2 -65.13,59.3 -59.63,125.3 5.5,65.9 41.11,116.8 79.54,113.6 38.44,-3.2 65.14,-59.2 59.63,-125.2"
         style="fill:#f7a491;fill-opacity:1;fill-rule:nonzero;stroke:none"
         id="path132" /><path
         d="m 9422.86,2901.7 c -20.83,52.4 -231.23,-114.5 -280.87,-148.3 -55.84,-38.1 -59.96,-80.9 -58.6,-90.6 3.59,-25.6 538.98,-685 695.54,-776.1 14.79,-8.6 45.89,-8.9 55.06,-5.3 86.97,33.5 -54.59,573 -168.76,679.5 -73.79,68.9 -148.64,105.3 -242.37,340.8"
         style="fill:#3c8f7c;fill-opacity:1;fill-rule:nonzero;stroke:none"
         id="path134" /><path
         d="m 8143.75,10670.4 c 0,0 -53.37,-442.9 -195.11,-524.8 -141.74,-81.8 -79.05,-277 -79.05,-277 0,0 -136.27,453.4 -25.4,601.3 110.85,147.8 299.56,200.5 299.56,200.5"
         style="fill:#ff3b3b;fill-opacity:1;fill-rule:nonzero;stroke:none"
         id="path136" /><path
         d="m 8034.21,10083.4 c 39.59,-57 40.44,-124.9 1.89,-151.7 -38.54,-26.8 -101.88,-2.2 -141.47,54.8 -39.6,57 -40.44,124.9 -1.9,151.7 38.54,26.8 101.88,2.2 141.48,-54.8"
         style="fill:#f7a491;fill-opacity:1;fill-rule:nonzero;stroke:none"
         id="path138" /><path
         d="m 13143.4,13239.7 c 238.4,304.8 781.7,749.8 899.1,844.3 104.8,-106.9 262.8,-422.6 283.6,-565.2 -150.1,-30.9 -801.5,-233 -1182.7,-279.1 z m 893.8,1024 c -180.7,-35.6 -903,-1003.3 -903,-1003.3 l -25.4,-67 c 0,0 1306.7,145.3 1354,201.1 127.8,150.8 -277,898.4 -425.6,869.2"
         style="fill:#82c7e6;fill-opacity:1;fill-rule:nonzero;stroke:none"
         id="path140" /><path
         d="m 11650.6,13552.5 c -79,78.8 117.6,406.9 207.2,476.7 22.9,12.9 933.9,-566.8 1061,-764.8 -508.5,55 -1194.7,222.8 -1268.2,288.1 z m 636.2,546 c -355.5,231.9 -453.1,230.2 -556.7,171.4 -103.6,-58.8 -485.5,-606.7 -314.8,-777.7 170.7,-170.9 1524.8,-292.8 1524.8,-292.8 l 30.6,82.9 c 0,0 -328.5,584.4 -683.9,816.2"
         style="fill:#82c7e6;fill-opacity:1;fill-rule:nonzero;stroke:none"
         id="path142" /><path
         d="m 12951,12942.6 h 76.2 c 75.5,0 136.7,61.2 136.7,136.7 v 224.2 c 0,75.5 -61.2,136.7 -136.7,136.7 h -76.2 c -75.5,0 -136.8,-61.2 -136.8,-136.7 v -224.2 c 0,-75.5 61.3,-136.7 136.8,-136.7"
         style="fill:#82c7e6;fill-opacity:1;fill-rule:nonzero;stroke:none"
         id="path144" /><path
         d="m 15839.6,13189.2 -6194.73,18.6 c -164.84,0.5 -291.29,-146.2 -266.56,-309.3 l 95.86,-632.1 310.49,0.6 187.13,-3181.1 c 10.01,-170.2 150.91,-303.2 321.31,-303.2 h 4944.4 l 205.7,3496.1 292.5,0.5 103.9,909.9"
         style="fill:#b32323;fill-opacity:1;fill-rule:nonzero;stroke:none"
         id="path146" /><path
         d="m 9682.42,12191.9 1.35,76.4 c -59.3,23.2 -129.23,15.7 -163.86,25.1 l -83.06,61.2 c -17.46,7.6 -42.02,-11.5 -41.85,-30.5 0.16,-18.4 23.54,-55 35.32,-64.4 0,0 148.54,-122.3 200.77,-159.5 25.87,-18.4 107.23,-68.1 107.23,-68.1 l 47.43,88.7 -103.33,71.1"
         style="fill:#f7a491;fill-opacity:1;fill-rule:nonzero;stroke:none"
         id="path148" /><path
         d="m 15343.3,8782.7 h -3795.2 l -203.2,4340.7 H 15854 l -189.1,-4038.9 c -7.9,-168.8 -149.5,-301.8 -321.6,-301.8"
         style="fill:#ff3b3b;fill-opacity:1;fill-rule:nonzero;stroke:none"
         id="path150" /><path
         d="m 16040.2,12277.2 -4895,-13 -111.8,941.9 4795.3,-18.4 c 157.5,-0.6 280.7,-135.9 266.7,-292.7 l -55.2,-617.8"
         style="fill:#ff3b3b;fill-opacity:1;fill-rule:nonzero;stroke:none"
         id="path152" /><path
         d="m 11145.2,12264.2 4668.8,13 -4520.8,-246.8 z"
         style="fill:#b32323;fill-opacity:1;fill-rule:nonzero;stroke:none"
         id="path154" /><path
         d="M 13111.9,12268.5 H 12982 v 930.2 h 129.9 v -930.2"
         style="fill:#82c7e6;fill-opacity:1;fill-rule:nonzero;stroke:none"
         id="path156" /><path
         d="m 13521.1,8776.2 h -162.3 v 3496.7 h 162.3 V 8776.2"
         style="fill:#82c7e6;fill-opacity:1;fill-rule:nonzero;stroke:none"
         id="path158" /><path
         d="m 9601.57,15023 c 432.33,-167.8 788.43,-280.7 1143.53,-375.1 117.1,-31.1 311.1,-119.7 418.9,-40.8 56,41 79.5,102.7 46.6,168.4 -60.4,120.3 -247,128.9 -365,160.3 -359.7,95.8 -762.1,221.3 -1161.49,371.7 -74.89,28.2 -162.47,-28.4 -183.54,-100.9 -23.98,-82.6 26.22,-154.6 101,-183.6 v 0"
         style="fill:#def0f8;fill-opacity:1;fill-rule:nonzero;stroke:none"
         id="path160" /><path
         d="m 12369.2,15687.4 c -127.5,976.9 -119.2,979.4 -173.3,1071.6 -55.5,94.5 -207.5,81.5 -237.5,-27.8 -29.6,-108.1 -22.8,-90.9 115.3,-1118.3 11,-81.7 111.5,-129 185,-110.5 87.6,22 121.3,103 110.5,185 v 0"
         style="fill:#def0f8;fill-opacity:1;fill-rule:nonzero;stroke:none"
         id="path162" /><path
         d="m 13940,15561.9 c 96.7,130.5 178.3,269.7 245,417.8 62.1,137.5 175.7,340 69.2,476.2 -22.9,29.3 -76.8,43.2 -111.3,31.3 -144.5,-49.8 -172.1,-252.4 -229.8,-379 -63,-138.2 -140.8,-269.6 -226.3,-394.9 -44.9,-65.9 -14.6,-163.1 51,-202.3 73.9,-44.2 154.6,-13.3 202.2,50.9 v 0"
         style="fill:#def0f8;fill-opacity:1;fill-rule:nonzero;stroke:none"
         id="path164" /><path
         d="m 16114.5,14819.4 c 43.7,60 7,137.8 -44.3,176.2 -105.8,78.9 -292.4,6.1 -407.7,-25.7 -134.4,-37.1 -264.1,-87.2 -390.7,-145.3 -73,-33.5 -93.2,-137.1 -56,-202.7 43.4,-76.9 128.3,-87.1 202.7,-56.1 486.1,202.4 588.1,105.6 696,253.6"
         style="fill:#def0f8;fill-opacity:1;fill-rule:nonzero;stroke:none"
         id="path166" /></g></g></svg>
