<svg xmlns="http://www.w3.org/2000/svg" xmlns:svg="http://www.w3.org/2000/svg" id="svg2" width="666.667" height="496.813" version="1.1" viewBox="0 0 666.667 496.813" xml:space="preserve"><metadata id="metadata8"/><g id="g10" transform="matrix(1.3333333,0,0,-1.3333333,0,496.81333)"><g id="g12" transform="scale(0.1)"><path style="fill:#e7e8e5;fill-opacity:1;fill-rule:nonzero;stroke:none" id="path14" d="m 0,449.129 h 5000 v 2.5 H 0 Z"/><path style="fill:#e7e8e5;fill-opacity:1;fill-rule:nonzero;stroke:none" id="path16" d="M 895,381.031 H 524.59 v 2.5 H 895 v -2.5"/><path style="fill:#e7e8e5;fill-opacity:1;fill-rule:nonzero;stroke:none" id="path18" d="m 2400,326.922 h -710 v 2.5 h 710 v -2.5"/><path style="fill:#e7e8e5;fill-opacity:1;fill-rule:nonzero;stroke:none" id="path20" d="m 949.156,379.781 h 507.504 v 2.5 H 949.156 Z"/><path style="fill:#e7e8e5;fill-opacity:1;fill-rule:nonzero;stroke:none" id="path22" d="m 4554.44,304.969 h -486.66 v 2.5 h 486.66 v -2.5"/><path style="fill:#e7e8e5;fill-opacity:1;fill-rule:nonzero;stroke:none" id="path24" d="M 4023.31,304.969 H 3703.6 v 2.5 h 319.71 v -2.5"/><path style="fill:#e7e8e5;fill-opacity:1;fill-rule:nonzero;stroke:none" id="path26" d="m 2772.13,347.199 h 620.09 v 2.5 h -620.09 z"/><path style="fill:#e7e8e5;fill-opacity:1;fill-rule:nonzero;stroke:none" id="path28" d="m 439.152,3723.59 c -30.101,0 -54.582,-24.48 -54.582,-54.57 V 954.699 c 0,-30.097 24.481,-54.578 54.582,-54.578 H 2370.14 c 30.08,0 54.57,24.481 54.57,54.578 V 3669.02 c 0,30.09 -24.49,54.57 -54.57,54.57 H 439.152 M 2370.14,897.621 H 439.152 c -31.476,0 -57.082,25.598 -57.082,57.078 V 3669.02 c 0,31.46 25.606,57.07 57.082,57.07 H 2370.14 c 31.46,0 57.07,-25.61 57.07,-57.07 V 954.699 c 0,-31.48 -25.61,-57.078 -57.07,-57.078"/><path style="fill:#e7e8e5;fill-opacity:1;fill-rule:nonzero;stroke:none" id="path30" d="m 2602.12,3723.59 c -30.09,0 -54.57,-24.48 -54.57,-54.57 V 954.699 c 0,-30.097 24.48,-54.578 54.57,-54.578 h 1930.99 c 30.09,0 54.58,24.481 54.58,54.578 V 3669.02 c 0,30.09 -24.49,54.57 -54.58,54.57 H 2602.12 M 4533.11,897.621 H 2602.12 c -31.47,0 -57.07,25.598 -57.07,57.078 V 3669.02 c 0,31.46 25.6,57.07 57.07,57.07 h 1930.99 c 31.47,0 57.08,-25.61 57.08,-57.07 V 954.699 c 0,-31.48 -25.61,-57.078 -57.08,-57.078"/><path style="fill:#ededeb;fill-opacity:1;fill-rule:nonzero;stroke:none" id="path32" d="m 3575.98,1457.61 h 780.22 v -975.2 h -780.22 c -75.46,0 -137.2,61.738 -137.2,137.199 v 700.801 c 0,75.46 61.74,137.2 137.2,137.2"/><path style="fill:#f3f2f1;fill-opacity:1;fill-rule:nonzero;stroke:none" id="path34" d="m 4349.74,1457.61 h 12.92 c 75.46,0 137.2,-61.74 137.2,-137.2 V 619.609 c 0,-75.461 -61.74,-137.199 -137.2,-137.199 h -12.92 c -75.46,0 -137.21,61.738 -137.21,137.199 v 700.801 c 0,75.46 61.75,137.2 137.21,137.2"/><path style="fill:#ededeb;fill-opacity:1;fill-rule:nonzero;stroke:none" id="path36" d="m 2542.5,482.41 h 1709.23 v 615.5 H 2542.5 Z"/><path style="fill:#dadbd8;fill-opacity:1;fill-rule:nonzero;stroke:none" id="path38" d="m 4335.37,451.629 h -2526.2 c -15.54,0 -28.14,12.601 -28.14,28.141 v 2.64 h 1794.55 l 787.92,-2.64 c 0,-15.54 -12.59,-28.141 -28.13,-28.141"/><path style="fill:#dadbd8;fill-opacity:1;fill-rule:nonzero;stroke:none" id="path40" d="M 3610.76,1862.22 H 1972.37 c -105.67,0 -191.34,-85.66 -191.34,-191.33 V 958.75 h 2021.06 v 712.14 c 0,105.67 -85.66,191.33 -191.33,191.33"/><path style="fill:#f3f2f1;fill-opacity:1;fill-rule:nonzero;stroke:none" id="path42" d="M 3760.43,1862.22 H 2103.61 c -100.58,0 -182.12,-81.53 -182.12,-182.11 V 958.75 h 2021.06 v 721.36 c 0,100.58 -81.53,182.11 -182.12,182.11"/><path style="fill:#dadbd8;fill-opacity:1;fill-rule:nonzero;stroke:none" id="path44" d="M 4170.11,1154.1 H 2672.6 c -47.71,0 -86.39,-38.67 -86.39,-86.38 v -77.888 c 0,-47.711 38.68,-86.391 86.39,-86.391 h 1497.51 c 69.22,0 125.33,56.118 125.33,125.329 0,69.22 -56.11,125.33 -125.33,125.33"/><path style="fill:#ededeb;fill-opacity:1;fill-rule:nonzero;stroke:none" id="path46" d="m 1757.85,1457.61 h 780.21 v -975.2 h -780.21 c -75.47,0 -137.21,61.738 -137.21,137.199 v 700.801 c 0,75.46 61.74,137.2 137.21,137.2"/><path style="fill:#f3f2f1;fill-opacity:1;fill-rule:nonzero;stroke:none" id="path48" d="m 2531.6,1457.61 h 12.92 c 75.46,0 137.2,-61.74 137.2,-137.2 V 619.609 c 0,-75.461 -61.74,-137.199 -137.2,-137.199 h -12.92 c -75.46,0 -137.2,61.738 -137.2,137.199 v 700.801 c 0,75.46 61.74,137.2 137.2,137.2"/><path style="fill:#dadbd8;fill-opacity:1;fill-rule:nonzero;stroke:none" id="path50" d="m 3304.29,2311.85 h 706.262 V 3350.46 H 3304.29 Z"/><path style="fill:#f3f2f1;fill-opacity:1;fill-rule:nonzero;stroke:none" id="path52" d="m 3323.57,2311.85 h 729.52 v 1038.61 h -729.52 z"/><path style="fill:#fff;fill-opacity:1;fill-rule:nonzero;stroke:none" id="path54" d="m 3384.69,2393.7 h 607.277 v 874.918 H 3384.69 Z"/><path style="fill:#f3f2f1;fill-opacity:1;fill-rule:nonzero;stroke:none" id="path56" d="m 3612.75,2788.89 v -66.62 c 83.49,0 151.16,67.68 151.16,151.16 v 66.62 c -83.49,0 -151.16,-67.68 -151.16,-151.16"/><path style="fill:#f3f2f1;fill-opacity:1;fill-rule:nonzero;stroke:none" id="path58" d="m 3612.75,3013.52 v -66.62 c 83.49,0 151.16,67.68 151.16,151.16 v 66.61 c -83.49,0 -151.16,-67.67 -151.16,-151.15"/><path style="fill:#f3f2f1;fill-opacity:1;fill-rule:nonzero;stroke:none" id="path60" d="m 3612.75,2564.26 v -66.62 c 83.49,0 151.16,67.68 151.16,151.16 v 66.62 c -83.49,0 -151.16,-67.68 -151.16,-151.16"/><path style="fill:#e7e8e5;fill-opacity:1;fill-rule:nonzero;stroke:none" id="path62" d="m 655.012,2535.77 h 2306.61 v 732.848 H 655.012 Z"/><path style="fill:#dadbd8;fill-opacity:1;fill-rule:nonzero;stroke:none" id="path64" d="m 655.012,2535.77 v 732.85 h -13.899 v -732.85 h 13.899"/><path style="fill:#f3f2f1;fill-opacity:1;fill-rule:nonzero;stroke:none" id="path66" d="m 768.727,2649.49 h 2079.17 V 3154.9 H 768.727 Z"/><path style="fill:#fff;fill-opacity:1;fill-rule:nonzero;stroke:none" id="path68" d="M 1266.97,2649.49 H 1094.3 l 135.2,505.41 h 172.67 l -135.2,-505.41"/><path style="fill:#fff;fill-opacity:1;fill-rule:nonzero;stroke:none" id="path70" d="m 1427.58,2649.49 h -99.85 l 135.2,505.41 h 99.85 l -135.2,-505.41"/><path style="fill:#fff;fill-opacity:1;fill-rule:nonzero;stroke:none" id="path72" d="m 2296.88,2649.49 h -99.85 l 135.2,505.41 h 99.85 l -135.2,-505.41"/><path style="fill:#e2e2e0;fill-opacity:1;fill-rule:nonzero;stroke:none" id="path74" d="M 1553.23,1289.7 H 994.059 l -69.141,759.62 h 559.172 l 69.14,-759.62"/><path style="fill:#ededeb;fill-opacity:1;fill-rule:nonzero;stroke:none" id="path76" d="m 1582.2,1289.7 h -559.18 l -69.137,759.62 h 559.177 l 69.14,-759.62"/><path style="fill:#fff;fill-opacity:1;fill-rule:nonzero;stroke:none" id="path78" d="m 1099.45,1373.79 -53.83,591.45 h 390.99 l 53.83,-591.45 h -390.99"/><path style="fill:#e2e2e0;fill-opacity:1;fill-rule:nonzero;stroke:none" id="path80" d="m 1896.99,451.648 h 75.2813 v 838.051 H 1896.99 Z"/><path style="fill:#f3f2f1;fill-opacity:1;fill-rule:nonzero;stroke:none" id="path82" d="m 1943.74,451.648 h 52.293 v 838.051 h -52.293 z"/><path style="fill:#f3f2f1;fill-opacity:1;fill-rule:nonzero;stroke:none" id="path84" d="m 1217.61,1197.2 h 794.609 v 92.5 H 1217.61 Z"/><path style="fill:#e2e2e0;fill-opacity:1;fill-rule:nonzero;stroke:none" id="path86" d="m 1183.91,451.648 h -75.28 V 1197.2 h 75.28 V 451.648"/><path style="fill:#f3f2f1;fill-opacity:1;fill-rule:nonzero;stroke:none" id="path88" d="m 1207.67,451.648 h -52.28 V 1197.2 h 52.28 V 451.648"/><path style="fill:#e2e2e0;fill-opacity:1;fill-rule:nonzero;stroke:none" id="path90" d="M 707.504,451.648 H 632.223 V 1197.2 h 75.281 V 451.648"/><path style="fill:#f3f2f1;fill-opacity:1;fill-rule:nonzero;stroke:none" id="path92" d="M 731.262,451.648 H 678.98 V 1197.2 h 52.282 V 451.648"/><path style="fill:#e2e2e0;fill-opacity:1;fill-rule:nonzero;stroke:none" id="path94" d="m 1420.59,451.648 h 75.2813 v 745.551 H 1420.59 Z"/><path style="fill:#f3f2f1;fill-opacity:1;fill-rule:nonzero;stroke:none" id="path96" d="m 1467.34,451.648 h 52.2813 v 745.551 H 1467.34 Z"/><path style="fill:#e2e2e0;fill-opacity:1;fill-rule:nonzero;stroke:none" id="path98" d="M 1217.61,1197.2 H 632.223 v 92.5 h 585.387 v -92.5"/><path style="fill:#f3f2f1;fill-opacity:1;fill-rule:nonzero;stroke:none" id="path100" d="M 4438.89,113.238 C 4438.89,50.6992 3570.83,0 2500,0 1429.18,0 561.113,50.6992 561.113,113.238 c 0,62.532 868.067,113.231 1938.887,113.231 1070.83,0 1938.89,-50.699 1938.89,-113.231"/><path style="fill:#17282f;fill-opacity:1;fill-rule:nonzero;stroke:none" id="path102" d="m 3283.58,2915.82 c -38.19,23.94 -147.89,0.21 -129.65,-120.35 18.24,-120.56 -123.12,-89.2 -92.34,-228.86 30.78,-139.65 280.72,-346.98 434.63,-206.19 153.9,140.79 24.23,202.93 27.09,370.02 1.69,99.35 -43.36,277.15 -239.73,185.38"/><path style="fill:#17282f;fill-opacity:1;fill-rule:nonzero;stroke:none" id="path104" d="m 3510.37,2366.53 -1.82,0.76 c -1.01,1.01 -1,2.63 0.01,3.63 94.83,94.21 72.93,151.59 45.2,224.22 -15.32,40.13 -32.69,85.62 -34.11,144.72 -1.53,63.72 -24.85,150.86 -85.51,186.75 -43.03,25.44 -98.19,21.05 -163.99,-13.07 -1.27,-0.64 -2.81,-0.16 -3.46,1.1 -0.66,1.26 -0.16,2.81 1.09,3.46 67.47,34.98 124.33,39.33 168.97,12.92 62.47,-36.96 86.47,-126 88.03,-191.04 1.4,-58.22 18.6,-103.26 33.77,-143.01 28.4,-74.38 50.83,-133.13 -46.38,-229.69 l -1.8,-0.75"/><path style="fill:#f9a8b3;fill-opacity:1;fill-rule:nonzero;stroke:none" id="path106" d="m 3532.19,2380.17 c -0.12,0.33 1.57,-2.3 2.67,-3.77 l 4.07,-5.38 c 2.92,-3.73 5.96,-7.45 9.27,-11.14 6.58,-7.37 13.75,-14.53 21.39,-21.36 15.04,-13.92 31.74,-26.68 49.57,-38.09 18.04,-11.12 36.54,-21.98 56.28,-30.94 9.65,-4.89 19.89,-8.74 29.83,-13.21 1.9,-0.84 0.21,-0.32 -1.23,-0.8 -1.59,-0.39 -2.41,-1.47 -1.33,-0.85 2.14,0.98 7.44,7.39 11.42,15.28 4.21,7.96 7.84,17.47 11.27,27.34 6.77,19.92 11.68,41.66 16.29,63.63 4.52,22.04 8.02,44.58 11.1,67.25 3.43,22.59 5.9,45.72 8.4,68.2 l 40.66,-0.22 c 3.37,-47.99 3.09,-95.22 -1.01,-143.61 -1.96,-24.2 -5.44,-48.47 -11.31,-73.49 -3,-12.55 -6.87,-25.2 -12.47,-38.42 -5.92,-13.1 -12.74,-27.36 -28.51,-41.53 -7.8,-6.93 -19.42,-13.41 -32.53,-15.72 -12.98,-2.55 -26.6,-0.15 -35.6,3.07 -11.72,4.17 -23.66,7.74 -35.25,12.5 -23.32,9.1 -46.14,20.13 -68.15,32.91 -21.91,13.06 -42.96,28.01 -62.72,45.17 -9.78,8.69 -19.1,18.08 -28.05,28.13 -4.46,5.02 -8.8,10.32 -13.05,15.81 l -6.19,8.78 c -2.2,3.35 -3.74,5.57 -6.78,10.96 l 71.96,39.5"/><path style="fill:#17282f;fill-opacity:1;fill-rule:nonzero;stroke:none" id="path108" d="m 3518.5,2417.26 c 93.52,-59.69 85.89,-96.48 85.89,-96.48 l -58.75,-85.08 c 0,0 -149.84,60.13 -159.31,107.13 -9.86,48.95 86.81,103.38 132.17,74.43"/><path style="fill:#2b3c43;fill-opacity:1;fill-rule:nonzero;stroke:none" id="path110" d="m 3545.64,2235.7 c 0,0 -30.19,12.12 -64.33,29.72 33.13,90.29 39.14,127.16 39.14,142.03 0,8.48 -1.95,9.81 -1.95,9.81 0,0 -2.74,1.43 -7.61,3.91 2.66,-1.08 5.21,-2.38 7.61,-3.91 80.37,-51.3 86.04,-85.68 86.04,-94.34 0,-1.42 -0.15,-2.14 -0.15,-2.14 l -4.79,-6.95 -46.22,-66.93 -7.74,-11.2"/><path style="fill:#406fbf;fill-opacity:1;fill-rule:nonzero;stroke:none" id="path112" d="m 3609.51,2329.19 v 0 c 3.63,-2.54 4.52,-7.54 1.98,-11.17 l -60.18,-86.14 c -2.53,-3.63 -7.53,-4.52 -11.16,-1.98 -3.64,2.54 -4.52,7.54 -1.99,11.17 l 60.18,86.14 c 2.54,3.63 7.54,4.52 11.17,1.98"/><path style="fill:#f9a8b3;fill-opacity:1;fill-rule:nonzero;stroke:none" id="path114" d="m 3768.31,2476.69 -46.38,61.99 88.98,22.96 c 0,0 18.11,-55.25 -11.48,-95.68 l -31.12,10.73"/><path style="fill:#f9a8b3;fill-opacity:1;fill-rule:nonzero;stroke:none" id="path116" d="m 3724.37,2614.87 74.11,12.52 12.43,-65.75 -88.98,-22.96 2.44,76.19"/><path style="fill:#f9a8b3;fill-opacity:1;fill-rule:nonzero;stroke:none" id="path118" d="m 2970.42,199.648 84.82,-8.179 60.61,199.32 -84.83,8.18 -60.6,-199.321"/><path style="fill:#f9a8b3;fill-opacity:1;fill-rule:nonzero;stroke:none" id="path120" d="m 2430.95,494.332 62.89,-59.062 135.79,149.23 -62.9,59.059 -135.78,-149.227"/><path style="fill:#17282f;fill-opacity:1;fill-rule:nonzero;stroke:none" id="path122" d="m 2522.89,463.602 -47.27,85.16 c -1.72,3.097 -5.27,4.418 -8.54,3.168 l -72.76,-27.692 c -7.54,-2.867 -10.82,-12.558 -6.73,-19.636 16.99,-29.403 26.67,-42.743 47.46,-80.192 12.79,-23.039 37.68,-75.879 55.35,-107.699 17.27,-31.121 50.06,-16.051 45.55,-1.223 -20.19,66.5 -16.39,103.512 -10.69,132.852 1.02,5.289 0.14,10.73 -2.37,15.262"/><path style="fill:#17282f;fill-opacity:1;fill-rule:nonzero;stroke:none" id="path124" d="m 3065.27,217.34 h -102.84 c -3.74,0 -7.12,-2.59 -8.12,-6.25 l -22.37,-81.371 c -2.32,-8.438 3.89,-16.199 12.55,-16.278 36.24,-0.32 53.43,-0.171 98.65,-0.171 27.83,0 99.81,0 138.23,0 37.59,0 45.45,38 29.89,41.441 -69.72,15.43 -109.91,36.711 -131.42,57.008 -3.88,3.66 -9.09,5.621 -14.57,5.621"/><path style="fill:#c3c5c2;fill-opacity:1;fill-rule:nonzero;stroke:none" id="path126" d="m 3084.59,287.988 v 0 l 2.54,8.364 -2.54,-8.364 m -87.31,0 h -0.04 l 10.04,33.051 h 0.04 l -10.04,-33.051"/><path style="fill:#d8898c;fill-opacity:1;fill-rule:nonzero;stroke:none" id="path128" d="m 3084.59,287.988 h -87.31 l 10.04,33.051 86.64,-2.23 -6.83,-22.457 -2.54,-8.364"/><path style="fill:#17282f;fill-opacity:1;fill-rule:nonzero;stroke:none" id="path130" d="m 3518.5,2417.26 c 0,0 33.97,-23.16 -181.48,-491.34 -134.65,37.28 -273.81,75.81 -339.33,93.94 43.93,136.53 67.66,221.65 80.12,523.35 0,0 75.38,-4.22 149.35,-20.91 57.86,-13.05 105.15,-24.18 154.08,-42.66 64.51,-24.36 137.26,-62.38 137.26,-62.38"/><path style="fill:#2b3c43;fill-opacity:1;fill-rule:nonzero;stroke:none" id="path132" d="m 3346.86,1947.38 -97.91,27.11 c -2.67,71.94 -62.34,129.96 -134.89,129.96 h -90.47 c 18.55,66.18 32.14,134.24 42.02,242.23 38.05,31.69 80,72.97 83.08,103.09 0.46,4.54 0.7,9.07 0.69,13.53 -0.01,38.8 -17.95,73.37 -59.85,79.08 23.99,-1.88 81.22,-7.35 137.63,-20.08 v 0 0 c 0,0 -25.5,-86.72 85.18,-118.56 10.84,-3.12 20.1,-4.49 27.99,-4.5 60.25,0 40.91,80.4 40.91,80.4 v 0 0 c 64.51,-24.36 137.26,-62.38 137.26,-62.38 0,0 1.95,-1.33 1.95,-9.81 0,-14.87 -6.01,-51.74 -39.14,-142.03 -25.51,-69.54 -67.12,-170.77 -134.45,-318.04"/><path style="fill:#f9a8b3;fill-opacity:1;fill-rule:nonzero;stroke:none" id="path134" d="m 3290.46,2691.57 c -4.01,-52.27 -19.45,-145.79 -63.3,-169.27 0,0 -25.5,-86.72 85.18,-118.56 93.63,-26.93 68.9,75.9 68.9,75.9 -51.63,28.51 -19.72,79 -10.27,135.54 l -80.51,76.39"/><path style="fill:#111d23;fill-opacity:1;fill-rule:nonzero;stroke:none" id="path136" d="m 3249.82,2543.38 c -0.01,0 -0.02,0 -0.03,0 3.58,4.99 6.86,10.52 9.88,16.48 -3.01,-5.96 -6.28,-11.49 -9.85,-16.48 m 34.43,98.28 c 3.15,18.2 5.09,35.6 6.17,49.88 l 0.03,-0.03 c -1.09,-14.3 -3.05,-31.67 -6.2,-49.85"/><path style="fill:#d8898c;fill-opacity:1;fill-rule:nonzero;stroke:none" id="path138" d="m 3261.84,2542.82 c -4.2,0 -8.24,0.19 -12.02,0.56 3.57,4.99 6.84,10.52 9.85,16.48 11.95,23.55 19.71,53.65 24.58,81.8 3.15,18.18 5.11,35.55 6.2,49.85 l 71.07,-67.38 c -6.35,-22.26 -13.64,-45.14 -17.34,-51.09 -12.26,-20.38 -51.77,-30.22 -82.34,-30.22"/><path style="fill:#f9a8b3;fill-opacity:1;fill-rule:nonzero;stroke:none" id="path140" d="m 3427.7,2767.31 c -0.23,-86.04 1.5,-122.46 -39.21,-169.01 -61.25,-70.01 -166.88,-50.9 -192.36,33.47 -22.93,75.95 -18.69,203.89 63.23,242.93 80.7,38.47 168.57,-21.35 168.34,-107.39"/><path style="fill:#17282f;fill-opacity:1;fill-rule:nonzero;stroke:none" id="path142" d="m 3249.79,2815.01 c 48.31,-67.47 210.77,-161.29 221.67,-70.88 10.89,90.41 -72.1,179.73 -154.25,171.12 -82.15,-8.62 -108.52,-42.82 -67.42,-100.24"/><path style="fill:#f9a8b3;fill-opacity:1;fill-rule:nonzero;stroke:none" id="path144" d="m 3463.33,2686.98 c -7.75,-16.07 -22.19,-27.06 -36.1,-31.67 -20.94,-6.93 -32.44,11.53 -27.5,31.83 4.45,18.27 20.7,43.9 42.13,42.02 21.11,-1.84 30.33,-23.81 21.47,-42.18"/><path style="fill:#406fbf;fill-opacity:1;fill-rule:nonzero;stroke:none" id="path146" d="m 3337.02,1925.92 c 0,0 120.79,-489.31 41.56,-859.45 -53.06,-247.9 -244.43,-748.689 -244.43,-748.689 l -149.62,3.84 c 0,0 144.86,525.539 174.81,732.219 51.23,353.54 -70.8,940.87 -70.8,940.87 l 248.48,-68.79"/><path style="fill:#17282f;fill-opacity:1;fill-rule:nonzero;stroke:none" id="path148" d="m 3160.89,310.031 -190.47,4.707 12.74,67.742 191.67,-14.359 -13.94,-58.09"/><path style="fill:#406fbf;fill-opacity:1;fill-rule:nonzero;stroke:none" id="path150" d="m 3262.64,1945.43 c 0,0 -69.84,-535 -220.77,-838.98 C 2919.98,860.93 2594.68,511.422 2594.68,511.422 l -83.17,85.68 c 0,0 219.72,379.847 310.32,542.938 222.15,399.92 25.23,758.47 175.86,879.82 l 264.95,-74.43"/><path style="fill:#17282f;fill-opacity:1;fill-rule:nonzero;stroke:none" id="path152" d="m 2603.11,499.949 -107.33,104.633 35.6,48.438 116.97,-120.93 -45.24,-32.141"/><path style="fill:#406fbf;fill-opacity:1;fill-rule:nonzero;stroke:none" id="path154" d="m 2998.12,2041.18 -23.71,-26.14 c -1.84,-2.02 0.29,-5.2 4.21,-6.28 l 355.86,-98.52 c 3.06,-0.85 6.01,-0.05 6.74,1.82 l 11.47,29.53 c 0.79,2.04 -1.37,4.56 -4.72,5.48 l -343.62,95.13 c -2.52,0.7 -5.04,0.29 -6.23,-1.02"/><path style="fill:#90b4e3;fill-opacity:1;fill-rule:nonzero;stroke:none" id="path156" d="m 3336.9,1909.9 c -0.77,0 -1.59,0.11 -2.42,0.34 l -85.44,23.65 v 35.58 0 c 0,1.68 -0.03,3.35 -0.09,5.02 l 99.02,-27.42 c 2.88,-0.79 4.88,-2.76 4.88,-4.6 0,-0.3 -0.05,-0.6 -0.16,-0.88 l -11.47,-29.53 c -0.53,-1.37 -2.24,-2.16 -4.32,-2.16"/><path style="fill:#406fbf;fill-opacity:1;fill-rule:nonzero;stroke:none" id="path158" d="m 3033.63,1989.98 -9.2,2.55 c -1.83,0.51 -2.97,1.84 -2.52,2.96 l 15.24,38.27 c 0.45,1.12 2.31,1.62 4.14,1.11 l 9.21,-2.54 c 1.83,-0.51 2.96,-1.84 2.52,-2.97 l -15.24,-38.26 c -0.45,-1.12 -2.32,-1.62 -4.15,-1.12"/><path style="fill:#406fbf;fill-opacity:1;fill-rule:nonzero;stroke:none" id="path160" d="m 3307.71,1914.11 -9.2,2.55 c -1.84,0.5 -2.97,1.83 -2.52,2.96 l 15.24,38.26 c 0.44,1.12 2.31,1.62 4.14,1.12 l 9.2,-2.55 c 1.83,-0.51 2.97,-1.84 2.52,-2.96 l -15.24,-38.27 c -0.44,-1.12 -2.31,-1.62 -4.14,-1.11"/><path style="fill:#406fbf;fill-opacity:1;fill-rule:nonzero;stroke:none" id="path162" d="m 3170.67,1952.05 -9.2,2.54 c -1.84,0.51 -2.97,1.84 -2.52,2.96 l 15.23,38.27 c 0.45,1.12 2.32,1.62 4.15,1.11 l 9.2,-2.54 c 1.84,-0.51 2.97,-1.84 2.52,-2.96 l -15.24,-38.27 c -0.44,-1.12 -2.3,-1.62 -4.14,-1.11"/><path style="fill:#17282f;fill-opacity:1;fill-rule:nonzero;stroke:none" id="path164" d="m 3299.07,2735.71 c 0.41,-6.98 -2.96,-12.85 -7.52,-13.12 -4.56,-0.27 -8.59,5.18 -9,12.16 -0.41,6.98 2.95,12.85 7.52,13.12 4.56,0.27 8.59,-5.17 9,-12.16"/><path style="fill:#17282f;fill-opacity:1;fill-rule:nonzero;stroke:none" id="path166" d="m 3220.17,2731.09 c 0.41,-6.99 -2.96,-12.86 -7.52,-13.13 -4.56,-0.27 -8.6,5.18 -9.01,12.16 -0.4,6.98 2.96,12.85 7.53,13.12 4.56,0.27 8.59,-5.17 9,-12.15"/><path style="fill:#17282f;fill-opacity:1;fill-rule:nonzero;stroke:none" id="path168" d="m 3213.2,2742.97 -17.05,3.85 c 0,0 9.37,-12.59 17.05,-3.85"/><path style="fill:#f46878;fill-opacity:1;fill-rule:nonzero;stroke:none" id="path170" d="m 3241.72,2720.31 c 0,0 -10.07,-30.74 -22.26,-46.01 9.71,-8.06 25.15,-3.21 25.15,-3.21 l -2.89,49.22"/><path style="fill:#17282f;fill-opacity:1;fill-rule:nonzero;stroke:none" id="path172" d="m 3283.51,2647.36 c -3.88,-1 -8.11,-1.7 -12.73,-1.97 -0.95,-0.06 -1.75,0.66 -1.81,1.6 -0.05,0.95 0.67,1.78 1.61,1.8 30.77,1.8 43.97,24.21 44.09,24.44 l 2.33,0.63 0.64,-2.33 c -0.49,-0.84 -10.61,-18.1 -34.13,-24.17"/><path style="fill:#17282f;fill-opacity:1;fill-rule:nonzero;stroke:none" id="path174" d="m 3325.25,2786.73 c -1.12,-0.29 -2.36,0 -3.24,0.86 -13.26,12.96 -28.08,9.98 -28.7,9.84 -1.84,-0.39 -3.66,0.78 -4.06,2.62 -0.4,1.83 0.75,3.63 2.59,4.05 0.76,0.17 18.96,4.01 34.94,-11.62 1.35,-1.32 1.37,-3.48 0.05,-4.83 l -1.58,-0.92"/><path style="fill:#17282f;fill-opacity:1;fill-rule:nonzero;stroke:none" id="path176" d="m 3185.77,2776.6 c -1.09,-0.49 -2.41,-0.4 -3.44,0.37 -1.51,1.12 -1.83,3.26 -0.71,4.78 13.31,17.95 31.89,17.04 32.67,17 1.87,-0.12 3.3,-1.73 3.2,-3.61 -0.11,-1.87 -1.72,-3.3 -3.6,-3.21 -0.64,0.03 -15.74,0.64 -26.78,-14.25 l -1.34,-1.08"/><path style="fill:#f9a8b3;fill-opacity:1;fill-rule:nonzero;stroke:none" id="path178" d="m 3085.72,2414.3 c -8.73,-13.16 -16.65,-23.73 -25.49,-34.95 -8.71,-10.96 -17.62,-21.68 -26.8,-32.17 -18.47,-20.88 -38.15,-40.63 -58.83,-59.4 -20.62,-18.84 -42.29,-36.65 -65.41,-52.74 -11.25,-8.39 -23.39,-15.73 -35.23,-23.34 l -18.43,-10.57 -9.23,-5.24 c -3.37,-1.78 -7.78,-4.16 -12.03,-5.89 -16.89,-7.61 -38.62,-11.55 -59.21,-7.77 -20.66,3.55 -38.04,13.46 -51.38,24.38 -13.56,10.99 -23.72,23.41 -32.57,35.85 -8.74,12.52 -16.2,25.2 -22.51,38.16 -25.03,51.92 -39.67,104.15 -48.91,158.87 l 39.61,9.18 c 8.27,-23.78 17.58,-48.41 28.07,-71.59 10.19,-23.4 21.6,-46.11 34.71,-66.62 12.86,-20.33 27.91,-39.34 43.25,-49.75 7.56,-5.25 14.56,-7.82 20.25,-8.14 5.69,-0.28 11.17,0.8 18.23,4.45 1.85,0.87 3.22,1.8 5.62,3.25 l 7.78,5.07 15.52,10.18 c 9.99,7.44 20.31,14.26 29.98,22.2 19.74,15.17 38.4,31.97 56.63,49.21 18.23,17.27 35.39,35.78 51.87,54.8 8.31,9.45 16.36,19.12 24.18,28.9 7.53,9.64 15.65,20.21 21.87,28.96 l 68.46,-45.29"/><path style="fill:#f9a8b3;fill-opacity:1;fill-rule:nonzero;stroke:none" id="path180" d="m 2667.7,2411.86 8.78,93.3 -83.84,-34.32 c 0,0 10.01,-46.92 41.92,-63.68 l 33.14,4.7"/><path style="fill:#f9a8b3;fill-opacity:1;fill-rule:nonzero;stroke:none" id="path182" d="m 2649.69,2555.48 -64.91,14.14 7.86,-98.78 83.84,34.32 -26.79,50.32"/><path style="fill:#17282f;fill-opacity:1;fill-rule:nonzero;stroke:none" id="path184" d="m 3077.81,2543.21 c -43.66,0.38 -148.96,-166.83 -148.96,-166.83 l 74.39,-76.95 c 0,0 139.73,94.4 145.45,150.34 4.85,47.48 -15.26,92.95 -70.88,93.44"/><path style="fill:#2b3c43;fill-opacity:1;fill-rule:nonzero;stroke:none" id="path186" d="m 3003.24,2299.43 -7.74,8 -56.76,58.72 -9.89,10.23 c 0,0 105.06,166.83 148.81,166.83 0.04,0 0.1,0 0.15,0 50.29,-0.44 71.55,-37.67 71.57,-79.91 0.01,-4.46 -0.23,-8.99 -0.69,-13.53 -3.08,-30.12 -45.03,-71.4 -83.08,-103.09 -32.61,-27.15 -62.37,-47.25 -62.37,-47.25"/><path style="fill:#406fbf;fill-opacity:1;fill-rule:nonzero;stroke:none" id="path188" d="m 3010.11,2296.04 v 0 c -3.1,-3.16 -8.18,-3.21 -11.34,-0.11 l -75.03,73.56 c -3.17,3.1 -3.22,8.18 -0.12,11.34 3.1,3.17 8.18,3.22 11.35,0.12 l 75.03,-73.57 c 3.16,-3.1 3.21,-8.18 0.11,-11.34"/><path style="fill:#406fbf;fill-opacity:1;fill-rule:nonzero;stroke:none" id="path190" d="m 2520.44,448.898 c 9.43,-5.359 25.53,-15.808 26.08,-22.457 0.06,-0.761 -0.04,-1.902 -1.58,-3.062 -2.69,-2.027 -5.21,-2.598 -7.72,-1.758 -5.85,1.961 -12.01,12.051 -16.78,27.277 m 19.03,-31.078 c 2.51,0 5.03,0.95 7.53,2.828 2.66,2.012 3.06,4.411 2.92,6.071 -0.89,10.84 -28.37,25.543 -31.5,27.172 l -1.86,-0.18 -0.57,-1.789 c 3.1,-11.043 9.85,-30.07 20.13,-33.543 1.12,-0.367 2.23,-0.559 3.35,-0.559"/><path style="fill:#406fbf;fill-opacity:1;fill-rule:nonzero;stroke:none" id="path192" d="m 2545.37,459.672 c 1.71,0 3.3,-0.211 4.69,-0.703 2.12,-0.75 3.56,-2.098 4.38,-4.137 1.08,-2.652 0.24,-3.82 -0.6,-4.543 -5.09,-4.32 -23.15,-1.867 -32.45,2.102 5.11,2.507 15.89,7.281 23.98,7.281 m -1.66,-15.07 c 5.18,0 9.74,0.878 12.33,3.089 1.39,1.168 3.43,3.829 1.57,8.418 -1.2,2.961 -3.36,5 -6.41,6.082 -11.73,4.149 -33.48,-7.8 -34.4,-8.312 l -0.88,-1.457 0.82,-1.492 c 5.25,-3.211 17.22,-6.328 26.97,-6.328"/><path style="fill:#406fbf;fill-opacity:1;fill-rule:nonzero;stroke:none" id="path194" d="m 3127.33,218.43 c 1.82,0 3.25,-0.282 4.17,-0.899 0.48,-0.32 1.01,-0.883 0.93,-2.269 -0.17,-3 -1.39,-5.321 -3.73,-7.09 -8.43,-6.371 -28.92,-3.703 -40,-1.613 12.78,5.632 30.03,11.871 38.63,11.871 z m -16.42,-17.719 c 7.87,0 15.19,1.211 19.85,4.738 3.15,2.371 4.86,5.61 5.08,9.621 0.17,2.899 -1.23,4.469 -2.43,5.282 -9.36,6.359 -46.71,-10.883 -50.93,-12.872 l -0.98,-1.73 1.33,-1.48 c 7.45,-1.649 18.2,-3.559 28.08,-3.559"/><path style="fill:#406fbf;fill-opacity:1;fill-rule:nonzero;stroke:none" id="path196" d="m 3108.78,239.031 1.43,-0.082 c 3.51,-0.418 3.69,-1.758 3.75,-2.199 0.81,-5.988 -16,-21.328 -28.15,-27.711 2.5,8.582 10.05,29.992 22.97,29.992 z m -25.58,-34.801 0.65,0.129 c 11.23,4.59 34.76,23.481 33.49,32.852 -0.27,2 -1.66,4.519 -6.73,5.121 -20.13,2.328 -28.72,-34.441 -29.07,-36.012 l 0.55,-1.691 1.11,-0.399"/><path style="fill:#17282f;fill-opacity:1;fill-rule:nonzero;stroke:none" id="path198" d="m 3292.1,2747.6 -17.05,3.85 c 0,0 9.38,-12.59 17.05,-3.85"/><path style="fill:#406fbf;fill-opacity:1;fill-rule:nonzero;stroke:none" id="path200" d="m 1525.06,158.551 1130.98,98.82 c 76.5,6.688 133.62,74.75 126.94,151.238 L 2547.24,3106.49 c -6.69,76.49 -74.75,133.61 -151.24,126.93 l -1130.98,-98.83 c -76.49,-6.68 -133.61,-74.74 -126.93,-151.23 L 1373.83,285.48 c 6.68,-76.5 74.74,-133.609 151.23,-126.929"/><path style="fill:#406fbf;fill-opacity:1;fill-rule:nonzero;stroke:none" id="path202" d="m 1223.02,2186.76 c 21.77,1.9 38.03,21.27 36.13,43.05 l -31.13,356.25 c -1.91,21.78 -21.28,38.03 -43.05,36.13 -21.77,-1.9 -38.03,-21.27 -36.13,-43.04 l 31.14,-356.26 c 1.9,-21.78 21.27,-38.03 43.04,-36.13"/><path style="fill:#17282f;fill-opacity:1;fill-rule:nonzero;stroke:none" id="path204" d="m 2604.24,2467.9 13.9,1.22 c 16.16,1.41 28.22,15.78 26.81,31.94 l -19,217.44 c -1.41,16.16 -15.78,28.23 -31.94,26.81 l -13.91,-1.21 c -16.15,-1.41 -28.22,-15.79 -26.8,-31.94 l 18.99,-217.45 c 1.42,-16.15 15.79,-28.22 31.95,-26.81"/><path style="fill:#17282f;fill-opacity:1;fill-rule:nonzero;stroke:none" id="path206" d="m 2636.15,2102.73 13.9,1.22 c 16.16,1.41 28.22,15.78 26.81,31.94 l -19,217.44 c -1.41,16.16 -15.79,28.22 -31.94,26.81 l -13.91,-1.21 c -16.16,-1.42 -28.22,-15.79 -26.8,-31.95 l 18.99,-217.44 c 1.42,-16.16 15.79,-28.22 31.95,-26.81"/><path style="fill:#17282f;fill-opacity:1;fill-rule:nonzero;stroke:none" id="path208" d="m 1548.86,160.629 1130.97,98.82 c 76.5,6.692 133.62,74.75 126.94,151.242 L 2571.03,3108.57 c -6.68,76.49 -74.74,133.61 -151.24,126.93 l -1130.98,-98.82 c -76.5,-6.69 -133.61,-74.75 -126.93,-151.25 L 1397.62,287.559 c 6.68,-76.5 74.74,-133.618 151.24,-126.93"/><path style="fill:#265396;fill-opacity:1;fill-rule:nonzero;stroke:none" id="path210" d="m 1435.21,328.68 c -13.4,0 -24.81,10.25 -26,23.859 L 1184.99,2918.61 c -1.26,14.37 9.38,27.05 23.76,28.31 l 1322.8,115.58 c 0.78,0.07 1.54,0.11 2.31,0.11 13.4,0 24.82,-10.26 26,-23.87 l 81.64,-934.29 h -343.64 l 59.08,942.79 -276.48,-24.16 -57.56,-918.63 h -284.93 c -74.24,0 -134.98,-60.74 -134.98,-134.98 v -674.92 0 c 0,-74.24 60.74,-134.99 134.98,-134.99 h 225.73 l -49.45,-789.138 -476.73,-41.641 c -0.77,-0.07 -1.54,-0.101 -2.31,-0.101 m 755.51,65.91 46.49,741.88 188.8,-188.81 211.91,211.9 h 86.15 l 60.02,-686.88 c 1.25,-14.379 -9.39,-27.059 -23.77,-28.321 l -569.6,-49.769"/><path style="fill:#22497d;fill-opacity:1;fill-rule:nonzero;stroke:none" id="path212" d="m 1914.25,370.422 v 0 l 276.47,24.168 v 0 l -276.47,-24.168"/><path style="fill:#305fb5;fill-opacity:1;fill-rule:nonzero;stroke:none" id="path214" d="m 1914.25,370.422 49.45,789.138 h 250.41 l 23.1,-23.09 -46.49,-741.88 -276.47,-24.16 m 383.61,1734.02 H 2022.9 l 57.56,918.63 276.48,24.16 -59.08,-942.79"/><path style="fill:#405158;fill-opacity:1;fill-rule:nonzero;stroke:none" id="path216" d="m 1720.88,3072.53 c -6.09,0 -11.32,4.69 -11.86,10.86 l -1,11.49 c -0.57,6.51 4.3,12.32 10.82,12.89 l 282.46,24.68 c 0.35,0.03 0.69,0.04 1.04,0.04 6.09,0 11.31,-4.69 11.85,-10.86 l 1.01,-11.49 c 0.57,-6.51 -4.31,-12.32 -10.83,-12.89 l -282.46,-24.68 c -0.34,-0.03 -0.69,-0.04 -1.03,-0.04"/><path style="fill:#406fbf;fill-opacity:1;fill-rule:nonzero;stroke:none" id="path218" d="m 1737.97,2104.45 h 1376.09 c 74.24,0 134.98,-60.74 134.98,-134.98 v -674.92 c 0,-74.24 -60.74,-134.99 -134.98,-134.99 h -476.14 l -211.91,-211.9 -211.9,211.9 h -476.14 c -74.24,0 -134.98,60.75 -134.98,134.99 v 674.92 c 0,74.24 60.74,134.98 134.98,134.98"/><path style="fill:#6d97d6;fill-opacity:1;fill-rule:nonzero;stroke:none" id="path220" d="m 2426.01,947.66 -188.8,188.81 -23.1,23.09 h -476.14 c -74.24,0 -134.98,60.75 -134.98,134.99 v 674.92 c 0,74.24 60.74,134.98 134.98,134.98 h 1376.09 c 74.24,0 134.98,-60.74 134.98,-134.98 v -35.58 -78.82 -560.52 c 0,-54.29 -32.48,-101.36 -78.96,-122.74 -17.09,-7.86 -36.07,-12.25 -56.02,-12.25 h -47.59 -234.11 -108.29 -86.15 l -211.91,-211.9 m -530.79,993.44 c -28.81,0 -53.71,-18.35 -63.95,-44.17 -3.28,-8.17 -5.05,-17.05 -5.05,-26.4 v -477.04 c 0,-38.82 31.05,-70.58 69,-70.58 H 2956.8 c 37.96,0 69.01,31.76 69.01,70.58 v 477.04 c 0,9.29 -1.78,18.23 -5.06,26.35 -10.24,25.87 -35.08,44.22 -63.95,44.22 H 1895.22"/><path style="fill:#fff;fill-opacity:1;fill-rule:nonzero;stroke:none" id="path222" d="m 1826.22,1870.53 v -477.04 c 0,-38.82 31.05,-70.58 69,-70.58 H 2956.8 c 37.96,0 69.01,31.76 69.01,70.58 v 477.04 c 0,9.29 -1.78,18.23 -5.06,26.35 -10.24,25.87 -35.08,44.22 -63.95,44.22 H 1895.22 c -28.81,0 -53.71,-18.35 -63.95,-44.17 -3.28,-8.17 -5.05,-17.05 -5.05,-26.4"/><path style="fill:#e0e1de;fill-opacity:1;fill-rule:nonzero;stroke:none" id="path224" d="m 2426.05,1656.38 c -27.75,0 -55.5,5.67 -81.55,17.02 l -513.23,223.53 c 10.24,25.82 35.14,44.17 63.95,44.17 H 2956.8 c 28.87,0 53.71,-18.35 63.95,-44.22 L 2507.59,1673.4 c -26.05,-11.35 -53.8,-17.02 -81.54,-17.02"/><path style="fill:#f14453;fill-opacity:1;fill-rule:nonzero;stroke:none" id="path226" d="m 1504.04,2044.51 c 0,-113.32 91.86,-205.18 205.18,-205.18 113.31,0 205.18,91.86 205.18,205.18 0,113.32 -91.87,205.18 -205.18,205.18 -113.32,0 -205.18,-91.86 -205.18,-205.18"/><path style="fill:#fff;fill-opacity:1;fill-rule:nonzero;stroke:none" id="path228" d="m 1748.75,1919.39 h -47.77 v 180.03 c -17.46,-16.32 -38.03,-28.39 -61.72,-36.21 v 43.36 c 12.47,4.08 26.01,11.81 40.64,23.2 14.62,11.39 24.65,24.68 30.09,39.87 h 38.76 v -250.25"/><path style="fill:#406fbf;fill-opacity:1;fill-rule:nonzero;stroke:none" id="path230" d="m 2863.67,3316.44 c -14.48,0 -27.18,10.59 -29.4,25.34 -28.22,187.56 -203.75,317.17 -391.33,288.96 -16.25,-2.45 -31.41,8.74 -33.86,25 -2.44,16.26 8.75,31.42 25.01,33.87 220.04,33.11 425.94,-118.96 459.05,-338.97 2.45,-16.26 -8.75,-31.42 -25.01,-33.86 -1.49,-0.23 -2.98,-0.34 -4.46,-0.34"/><path style="fill:#406fbf;fill-opacity:1;fill-rule:nonzero;stroke:none" id="path232" d="m 2715.84,3294.2 c -14.48,0 -27.18,10.58 -29.39,25.34 -15.97,106.04 -115.22,179.32 -221.26,163.37 -16.24,-2.45 -31.42,8.75 -33.86,25 -2.45,16.26 8.74,31.42 25,33.87 138.51,20.84 268.15,-74.89 288.98,-213.38 2.45,-16.26 -8.75,-31.42 -25,-33.87 -1.5,-0.23 -3,-0.33 -4.47,-0.33"/><path style="fill:#406fbf;fill-opacity:1;fill-rule:nonzero;stroke:none" id="path234" d="m 2568.01,3271.95 c -14.48,0 -27.18,10.59 -29.4,25.34 -1.79,11.88 -8.09,22.36 -17.76,29.5 -9.66,7.13 -21.51,10.07 -33.41,8.29 -16.25,-2.45 -31.42,8.75 -33.86,25 -2.45,16.26 8.74,31.42 25,33.87 27.63,4.16 55.18,-2.69 77.64,-19.27 22.45,-16.59 37.11,-40.92 41.26,-68.53 2.45,-16.26 -8.75,-31.42 -25,-33.86 -1.5,-0.23 -3,-0.34 -4.47,-0.34"/></g></g></svg>