<svg xmlns="http://www.w3.org/2000/svg" xmlns:svg="http://www.w3.org/2000/svg" id="svg2" width="666.667" height="508.013" version="1.1" viewBox="0 0 666.667 508.013" xml:space="preserve"><metadata id="metadata8"/><g id="g10" transform="matrix(1.3333333,0,0,-1.3333333,0,508.01333)"><g id="g12" transform="scale(0.1)"><path style="fill:#d9d7d4;fill-opacity:1;fill-rule:nonzero;stroke:none" id="path14" d="m 0,449.129 h 5000 v 2.5 H 0 Z"/><path style="fill:#d9d7d4;fill-opacity:1;fill-rule:nonzero;stroke:none" id="path16" d="M 3793.33,356.91 H 3449.3 v 2.5 h 344.03 v -2.5"/><path style="fill:#d9d7d4;fill-opacity:1;fill-rule:nonzero;stroke:none" id="path18" d="m 4197.94,364.02 h -193.58 v 2.5 h 193.58 v -2.5"/><path style="fill:#d9d7d4;fill-opacity:1;fill-rule:nonzero;stroke:none" id="path20" d="m 2473.48,360.66 h -256.83 v -2.5 h 256.83 v 2.5"/><path style="fill:#d9d7d4;fill-opacity:1;fill-rule:nonzero;stroke:none" id="path22" d="m 2658.89,325.109 h -175.41 v -2.5 h 175.41 v 2.5"/><path style="fill:#d9d7d4;fill-opacity:1;fill-rule:nonzero;stroke:none" id="path24" d="M 1446.67,383.391 H 916.813 v 2.5 h 529.857 v -2.5"/><path style="fill:#d9d7d4;fill-opacity:1;fill-rule:nonzero;stroke:none" id="path26" d="m 439.152,3723.59 c -30.101,0 -54.582,-24.48 -54.582,-54.57 V 954.699 c 0,-30.097 24.481,-54.578 54.582,-54.578 H 2370.14 c 30.08,0 54.57,24.481 54.57,54.578 V 3669.02 c 0,30.09 -24.49,54.57 -54.57,54.57 H 439.152 M 2370.14,897.621 H 439.152 c -31.476,0 -57.082,25.598 -57.082,57.078 V 3669.02 c 0,31.46 25.606,57.07 57.082,57.07 H 2370.14 c 31.46,0 57.07,-25.61 57.07,-57.07 V 954.699 c 0,-31.48 -25.61,-57.078 -57.07,-57.078"/><path style="fill:#d9d7d4;fill-opacity:1;fill-rule:nonzero;stroke:none" id="path28" d="m 2602.12,3723.59 c -30.09,0 -54.57,-24.48 -54.57,-54.57 V 954.699 c 0,-30.097 24.48,-54.578 54.57,-54.578 h 1930.99 c 30.09,0 54.58,24.481 54.58,54.578 V 3669.02 c 0,30.09 -24.49,54.57 -54.58,54.57 H 2602.12 M 4533.11,897.621 H 2602.12 c -31.47,0 -57.07,25.598 -57.07,57.078 V 3669.02 c 0,31.46 25.6,57.07 57.07,57.07 h 1930.99 c 31.47,0 57.08,-25.61 57.08,-57.07 V 954.699 c 0,-31.48 -25.61,-57.078 -57.08,-57.078"/><path style="fill:#d9d7d4;fill-opacity:1;fill-rule:nonzero;stroke:none" id="path30" d="m 2833.33,2187.35 h 1506.98 v 1295.6 H 2833.33 Z"/><path style="fill:#ebe9e8;fill-opacity:1;fill-rule:nonzero;stroke:none" id="path32" d="M 2866.83,2187.35 H 4373.8 v 1295.6 H 2866.83 Z"/><path style="fill:#f9f8f7;fill-opacity:1;fill-rule:nonzero;stroke:none" id="path34" d="M 2926.93,2248.16 H 4313.69 V 3422.15 H 2926.93 Z"/><path style="fill:#d9d7d4;fill-opacity:1;fill-rule:nonzero;stroke:none" id="path36" d="m 3779.83,2248.16 h 90.6602 V 3422.15 H 3779.83 Z"/><path style="fill:#d9d7d4;fill-opacity:1;fill-rule:nonzero;stroke:none" id="path38" d="m 3303.16,2248.16 h 90.6484 V 3422.15 H 3303.16 Z"/><path style="fill:#ebe9e8;fill-opacity:1;fill-rule:nonzero;stroke:none" id="path40" d="m 3811.7,2209.58 h 90.6523 V 3467.35 H 3811.7 Z"/><path style="fill:#ebe9e8;fill-opacity:1;fill-rule:nonzero;stroke:none" id="path42" d="m 3335.03,2209.58 h 90.6484 V 3467.35 H 3335.03 Z"/><path style="fill:#d9d7d4;fill-opacity:1;fill-rule:nonzero;stroke:none" id="path44" d="m 4288.37,2248.16 v 1173.99 h 25.32 V 2248.16 h -25.32"/><path style="fill:#d9d7d4;fill-opacity:1;fill-rule:nonzero;stroke:none" id="path46" d="m 1773.44,2459.73 c 0,0 -183.38,316.11 71.03,567.75 0,0 66.4,-43.28 65.38,-101.46 -1.02,-58.18 -71.1,-72.9 -56.05,-121.45 15.07,-48.56 81.24,-96.2 37.81,-136.34 -43.44,-40.13 7,-75.87 4.06,-125.04 -2.94,-49.18 -122.23,-83.46 -122.23,-83.46"/><path style="fill:#e0dddb;fill-opacity:1;fill-rule:nonzero;stroke:none" id="path48" d="m 1802.23,2408.04 c 0,0 74.34,357.82 -246.43,516.39 0,0 -49.37,-62 -30.06,-116.9 19.31,-54.89 90.47,-46.75 91.49,-97.58 1.01,-50.83 -46.76,-116.9 7.11,-141.3 53.88,-24.39 17.28,-74.2 35.58,-119.94 18.3,-45.75 142.31,-40.67 142.31,-40.67"/><path style="fill:#ebe9e8;fill-opacity:1;fill-rule:nonzero;stroke:none" id="path50" d="m 1638.92,2498.9 c 0,0 3.22,-308.84 126.66,-308.84 123.43,0 126.66,308.84 126.66,308.84 h -253.32"/><path style="fill:#e0dddb;fill-opacity:1;fill-rule:nonzero;stroke:none" id="path52" d="m 896.91,2306.26 c 0,0 6.879,-116.2 270.63,-116.2 263.75,0 270.63,116.2 270.63,116.2 H 896.91"/><path style="fill:#ebe9e8;fill-opacity:1;fill-rule:nonzero;stroke:none" id="path54" d="m 3677.03,1312.57 h -139.27 c -17.32,0 -31.36,14.04 -31.36,31.37 v 230.32 c 0,17.31 14.04,31.36 31.36,31.36 h 139.27 c 17.32,0 31.36,-14.05 31.36,-31.36 v -230.32 c 0,-17.33 -14.04,-31.37 -31.36,-31.37"/><path style="fill:#e0dddb;fill-opacity:1;fill-rule:nonzero;stroke:none" id="path56" d="m 4046.17,1312.57 h -93.71 c -11.65,0 -21.1,9.45 -21.1,21.1 v 154.99 c 0,11.65 9.45,21.11 21.1,21.11 h 93.71 c 11.66,0 21.11,-9.46 21.11,-21.11 v -154.99 c 0,-11.65 -9.45,-21.1 -21.11,-21.1"/><path style="fill:#ebe9e8;fill-opacity:1;fill-rule:nonzero;stroke:none" id="path58" d="m 4060.2,1506.71 h -121.76 c -3.91,0 -7.08,3.17 -7.08,7.09 v 8.06 c 0,3.9 3.17,7.08 7.08,7.08 h 121.76 c 3.9,0 7.08,-3.18 7.08,-7.08 v -8.06 c 0,-3.92 -3.18,-7.09 -7.08,-7.09"/><path style="fill:#e0dddb;fill-opacity:1;fill-rule:nonzero;stroke:none" id="path60" d="m 3184.24,1475.62 c 0,0 4.98,-163.05 195.91,-163.05 190.93,0 195.91,163.05 195.91,163.05 h -391.82"/><path style="fill:#d9d7d4;fill-opacity:1;fill-rule:nonzero;stroke:none" id="path62" d="m 2709.41,1690.88 h 288.891 v 56.9609 H 2709.41 Z"/><path style="fill:#ebe9e8;fill-opacity:1;fill-rule:nonzero;stroke:none" id="path64" d="m 2998.3,1690.88 h 1436.3 v 56.9609 H 2998.3 Z"/><path style="fill:#d9d7d4;fill-opacity:1;fill-rule:nonzero;stroke:none" id="path66" d="m 2709.41,1255.62 h 288.891 v 56.9492 H 2709.41 Z"/><path style="fill:#ebe9e8;fill-opacity:1;fill-rule:nonzero;stroke:none" id="path68" d="M 4434.6,1255.62 H 2998.3 v 56.95 h 1436.3 v -56.95"/><path style="fill:#d9d7d4;fill-opacity:1;fill-rule:nonzero;stroke:none" id="path70" d="m 2760.24,451.629 h 53.332 v 1239.25 h -53.332 z"/><path style="fill:#ebe9e8;fill-opacity:1;fill-rule:nonzero;stroke:none" id="path72" d="m 2998.3,451.629 h 53.3281 v 1239.25 H 2998.3 Z"/><path style="fill:#d9d7d4;fill-opacity:1;fill-rule:nonzero;stroke:none" id="path74" d="m 4196.54,451.629 h 53.3398 v 1239.25 H 4196.54 Z"/><path style="fill:#ebe9e8;fill-opacity:1;fill-rule:nonzero;stroke:none" id="path76" d="m 4434.6,451.629 h -53.33 V 1690.88 h 53.33 V 451.629"/><path style="fill:#e0dddb;fill-opacity:1;fill-rule:nonzero;stroke:none" id="path78" d="M 896.91,526.699 H 623.73 V 2117.56 H 896.91 V 526.699"/><path style="fill:#e0dddb;fill-opacity:1;fill-rule:nonzero;stroke:none" id="path80" d="m 676.184,451.629 h 1347.19 v 75.0703 H 676.184 Z"/><path style="fill:#ebe9e8;fill-opacity:1;fill-rule:nonzero;stroke:none" id="path82" d="m 896.91,526.699 h 1178.91 v 1590.86 H 896.91 Z"/><path style="fill:#e0dddb;fill-opacity:1;fill-rule:nonzero;stroke:none" id="path84" d="m 1004.31,1127.85 h 964.113 v 388.559 H 1004.31 Z"/><path style="fill:#e0dddb;fill-opacity:1;fill-rule:nonzero;stroke:none" id="path86" d="m 1004.31,668.43 h 964.113 v 388.551 H 1004.31 Z"/><path style="fill:#ebe9e8;fill-opacity:1;fill-rule:nonzero;stroke:none" id="path88" d="m 1594.6,1473.82 h -216.47 c -14.65,0 -26.64,11.99 -26.64,26.64 0,14.66 11.99,26.64 26.64,26.64 h 216.47 c 14.65,0 26.64,-11.98 26.64,-26.64 0,-14.65 -11.99,-26.64 -26.64,-26.64"/><path style="fill:#e0dddb;fill-opacity:1;fill-rule:nonzero;stroke:none" id="path90" d="m 1004.31,1587.28 h 964.113 v 388.551 H 1004.31 Z"/><path style="fill:#ebe9e8;fill-opacity:1;fill-rule:nonzero;stroke:none" id="path92" d="m 1594.6,1933.24 h -216.47 c -14.65,0 -26.64,11.99 -26.64,26.64 0,14.66 11.99,26.64 26.64,26.64 h 216.47 c 14.65,0 26.64,-11.98 26.64,-26.64 0,-14.65 -11.99,-26.64 -26.64,-26.64"/><path style="fill:#ebe9e8;fill-opacity:1;fill-rule:nonzero;stroke:none" id="path94" d="m 1594.6,1014.41 h -216.47 c -14.65,0 -26.64,11.98 -26.64,26.64 0,14.64 11.99,26.64 26.64,26.64 h 216.47 c 14.65,0 26.64,-12 26.64,-26.64 0,-14.66 -11.99,-26.64 -26.64,-26.64"/><path style="fill:#e0dddb;fill-opacity:1;fill-rule:nonzero;stroke:none" id="path96" d="m 896.91,2117.56 h 1215.31 v 72.5 H 896.91 Z"/><path style="fill:#d9d7d4;fill-opacity:1;fill-rule:nonzero;stroke:none" id="path98" d="M 585.559,2190.06 H 896.91 v -72.5 H 585.559 v 72.5"/><path style="fill:#e0dddb;fill-opacity:1;fill-rule:nonzero;stroke:none" id="path100" d="m 759.359,2936.78 h 442.02 v 485.371 h -442.02 z"/><path style="fill:#ebe9e8;fill-opacity:1;fill-rule:nonzero;stroke:none" id="path102" d="m 792.68,2936.78 h 456.582 v 485.371 H 792.68 Z"/><path style="fill:#f9f8f7;fill-opacity:1;fill-rule:nonzero;stroke:none" id="path104" d="m 830.93,2975.02 h 380.082 v 408.875 H 830.93 Z"/><path style="fill:#ebe9e8;fill-opacity:1;fill-rule:nonzero;stroke:none" id="path106" d="m 923.059,3074.13 h 195.82 v 210.664 h -195.82 z"/><path style="fill:#e0dddb;fill-opacity:1;fill-rule:nonzero;stroke:none" id="path108" d="m 1332.22,3205.4 h 335.23 v 360.059 h -335.23 z"/><path style="fill:#ebe9e8;fill-opacity:1;fill-rule:nonzero;stroke:none" id="path110" d="m 1364.27,3205.4 h 338.699 v 360.059 H 1364.27 Z"/><path style="fill:#f9f8f7;fill-opacity:1;fill-rule:nonzero;stroke:none" id="path112" d="m 1392.64,3233.77 h 281.949 v 303.309 H 1392.64 Z"/><path style="fill:#ebe9e8;fill-opacity:1;fill-rule:nonzero;stroke:none" id="path114" d="m 1533.62,3462.1 -77.11,-133.56 h 154.22 l -77.11,133.56"/><path style="fill:#f1efef;fill-opacity:1;fill-rule:nonzero;stroke:none" id="path116" d="M 4438.89,113.23 C 4438.89,50.6914 3570.82,0 2500,0 1429.18,0 561.113,50.6914 561.113,113.23 c 0,62.54 868.067,113.239 1938.887,113.239 1070.82,0 1938.89,-50.699 1938.89,-113.239"/><path style="fill:#3a66b9;fill-opacity:1;fill-rule:nonzero;stroke:none" id="path118" d="m 4198.03,2363.21 h -981.04 c -51.52,0 -93.68,42.16 -93.68,93.68 v 266.87 c 0,51.52 42.16,93.68 93.68,93.68 h 981.04 c 51.53,0 93.68,-42.16 93.68,-93.68 v -266.87 c 0,-51.52 -42.15,-93.68 -93.68,-93.68"/><path style="fill:#3a66b9;fill-opacity:1;fill-rule:nonzero;stroke:none" id="path120" d="m 4003.34,2690.03 h -766.18 c -9.04,0 -16.44,7.4 -16.44,16.44 v 17.93 c 0,9.04 7.4,16.44 16.44,16.44 h 766.18 c 9.04,0 16.44,-7.4 16.44,-16.44 v -17.93 c 0,-9.04 -7.4,-16.44 -16.44,-16.44"/><path style="fill:#3a66b9;fill-opacity:1;fill-rule:nonzero;stroke:none" id="path122" d="m 3760.65,2567.6 h -523.49 c -9.04,0 -16.44,7.4 -16.44,16.44 v 17.94 c 0,9.04 7.4,16.43 16.44,16.43 h 523.49 c 9.05,0 16.44,-7.39 16.44,-16.43 v -17.94 c 0,-9.04 -7.39,-16.44 -16.44,-16.44"/><path style="fill:#3a66b9;fill-opacity:1;fill-rule:nonzero;stroke:none" id="path124" d="m 3620.25,2445.18 h -383.09 c -9.04,0 -16.44,7.39 -16.44,16.44 v 17.93 c 0,9.04 7.4,16.44 16.44,16.44 h 383.09 c 9.04,0 16.44,-7.4 16.44,-16.44 v -17.93 c 0,-9.05 -7.4,-16.44 -16.44,-16.44"/><path style="fill:#3a66b9;fill-opacity:1;fill-rule:nonzero;stroke:none" id="path126" d="m 4095.16,2445.18 h -383.09 c -9.04,0 -16.44,7.39 -16.44,16.44 v 17.93 c 0,9.04 7.4,16.44 16.44,16.44 h 383.09 c 9.04,0 16.43,-7.4 16.43,-16.44 v -17.93 c 0,-9.05 -7.39,-16.44 -16.43,-16.44"/><path style="fill:#87a6dc;fill-opacity:1;fill-rule:nonzero;stroke:none" id="path128" d="M 4003.34,2690.03 H 3660.4 c -4.22,16.99 -9.01,33.95 -14.35,50.81 h 357.29 c 9.04,0 16.44,-7.4 16.44,-16.44 v -17.93 c 0,-9.04 -7.4,-16.44 -16.44,-16.44"/><path style="fill:#87a6dc;fill-opacity:1;fill-rule:nonzero;stroke:none" id="path130" d="m 3760.65,2567.6 h -79.48 c -1.57,16.95 -3.68,33.89 -6.32,50.81 h 85.8 c 9.05,0 16.44,-7.39 16.44,-16.43 v -17.94 c 0,-9.04 -7.39,-16.44 -16.44,-16.44"/><path style="fill:#87a6dc;fill-opacity:1;fill-rule:nonzero;stroke:none" id="path132" d="m 4095.16,2445.18 h -383.09 c -9.04,0 -16.44,7.39 -16.44,16.44 v 17.93 c 0,9.04 7.4,16.44 16.44,16.44 h 383.09 c 9.04,0 16.43,-7.4 16.43,-16.44 v -17.93 c 0,-9.05 -7.39,-16.44 -16.43,-16.44"/><path style="fill:#3a66b9;fill-opacity:1;fill-rule:nonzero;stroke:none" id="path134" d="M 3412.2,2257.34 H 2298.62 c -75.54,0 -137.35,61.8 -137.35,137.35 v 391.27 c 0,75.54 61.81,137.35 137.35,137.35 H 3412.2 c 75.54,0 137.35,-61.81 137.35,-137.35 v -391.27 c 0,-75.55 -61.81,-137.35 -137.35,-137.35"/><path style="fill:#3a66b9;fill-opacity:1;fill-rule:nonzero;stroke:none" id="path136" d="M 3451.55,2736.51 H 2328.2 c -13.25,0 -24.1,10.85 -24.1,24.1 v 26.29 c 0,13.26 10.85,24.1 24.1,24.1 h 1123.35 c 13.26,0 24.1,-10.84 24.1,-24.1 v -26.29 c 0,-13.25 -10.84,-24.1 -24.1,-24.1"/><path style="fill:#3a66b9;fill-opacity:1;fill-rule:nonzero;stroke:none" id="path138" d="M 3095.73,2557.02 H 2328.2 c -13.25,0 -24.1,10.84 -24.1,24.09 v 26.3 c 0,13.25 10.85,24.1 24.1,24.1 h 767.53 c 13.25,0 24.09,-10.85 24.09,-24.1 v -26.3 c 0,-13.25 -10.84,-24.09 -24.09,-24.09"/><path style="fill:#3a66b9;fill-opacity:1;fill-rule:nonzero;stroke:none" id="path140" d="M 2889.87,2377.52 H 2328.2 c -13.25,0 -24.1,10.84 -24.1,24.1 v 26.29 c 0,13.25 10.85,24.1 24.1,24.1 h 561.67 c 13.27,0 24.1,-10.85 24.1,-24.1 v -26.29 c 0,-13.26 -10.83,-24.1 -24.1,-24.1"/><path style="fill:#3a66b9;fill-opacity:1;fill-rule:nonzero;stroke:none" id="path142" d="M 3492.55,2377.52 H 3024.5 c -13.26,0 -24.1,10.84 -24.1,24.1 v 26.29 c 0,13.25 10.84,24.1 24.1,24.1 h 468.05 c 13.25,0 24.1,-10.85 24.1,-24.1 v -26.29 c 0,-13.26 -10.85,-24.1 -24.1,-24.1"/><path style="fill:#3a66b9;fill-opacity:1;fill-rule:nonzero;stroke:none" id="path144" d="m 2719.89,1204.86 h -536.34 c -35.3,0 -64.19,28.89 -64.19,64.2 v 803.36 c 0,35.3 28.89,64.2 64.19,64.2 h 536.34 c 35.32,0 64.2,-28.9 64.2,-64.2 v -803.36 c 0,-35.31 -28.88,-64.2 -64.2,-64.2"/><path style="fill:#2f479c;fill-opacity:1;fill-rule:nonzero;stroke:none" id="path146" d="m 2719.89,1204.86 h -536.34 c -35.3,0 -64.19,28.89 -64.19,64.2 v 746.83 c 12.44,7.97 24.86,16 37.24,24.1 22.95,-35.62 48.29,-68.97 75.71,-99.98 h -24.16 c -6.51,0 -11.84,-5.34 -11.84,-11.85 v -17.58 c 0,-6.52 5.33,-11.84 11.84,-11.84 h 63.28 c 20.96,-20.65 42.92,-40.06 65.74,-58.19 h -129.02 c -6.51,0 -11.84,-5.32 -11.84,-11.84 v -17.59 c 0,-6.51 5.33,-11.84 11.84,-11.84 h 185.75 c 32.9,-21.86 67.18,-41.27 102.65,-58.18 h -35.05 c -6.51,0 -11.84,-5.33 -11.84,-11.84 v -17.59 c 0,-6.51 5.33,-11.83 11.84,-11.83 h 139.07 c 59.41,-19.08 121.01,-31.51 183.52,-36.87 v -393.91 c 0,-20.06 -9.32,-38.04 -23.85,-49.84 -11.04,-8.97 -25.09,-14.36 -40.35,-14.36"/><path style="fill:#f9f8f7;fill-opacity:1;fill-rule:nonzero;stroke:none" id="path148" d="m 2695.29,1998.19 h -487.14 c -6.51,0 -11.84,5.33 -11.84,11.84 v 17.58 c 0,6.52 5.33,11.85 11.84,11.85 h 487.14 c 6.52,0 11.85,-5.33 11.85,-11.85 v -17.58 c 0,-6.51 -5.33,-11.84 -11.85,-11.84"/><path style="fill:#f9f8f7;fill-opacity:1;fill-rule:nonzero;stroke:none" id="path150" d="m 2540.15,1898.74 h -332 c -6.51,0 -11.84,5.32 -11.84,11.84 v 17.58 c 0,6.51 5.33,11.85 11.84,11.85 h 332 c 6.51,0 11.84,-5.34 11.84,-11.85 v -17.58 c 0,-6.52 -5.33,-11.84 -11.84,-11.84"/><path style="fill:#f9f8f7;fill-opacity:1;fill-rule:nonzero;stroke:none" id="path152" d="m 2695.29,1799.28 h -487.14 c -6.51,0 -11.84,5.33 -11.84,11.84 v 17.59 c 0,6.52 5.33,11.84 11.84,11.84 h 487.14 c 6.52,0 11.85,-5.32 11.85,-11.84 v -17.59 c 0,-6.51 -5.33,-11.84 -11.85,-11.84"/><path style="fill:#f9f8f7;fill-opacity:1;fill-rule:nonzero;stroke:none" id="path154" d="m 2389.13,1699.83 h -180.98 c -6.51,0 -11.84,5.33 -11.84,11.84 v 17.59 c 0,6.51 5.33,11.84 11.84,11.84 h 180.98 c 6.51,0 11.84,-5.33 11.84,-11.84 v -17.59 c 0,-6.51 -5.33,-11.84 -11.84,-11.84"/><path style="fill:#f9f8f7;fill-opacity:1;fill-rule:nonzero;stroke:none" id="path156" d="M 2642.48,1699.84 H 2461.5 c -6.51,0 -11.84,5.32 -11.84,11.83 v 17.59 c 0,6.51 5.33,11.84 11.84,11.84 h 180.98 c 6.51,0 11.84,-5.33 11.84,-11.84 v -17.59 c 0,-6.51 -5.33,-11.83 -11.84,-11.83"/><path style="fill:#f9f8f7;fill-opacity:1;fill-rule:nonzero;stroke:none" id="path158" d="m 2695.29,1600.38 h -487.14 c -6.51,0 -11.84,5.32 -11.84,11.84 v 17.59 c 0,6.51 5.33,11.84 11.84,11.84 h 487.14 c 6.52,0 11.85,-5.33 11.85,-11.84 v -17.59 c 0,-6.52 -5.33,-11.84 -11.85,-11.84"/><path style="fill:#f9f8f7;fill-opacity:1;fill-rule:nonzero;stroke:none" id="path160" d="m 2695.29,1500.93 h -487.14 c -6.51,0 -11.84,5.33 -11.84,11.84 v 17.58 c 0,6.52 5.33,11.85 11.84,11.85 h 487.14 c 6.52,0 11.85,-5.33 11.85,-11.85 v -17.58 c 0,-6.51 -5.33,-11.84 -11.85,-11.84"/><path style="fill:#f9f8f7;fill-opacity:1;fill-rule:nonzero;stroke:none" id="path162" d="m 2608.91,1401.48 h -400.76 c -6.51,0 -11.84,5.33 -11.84,11.84 v 17.58 c 0,6.51 5.33,11.84 11.84,11.84 h 400.76 c 6.51,0 11.84,-5.33 11.84,-11.84 v -17.58 c 0,-6.51 -5.33,-11.84 -11.84,-11.84"/><path style="fill:#f9f8f7;fill-opacity:1;fill-rule:nonzero;stroke:none" id="path164" d="m 2395.05,1302.02 h -186.9 c -6.51,0 -11.84,5.33 -11.84,11.85 v 17.58 c 0,6.51 5.33,11.84 11.84,11.84 h 186.9 c 6.51,0 11.84,-5.33 11.84,-11.84 v -17.58 c 0,-6.52 -5.33,-11.85 -11.84,-11.85"/><path style="fill:#3a66b9;fill-opacity:1;fill-rule:nonzero;stroke:none" id="path166" d="m 2864.96,2142.29 h -743.82 l 328.52,-261.69 504.33,-189.72 v 362.37 c 0,48.97 -40.05,89.04 -89.03,89.04"/><path style="fill:#f9f8f7;fill-opacity:1;fill-rule:nonzero;stroke:none" id="path168" d="m 2832.49,1950.3 h -544.33 c -8.13,0 -14.78,6.65 -14.78,14.78 v 27.68 c 0,8.13 6.65,14.78 14.78,14.78 h 544.33 c 8.14,0 14.79,-6.65 14.79,-14.78 v -27.68 c 0,-8.13 -6.65,-14.78 -14.79,-14.78"/><path style="fill:#3a66b9;fill-opacity:1;fill-rule:nonzero;stroke:none" id="path170" d="m 3097.7,1433.94 v 523.14 c 0,39.93 32.67,72.61 72.6,72.61 h 908.53 c 39.93,0 72.61,-32.68 72.61,-72.61 v -523.14 c 0,-39.94 -32.68,-72.6 -72.61,-72.6 H 3170.3 c -39.93,0 -72.6,32.66 -72.6,72.6"/><path style="fill:#3a66b9;fill-opacity:1;fill-rule:nonzero;stroke:none" id="path172" d="m 3263.58,1599.83 v 523.14 c 0,39.94 32.68,72.61 72.61,72.61 h 908.54 c 39.93,0 72.59,-32.67 72.59,-72.61 v -523.14 c 0,-39.94 -32.66,-72.6 -72.59,-72.6 h -908.54 c -39.93,0 -72.61,32.66 -72.61,72.6"/><path style="fill:#87a6dc;fill-opacity:1;fill-rule:nonzero;stroke:none" id="path174" d="m 4244.73,1527.23 h -676.88 c 1.97,25.75 4.04,49.41 5.94,71.24 h 208.52 c 13.64,0 24.8,11.15 24.8,24.79 v 246.81 0 c 0,13.64 -11.16,24.79 -24.8,24.79 H 3658 c 6.38,7.13 12.59,14.56 18.65,22.33 12.48,17.06 24.54,35.57 32.1,59.25 3.71,11.8 6.27,25.22 5.45,40.09 -0.45,7.4 -1.87,15.1 -4.36,22.61 -1.25,3.75 -2.75,7.44 -4.51,11 l -3.72,7.27 c -18.31,35.7 -39.06,70.2 -62.76,102.59 -4.81,6.65 -9.68,13.25 -14.65,19.79 2.12,5.25 4.17,10.5 6.18,15.79 h 614.35 c 39.93,0 72.59,-32.67 72.59,-72.61 v -375.13 -56.96 -91.05 c 0,-39.94 -32.66,-72.6 -72.59,-72.6 m -381.12,251.78 v 0 c 0,-17.79 14.56,-32.35 32.36,-32.35 h 296.83 c 17.79,0 32.35,14.56 32.35,32.35 v 321.99 0 c 0,17.79 -14.56,32.35 -32.35,32.35 h -296.83 c -17.8,0 -32.36,-14.56 -32.36,-32.35 v -321.99 0 m -331.09,101.94 c -0.78,0.95 -2.29,1.5 -4,1.5 -0.35,0 -0.7,-0.02 -1.06,-0.07 l -0.39,-0.05 c -5.94,35.23 -10.76,67.45 -13.8,102.82 28.21,36.85 53.16,75.87 74.68,116.57 18.76,-25.22 36.37,-51.31 52.8,-78.14 l 3.29,-5.34 1.27,-2.21 c 0.75,-1.55 1.34,-3.34 1.74,-5.52 0.87,-4.33 0.77,-10.3 -0.63,-17.02 -2.83,-13.49 -9.53,-29.19 -18.18,-44.19 -8.42,-15.29 -18.64,-30.39 -29.76,-45.02 -2.33,-3.14 -4.71,-6.28 -7.14,-9.42 h -36.55 c -9.74,0 -18.22,-5.69 -22.27,-13.91"/><path style="fill:#3a66b9;fill-opacity:1;fill-rule:nonzero;stroke:none" id="path176" d="M 3863.61,1779.01 V 2101 c 0,17.79 14.56,32.35 32.36,32.35 h 296.83 c 17.79,0 32.35,-14.56 32.35,-32.35 v -321.99 c 0,-17.79 -14.56,-32.35 -32.35,-32.35 h -296.83 c -17.8,0 -32.36,14.56 -32.36,32.35"/><path style="fill:#b1c5ea;fill-opacity:1;fill-rule:nonzero;stroke:none" id="path178" d="m 4192.8,1746.66 h -296.83 c -17.8,0 -32.36,14.56 -32.36,32.35 V 2101 c 0,17.79 14.56,32.35 32.36,32.35 h 296.83 c 17.79,0 32.35,-14.56 32.35,-32.35 v -321.99 c 0,-17.79 -14.56,-32.35 -32.35,-32.35"/><path style="fill:#3a66b9;fill-opacity:1;fill-rule:nonzero;stroke:none" id="path180" d="m 3529.99,1623.26 v 246.81 c 0,13.64 11.16,24.79 24.8,24.79 h 227.52 c 13.64,0 24.8,-11.15 24.8,-24.79 v -246.81 c 0,-13.64 -11.16,-24.79 -24.8,-24.79 h -227.52 c -13.64,0 -24.8,11.15 -24.8,24.79"/><path style="fill:#618bcf;fill-opacity:1;fill-rule:nonzero;stroke:none" id="path182" d="m 3782.31,1598.47 h -208.52 c 9.14,105.17 14.45,168.17 -12.91,221.6 9.19,2.34 19.52,6.22 27.7,12.61 l 0.02,-0.03 c 25.39,18.46 48.32,38.69 69.4,62.21 h 124.31 c 13.64,0 24.8,-11.15 24.8,-24.79 v -246.81 c 0,-13.64 -11.16,-24.79 -24.8,-24.79 m -211.08,271.64 -35.25,5.77 -3.3,4.87 c -0.05,0.07 -0.1,0.14 -0.16,0.2 4.05,8.22 12.53,13.91 22.27,13.91 h 36.55 c -6.5,-8.39 -13.31,-16.71 -20.11,-24.75"/><path style="fill:#3a66b9;fill-opacity:1;fill-rule:nonzero;stroke:none" id="path184" d="m 1079.63,3187.92 v 133.34 c 0,40.58 33.2,73.78 73.78,73.78 h 2441.37 c 40.57,0 73.77,-33.2 73.77,-73.78 v -133.34 c 0,-40.58 -33.2,-73.78 -73.77,-73.78 H 1153.41 c -40.58,0 -73.78,33.2 -73.78,73.78"/><path style="fill:#87a6dc;fill-opacity:1;fill-rule:nonzero;stroke:none" id="path186" d="m 3594.78,3114.14 h -191.86 c -151.95,133.67 -348.21,207.15 -549.53,207.15 -123.45,0 -248.78,-27.64 -366.96,-85.97 -67.05,-33.1 -127.67,-74.06 -181.26,-121.18 h -37.23 c 61.35,57.44 131.4,106.07 207.42,143.59 v 0 0 l -4.42,8.97 c -80.1,-39.54 -153.66,-91.27 -217.54,-152.56 H 1153.41 c -12.45,0 -24.21,3.13 -34.53,8.63 -23.3,12.44 -39.25,37.02 -39.25,65.15 v 133.34 c 0,40.58 33.2,73.78 73.78,73.78 h 2441.37 c 40.57,0 73.77,-33.2 73.77,-73.78 v -133.34 c 0,-40.58 -33.2,-73.78 -73.77,-73.78 m -434.58,176.13 v 0 c 34.54,-13.14 68.52,-28.7 101.04,-46.23 l 4.75,8.79 v 0 c -32.9,17.75 -67.3,33.49 -102.23,46.78 l -3.56,-9.34 v 0"/><path style="fill:#3a66b9;fill-opacity:1;fill-rule:nonzero;stroke:none" id="path188" d="m 2504.16,3067.23 h 702.512 v 96.7266 H 2504.16 Z"/><path style="fill:#3a66b9;fill-opacity:1;fill-rule:nonzero;stroke:none" id="path190" d="m 1331.4,3602.94 v 133.35 c 0,40.57 33.2,73.77 73.78,73.77 h 2441.36 c 40.58,0 73.78,-33.2 73.78,-73.77 v -133.35 c 0,-40.58 -33.2,-73.77 -73.78,-73.77 H 1405.18 c -40.58,0 -73.78,33.19 -73.78,73.77"/><path style="fill:#f3646c;fill-opacity:1;fill-rule:nonzero;stroke:none" id="path192" d="m 1303.58,2332.97 c -8.76,-19.6 -18.51,-41.51 -27.02,-62.67 -8.6,-21.39 -17.23,-42.79 -24.92,-64.37 -15.77,-43.01 -29.2,-86.59 -37.91,-129.33 l -2.91,-15.95 -1.02,-6.06 c -0.31,-1.64 -0.34,-3.91 -0.58,-5.84 -0.46,-8.48 -0.27,-18.74 0.62,-29.24 1.88,-21.13 5.26,-43.7 9.53,-66.33 8.44,-45.29 19.15,-92.01 29.75,-137.93 l -51.3,-20.28 c -23.93,43.88 -44.13,88.41 -60.95,135.97 -8.27,23.81 -15.82,48.18 -21.14,74.63 -2.64,13.28 -5.03,27 -5.64,42.6 -0.06,4.07 -0.28,7.83 -0.11,12.19 0.16,4.25 0.35,9.04 0.71,11.89 l 1.96,19.79 c 3.1,26.13 7.74,51.72 13.73,76.52 5.63,24.99 12.84,49.26 20.49,73.26 7.74,24 16.27,47.57 25.73,70.75 4.69,11.62 9.58,23.13 14.64,34.62 5.05,11.7 10.19,22.52 16.37,34.84 l 99.97,-49.06"/><path style="fill:#f3646c;fill-opacity:1;fill-rule:nonzero;stroke:none" id="path194" d="m 1247.11,1828.71 39.02,-38.07 -85.08,-39.58 c 0,0 -20.65,36.05 -6.4,68.65 l 52.46,9"/><path style="fill:#f3646c;fill-opacity:1;fill-rule:nonzero;stroke:none" id="path196" d="m 1317.56,1733.95 -71.85,-29.42 -44.66,46.53 85.08,39.58 31.43,-56.69"/><path style="fill:#fdfdfd;fill-opacity:1;fill-rule:nonzero;stroke:none" id="path198" d="m 2953.99,1842.75 v 210.5 c 0,43 -30.89,79.14 -71.58,87.31 l 58.57,46.79 h 143.82 c -12.29,-33.18 -20.01,-63.96 -20.01,-63.96 v 0 0 l 26.07,-12.69 c -3.36,-9.11 -6.66,-18.26 -9.9,-27.46 -13.46,-37.77 -25.97,-75.9 -36.24,-115.69 -1.32,-4.93 -2.53,-9.98 -3.69,-15.07 l -1.77,-7.61 -0.94,-4.14 c -0.37,-1.96 -0.78,-3.89 -1.05,-5.9 -2.54,-16.01 0.3,-33.76 6.98,-47.65 3.66,-7.54 7.84,-14.11 12.37,-19.91 -33.87,-11.06 -68.21,-19.2 -102.63,-24.52"/><path style="fill:#f0eded;fill-opacity:1;fill-rule:nonzero;stroke:none" id="path200" d="m 3084.8,2187.35 h -143.82 l 76.11,60.81 h 97.19 c -11.22,-15.83 -21.35,-38.85 -29.48,-60.81"/><path style="fill:#f9f8f7;fill-opacity:1;fill-rule:nonzero;stroke:none" id="path202" d="m 3114.28,2248.16 h -97.19 l 11.48,9.18 h 93.12 c -2.51,-2.67 -4.99,-5.76 -7.41,-9.18"/><path style="fill:#6e96d5;fill-opacity:1;fill-rule:nonzero;stroke:none" id="path204" d="m 3121.69,2257.34 h -93.12 l 150.42,120.18 h 111.59 c 9.3,-29.46 8.8,-59.33 -32.96,-75.27 v 0 c -36.24,-8.14 -75.12,-19.91 -99.27,-27.62 -7.22,-1.69 -15.08,-4.33 -23.84,-7.84 v 0 0 c -4.36,-1.75 -8.64,-5.03 -12.82,-9.45 m 272.96,62.85 v 0 c -14.3,10.46 -21.37,32.21 -24.55,57.33 h 122.45 c 2.51,0 4.93,0.39 7.21,1.11 -3.31,-19.05 -7.47,-37.94 -12.44,-56.58 -9.12,0.29 -19.5,0.49 -30.67,0.49 -19.11,0 -40.54,-0.59 -62,-2.35 v 0 m 113.31,126.21 c -4.18,3.5 -9.56,5.61 -15.41,5.61 h -123.76 c 0.59,11.41 1.33,21.9 1.88,30.64 l -27.91,-30.64 h -70.53 l 222.34,177.64 c 10.05,-46.09 14.93,-92.61 14.92,-138.8 0,-14.85 -0.52,-29.69 -1.53,-44.45"/><path style="fill:#b0c3e8;fill-opacity:1;fill-rule:nonzero;stroke:none" id="path206" d="M 3492.55,2377.52 H 3370.1 c -3.04,24.05 -2.5,51.2 -1.31,74.49 h 123.76 c 5.85,0 11.23,-2.11 15.41,-5.61 -1.55,-22.78 -4.3,-45.38 -8.2,-67.77 -2.28,-0.72 -4.7,-1.11 -7.21,-1.11 m -201.97,0 h -111.59 l 93.24,74.49 h 70.53 l -56.6,-62.13 c 1.61,-4.09 3.11,-8.22 4.42,-12.36"/><path style="fill:#6285bd;fill-opacity:1;fill-rule:nonzero;stroke:none" id="path208" d="m 2854.58,1835.12 c -96.25,0 -191.02,21.28 -277.46,61.53 l 67.15,53.65 h 188.22 c 8.14,0 14.79,6.65 14.79,14.78 v 27.68 c 0,8.13 -6.65,14.78 -14.79,14.78 h -116.57 l 166.49,133.02 c 40.69,-8.17 71.58,-44.31 71.58,-87.31 v -210.5 c -33.13,-5.12 -66.35,-7.63 -99.41,-7.63"/><path style="fill:#f9f8f7;fill-opacity:1;fill-rule:nonzero;stroke:none" id="path210" d="m 2832.49,1950.3 h -188.22 l 71.65,57.24 h 116.57 c 8.14,0 14.79,-6.65 14.79,-14.78 v -27.68 c 0,-8.13 -6.65,-14.78 -14.79,-14.78"/><path style="fill:#fdfdfd;fill-opacity:1;fill-rule:nonzero;stroke:none" id="path212" d="m 2370.46,2142.29 h -71.52 c -11.7,18.68 -22.55,38.1 -32.51,58.28 -3.92,7.94 -7.67,15.93 -11.24,23.95 l 41.09,32.84 c 0.78,-0.02 1.56,-0.02 2.34,-0.02 h 126.09 v -71.71 l -54.25,-43.34 m 56.75,45.34 v 69.71 h 87.24 l -87.24,-69.71"/><path style="fill:#e4e2e0;fill-opacity:1;fill-rule:nonzero;stroke:none" id="path214" d="m 2424.71,2185.63 v 71.71 h 2.5 v -69.71 l -2.5,-2"/><path style="fill:#f9f8f7;fill-opacity:1;fill-rule:nonzero;stroke:none" id="path216" d="m 3303.16,2923.31 h -173.43 l 116.09,92.77 c 19.93,-14.84 39.08,-30.86 57.34,-48.04 v -44.73"/><path style="fill:#e4e2e0;fill-opacity:1;fill-rule:nonzero;stroke:none" id="path218" d="m 3335.03,2923.31 h -31.87 v 44.73 c 10.94,-10.29 21.59,-21.02 31.87,-32.13 v -12.6"/><path style="fill:#f0eded;fill-opacity:1;fill-rule:nonzero;stroke:none" id="path220" d="m 3346.38,2923.31 h -11.35 v 12.6 c 3.84,-4.15 7.61,-8.34 11.35,-12.6"/><path style="fill:#6e96d5;fill-opacity:1;fill-rule:nonzero;stroke:none" id="path222" d="m 2514.45,2257.34 h -215.83 c -0.78,0 -1.56,0 -2.34,0.02 l 150.38,120.16 h 218.2 l -150.41,-120.18 m 243.63,194.67 h -218.19 l 131.42,105.01 h 218.2 l -131.43,-105.01 m 224.65,179.5 h -218.2 l 131.42,105 h 218.2 l -131.42,-105 M 3207.37,2811 h -218.2 l 140.56,112.31 h 173.43 31.87 11.35 c 0.21,-0.24 0.43,-0.49 0.64,-0.72 L 3207.37,2811"/><path style="fill:#b0c3e8;fill-opacity:1;fill-rule:nonzero;stroke:none" id="path224" d="m 3114.15,2736.51 h -218.2 l 93.22,74.49 h 218.2 l -93.22,-74.49"/><path style="fill:#b0c3e8;fill-opacity:1;fill-rule:nonzero;stroke:none" id="path226" d="m 2889.51,2557.02 h -218.2 l 93.22,74.49 h 218.2 l -93.22,-74.49"/><path style="fill:#b0c3e8;fill-opacity:1;fill-rule:nonzero;stroke:none" id="path228" d="m 2664.86,2377.52 h -218.2 l 93.23,74.49 h 218.19 l -93.22,-74.49"/><path style="fill:#6285bd;fill-opacity:1;fill-rule:nonzero;stroke:none" id="path230" d="m 2323.98,2105.15 c -8.71,12 -17.08,24.41 -25.04,37.14 h 71.52 l -46.48,-37.14"/><path style="fill:#fdfdfd;fill-opacity:1;fill-rule:nonzero;stroke:none" id="path232" d="m 2770.43,2923.31 h -222.88 v 143.92 h 285.78 v -93.66 l -62.9,-50.26 m -225.38,0 h -117.84 v 64.75 c 34.9,29.9 73.47,56.53 115.44,79.17 h 2.4 v -143.92 m -120.34,0 h -63.04 c 19.42,22.12 40.46,43.05 63.04,62.6 v -62.6"/><path style="fill:#e4e2e0;fill-opacity:1;fill-rule:nonzero;stroke:none" id="path234" d="m 2427.21,2923.31 h -2.5 v 62.6 c 0.83,0.72 1.66,1.44 2.5,2.15 v -64.75"/><path style="fill:#e4e2e0;fill-opacity:1;fill-rule:nonzero;stroke:none" id="path236" d="m 2545.05,2923.31 h 2.5 v 143.914 h -2.5 z"/><path style="fill:#e4e2e0;fill-opacity:1;fill-rule:nonzero;stroke:none" id="path238" d="m 2833.33,2973.57 v 93.66 h 33.5 v -66.89 l -33.5,-26.77"/><path style="fill:#f0eded;fill-opacity:1;fill-rule:nonzero;stroke:none" id="path240" d="m 2866.83,3000.34 v 66.89 h 60.1 v -18.87 l -60.1,-48.02"/><path style="fill:#f9f8f7;fill-opacity:1;fill-rule:nonzero;stroke:none" id="path242" d="m 2926.93,3048.36 v 18.87 h 23.61 l -23.61,-18.87"/><path style="fill:#6e96d5;fill-opacity:1;fill-rule:nonzero;stroke:none" id="path244" d="m 2199.01,2466.73 c -0.28,7.88 -0.42,15.77 -0.42,23.63 0.06,158.58 57.89,313.17 163.08,432.95 h 63.04 2.5 117.84 2.5 222.88 L 2629.87,2811 H 2328.2 c -13.25,0 -24.1,-10.84 -24.1,-24.1 v -26.29 0 c 0,-13.25 10.85,-24.1 24.1,-24.1 h 208.45 l -131.42,-105 h -77.03 c -13.25,0 -24.1,-10.85 -24.1,-24.1 v -26.3 0 c 0,-8.85 4.84,-16.63 12.01,-20.82 l -117.1,-93.56"/><path style="fill:#b0c3e8;fill-opacity:1;fill-rule:nonzero;stroke:none" id="path246" d="M 2536.65,2736.51 H 2328.2 c -13.25,0 -24.1,10.85 -24.1,24.1 v 26.29 c 0,13.26 10.85,24.1 24.1,24.1 h 301.67 l -93.22,-74.49"/><path style="fill:#b0c3e8;fill-opacity:1;fill-rule:nonzero;stroke:none" id="path248" d="m 2316.11,2560.29 c -7.17,4.19 -12.01,11.97 -12.01,20.82 v 26.3 c 0,13.25 10.85,24.1 24.1,24.1 h 77.03 l -89.12,-71.22"/><path style="fill:#fdfdfd;fill-opacity:1;fill-rule:nonzero;stroke:none" id="path250" d="m 3139.26,2022.67 c 6.52,17.45 13.25,34.92 20.07,52.37 2.41,-10.02 5.01,-20.57 7.8,-31.67 1.13,-4.47 2.29,-9.03 3.48,-13.68 h -0.31 c -11.09,0 -21.62,-2.52 -31.04,-7.02"/><path style="fill:#6e96d5;fill-opacity:1;fill-rule:nonzero;stroke:none" id="path252" d="m 3119.97,1891.63 c -7.7,7.62 -13.27,15.39 -14.82,21.31 -1.13,4.25 -0.94,6.89 -0.03,10.37 l 3.4,11.1 c 1.33,4.47 2.72,8.95 4.26,13.48 8.21,24.84 17.13,49.8 26.48,74.78 9.42,4.5 19.95,7.02 31.04,7.02 h 0.31 c 4.07,-15.88 8.54,-32.85 13.43,-50.92 0.55,-2.03 1.1,-4.09 1.66,-6.15 v 0.01 c 3.53,-12.95 7.26,-26.44 11.23,-40.56 -16.98,-10.4 -34.59,-20.12 -52.8,-29.11 -8,-3.95 -16.08,-7.74 -24.16,-11.33"/><path style="fill:#b0c3e8;fill-opacity:1;fill-rule:nonzero;stroke:none" id="path254" d="m 2950.54,3067.23 h -407.89 c 7.02,3.78 14.11,7.45 21.32,11 93.25,46.03 192.17,67.84 289.56,67.84 57.07,0 113.6,-7.48 168.2,-21.96 l -71.19,-56.88"/><path style="fill:#fbfafa;fill-opacity:1;fill-rule:nonzero;stroke:none" id="path256" d="m 2255.19,2224.52 c -7.07,15.88 -13.44,31.87 -19.16,48 18.14,-9.36 38.61,-14.8 60.25,-15.16 l -41.09,-32.84 m 578.14,698.79 h -62.9 l 62.9,50.26 v -50.26"/><path style="fill:#ebe9e8;fill-opacity:1;fill-rule:nonzero;stroke:none" id="path258" d="m 2866.83,2923.31 h -33.5 v 50.26 l 33.5,26.77 v -77.03"/><path style="fill:#f2f0f0;fill-opacity:1;fill-rule:nonzero;stroke:none" id="path260" d="m 2926.93,2923.31 h -60.1 v 77.03 l 60.1,48.02 v -125.05"/><path style="fill:#f9f8f7;fill-opacity:1;fill-rule:nonzero;stroke:none" id="path262" d="m 3129.73,2923.31 h -202.8 v 125.05 l 23.61,18.87 h 214.97 c 27.88,-15.03 54.73,-32.11 80.31,-51.15 l -116.09,-92.77"/><path style="fill:#a1b8e4;fill-opacity:1;fill-rule:nonzero;stroke:none" id="path264" d="m 2296.28,2257.36 c -21.64,0.36 -42.11,5.8 -60.25,15.16 -22.58,63.74 -34.68,129.18 -37.02,194.21 l 117.1,93.56 c 3.56,-2.08 7.69,-3.27 12.09,-3.27 h 343.11 L 2539.89,2452.01 H 2328.2 c -13.25,0 -24.1,-10.85 -24.1,-24.1 v -26.29 0 c 0,-13.26 10.85,-24.1 24.1,-24.1 h 118.46 l -150.38,-120.16 m 468.25,374.15 h -359.3 l 131.42,105 h 359.3 l -131.42,-105 M 2989.17,2811 h -359.3 l 140.56,112.31 h 62.9 33.5 60.1 202.8 L 2989.17,2811"/><path style="fill:#cbd7f0;fill-opacity:1;fill-rule:nonzero;stroke:none" id="path266" d="m 2895.95,2736.51 h -359.3 l 93.22,74.49 h 359.3 l -93.22,-74.49"/><path style="fill:#cbd7f0;fill-opacity:1;fill-rule:nonzero;stroke:none" id="path268" d="M 2671.31,2557.02 H 2328.2 c -4.4,0 -8.53,1.19 -12.09,3.27 l 89.12,71.22 h 359.3 l -93.22,-74.49"/><path style="fill:#cbd7f0;fill-opacity:1;fill-rule:nonzero;stroke:none" id="path270" d="M 2446.66,2377.52 H 2328.2 c -13.25,0 -24.1,10.84 -24.1,24.1 v 26.29 c 0,13.25 10.85,24.1 24.1,24.1 h 211.69 l -93.23,-74.49"/><path style="fill:#cbd7f0;fill-opacity:1;fill-rule:nonzero;stroke:none" id="path272" d="m 3165.51,3067.23 h -214.97 l 71.19,56.88 c 49.93,-13.23 98.21,-32.32 143.78,-56.88"/><path style="fill:#fbfafa;fill-opacity:1;fill-rule:nonzero;stroke:none" id="path274" d="m 2882.41,2140.56 c -5.65,1.13 -11.48,1.73 -17.45,1.73 h -317.41 v 115.05 h 285.78 v -69.99 h 33.5 74.15 l -58.57,-46.79 m -337.36,1.73 h -117.84 v 45.34 l 87.24,69.71 h 30.6 v -115.05 m -120.34,0 h -54.25 l 54.25,43.34 v -43.34"/><path style="fill:#ebe9e8;fill-opacity:1;fill-rule:nonzero;stroke:none" id="path276" d="m 2427.21,2142.29 h -2.5 v 43.34 l 2.5,2 v -45.34"/><path style="fill:#ebe9e8;fill-opacity:1;fill-rule:nonzero;stroke:none" id="path278" d="m 2545.05,2142.29 h 2.5 v 115.051 h -2.5 z"/><path style="fill:#ebe9e8;fill-opacity:1;fill-rule:nonzero;stroke:none" id="path280" d="m 2833.33,2187.35 h 33.5 v 69.9883 h -33.5 z"/><path style="fill:#f2f0f0;fill-opacity:1;fill-rule:nonzero;stroke:none" id="path282" d="m 2940.98,2187.35 h -74.15 v 69.99 h 60.1 v -9.18 h 90.16 l -76.11,-60.81"/><path style="fill:#f9f8f7;fill-opacity:1;fill-rule:nonzero;stroke:none" id="path284" d="m 3017.09,2248.16 h -90.16 v 9.18 h 101.64 l -11.48,-9.18"/><path style="fill:#a1b8e4;fill-opacity:1;fill-rule:nonzero;stroke:none" id="path286" d="m 3028.57,2257.34 h -514.12 l 150.41,120.18 h 225.01 c 13.27,0 24.1,10.84 24.1,24.1 v 26.29 0 c 0,13.25 -10.83,24.1 -24.1,24.1 h -131.79 l 131.43,105.01 h 206.22 c 13.25,0 24.09,10.84 24.09,24.09 v 26.3 0 c 0,13.25 -10.84,24.1 -24.09,24.1 h -113 l 131.42,105 h 337.4 c 3.25,0 6.35,0.65 9.18,1.83 14.62,-35.7 25.86,-72.07 33.84,-108.69 L 3272.23,2452.01 H 3024.5 c -13.26,0 -24.1,-10.85 -24.1,-24.1 v -26.29 0 c 0,-13.26 10.84,-24.1 24.1,-24.1 h 154.49 L 3028.57,2257.34 M 3425.69,2811 h -218.32 l 139.65,111.59 c 29.55,-33.77 55.98,-71.04 78.67,-111.59"/><path style="fill:#cbd7f0;fill-opacity:1;fill-rule:nonzero;stroke:none" id="path288" d="m 3451.55,2736.51 h -337.4 l 93.22,74.49 h 218.32 c 5.54,-9.91 10.86,-20.01 15.94,-30.31 6.91,-14.01 13.27,-28.12 19.1,-42.35 -2.83,-1.18 -5.93,-1.83 -9.18,-1.83"/><path style="fill:#cbd7f0;fill-opacity:1;fill-rule:nonzero;stroke:none" id="path290" d="m 3095.73,2557.02 h -206.22 l 93.22,74.49 h 113 c 13.25,0 24.09,-10.85 24.09,-24.1 v -26.3 c 0,-13.25 -10.84,-24.09 -24.09,-24.09"/><path style="fill:#cbd7f0;fill-opacity:1;fill-rule:nonzero;stroke:none" id="path292" d="m 2889.87,2377.52 h -225.01 l 93.22,74.49 h 131.79 c 13.27,0 24.1,-10.85 24.1,-24.1 v -26.29 c 0,-13.26 -10.83,-24.1 -24.1,-24.1"/><path style="fill:#cbd7f0;fill-opacity:1;fill-rule:nonzero;stroke:none" id="path294" d="M 3178.99,2377.52 H 3024.5 c -13.26,0 -24.1,10.84 -24.1,24.1 v 26.29 c 0,13.25 10.84,24.1 24.1,24.1 h 247.73 l -93.24,-74.49"/><path style="fill:#9caecf;fill-opacity:1;fill-rule:nonzero;stroke:none" id="path296" d="m 2577.12,1896.65 c -32.68,15.21 -64.17,33.14 -94.09,53.65 h 161.24 l -67.15,-53.65 m 138.8,110.89 h -304.93 c -31.83,29.18 -61.01,61.76 -87.01,97.61 l 46.48,37.14 h 494.5 c 5.97,0 11.8,-0.6 17.45,-1.73 l -166.49,-133.02"/><path style="fill:#f9f8f7;fill-opacity:1;fill-rule:nonzero;stroke:none" id="path298" d="m 2644.27,1950.3 h -161.24 c -25.19,17.27 -49.29,36.38 -72.04,57.24 h 304.93 l -71.65,-57.24"/><path style="fill:#3a66b9;fill-opacity:1;fill-rule:nonzero;stroke:none" id="path300" d="m 3261.24,3244.04 c -32.52,17.53 -66.5,33.09 -101.04,46.23 l 3.56,9.34 c 34.93,-13.29 69.33,-29.03 102.23,-46.78 l -4.75,-8.79 m -1095.97,-245.32 -8.06,5.92 c 81.04,110.13 189.53,200.75 313.73,262.06 l 4.42,-8.97 c -122.77,-60.6 -230,-150.17 -310.09,-259.01 m -121.41,-233.43 -9.47,3.21 c 16.5,48.67 37.28,95.96 61.78,140.54 l 8.76,-4.82 c -24.21,-44.07 -44.75,-90.81 -61.07,-138.93"/><path style="fill:#3150aa;fill-opacity:1;fill-rule:nonzero;stroke:none" id="path302" d="m 2043.86,2765.29 -9.47,3.21 c 16.5,48.67 37.28,95.96 61.78,140.54 l 8.76,-4.82 c -24.21,-44.07 -44.75,-90.81 -61.07,-138.93"/><path style="fill:#3150aa;fill-opacity:1;fill-rule:nonzero;stroke:none" id="path304" d="m 2165.27,2998.72 -8.06,5.92 c 81.04,110.13 189.53,200.75 313.73,262.06 l 4.42,-8.97 c -76.02,-37.52 -146.07,-86.15 -207.42,-143.59 v 0 c -37.73,-35.32 -72.17,-73.98 -102.67,-115.42"/><path style="fill:#3150aa;fill-opacity:1;fill-rule:nonzero;stroke:none" id="path306" d="m 3261.24,3244.04 c -32.52,17.53 -66.5,33.09 -101.04,46.23 l 3.56,9.34 c 34.93,-13.29 69.33,-29.03 102.23,-46.78 l -4.75,-8.79"/><path style="fill:#3a66b9;fill-opacity:1;fill-rule:nonzero;stroke:none" id="path308" d="m 3144.13,1902.96 c -324.56,-160.22 -717.48,-26.94 -877.7,297.61 -160.18,324.48 -27.02,717.45 297.54,877.66 324.57,160.21 717.48,26.94 877.66,-297.54 160.22,-324.56 27.05,-717.52 -297.5,-877.73 m 454.59,955.27 c -203.02,411.27 -701.02,580.1 -1112.29,377.09 -382.35,-188.74 -554.96,-632.42 -414.24,-1024.36 -66.81,-23.44 -132.78,-48.58 -198.39,-74.44 -94.59,-37.47 -188.24,-76.83 -281.21,-117.6 -92.77,-41.15 -185.18,-83.03 -276.64,-126.83 -45.96,-21.45 -91.28,-44.18 -136.95,-66.2 -23.12,-10.45 -44.76,-23.88 -63.38,-43.44 -9.37,-9.65 -17.95,-20.91 -25.73,-33.79 -7.68,-13.07 -14.74,-27.4 -19.57,-46.25 -15.38,-59.79 14.75,-123.51 73.29,-148.47 17.9,-7.63 33.57,-10.74 48.62,-12.59 14.96,-1.66 29.11,-1.69 42.47,-0.13 26.85,2.89 50.67,11.91 73.02,23.9 45.26,22.86 90.86,45.02 135.83,68.46 90.4,45.96 179.84,93.85 268.93,142.48 88.9,49 177.1,99.4 264.37,151.7 60.43,36.37 120.51,73.45 179.75,112.23 225.59,-350.08 682.75,-482.85 1065.07,-294.12 411.27,203.01 580.1,701.02 377.05,1112.36"/><path style="fill:#3150aa;fill-opacity:1;fill-rule:nonzero;stroke:none" id="path310" d="m 1214.57,1540.08 c -7.23,0 -14.68,0.42 -22.34,1.27 -15.05,1.85 -30.72,4.96 -48.62,12.59 -48.37,20.62 -77.34,67.7 -77.27,117.16 0.01,10.41 1.31,20.92 3.98,31.31 4.83,18.85 11.89,33.18 19.57,46.25 7.78,12.88 16.36,24.14 25.73,33.79 18.62,19.56 40.26,32.99 63.38,43.44 25.36,12.23 50.62,24.68 75.94,37.01 -1.57,-28.12 -2.61,-49.04 -2.08,-60.91 57.61,0 274.54,0 392.93,0 13.2,97.73 21.55,180.84 26.34,251.38 66.81,28.57 134,56.34 201.67,83.15 65.61,25.86 131.58,51 198.39,74.44 v 0 0 c -32.84,91.48 -48.62,185.77 -48.64,278.99 -0.08,306.17 169.77,600.68 462.88,745.37 118.18,58.33 243.51,85.97 366.96,85.97 306.15,0 600.65,-169.97 745.33,-463.06 58.4,-118.3 86.03,-243.77 85.99,-367.32 -0.01,-42.93 -3.37,-85.62 -9.94,-127.7 -6.08,-38.97 -14.91,-77.43 -26.4,-115.05 -7.06,-23.13 -15.13,-45.94 -24.17,-68.37 -4.16,5.47 -8.4,10.89 -12.73,16.24 l 12.02,9.22 v 0 c 0,0 -59.44,111.09 -98.48,114.82 -0.54,0.05 -1.08,0.09 -1.62,0.13 -4.45,0.34 -17.72,1.27 -36.07,1.85 14.6,54.78 22.15,111.53 22.17,168.8 0.02,82.87 -15.74,166.85 -48.76,247.49 -5.83,14.23 -12.19,28.34 -19.1,42.35 -5.08,10.3 -10.4,20.4 -15.94,30.31 -46.2,82.6 -108.01,151.59 -179.87,205.08 -25.58,19.04 -52.43,36.12 -80.31,51.15 -45.57,24.56 -93.85,43.65 -143.78,56.88 -54.6,14.48 -111.13,21.96 -168.2,21.96 -97.39,0 -196.31,-21.81 -289.56,-67.84 -7.21,-3.55 -14.3,-7.22 -21.32,-11 v 0 c -41.97,-22.64 -80.54,-49.27 -115.44,-79.17 -0.84,-0.71 -1.67,-1.43 -2.5,-2.15 -144.9,-125.43 -226.05,-307.7 -226.12,-495.55 -0.03,-97.48 21.77,-196.47 67.84,-289.79 114.19,-231.31 346.55,-365.45 588.15,-365.45 67.41,0 135.56,10.45 202.04,32.15 12.4,-15.88 27.4,-26.03 41.46,-34.64 39.68,-22.2 79.11,-33.04 120.87,-39.46 l 4.48,18.44 c 0.28,-1.17 1.53,-2.03 3.18,-2.33 -2.02,-13.41 -5.39,-36.13 -9.64,-65.71 -39.1,-19.01 -78.96,-34.66 -119.27,-47.08 -6.34,-1.95 -12.67,-3.82 -19.03,-5.61 -8.99,-2.54 -18.01,-4.92 -27.04,-7.13 -17.74,-4.36 -35.5,-8.11 -53.33,-11.26 -47.74,-8.43 -95.72,-12.56 -143.42,-12.55 -23.69,0 -47.3,1.01 -70.79,3.03 -62.51,5.36 -124.11,17.79 -183.52,36.87 -139.96,44.93 -267.98,126.79 -368.26,240.17 -27.42,31.01 -52.76,64.36 -75.71,99.98 -12.38,-8.1 -24.8,-16.13 -37.24,-24.1 -47.12,-30.15 -94.71,-59.36 -142.51,-88.13 -87.27,-52.3 -175.47,-102.7 -264.37,-151.7 -18.01,-9.83 -36.02,-19.62 -54.06,-29.38 -7.76,34.67 -12.63,55.31 -12.63,55.31 h -139.38 v 0 c 0,0 -162.03,0 -253.55,0 v 0 0 c 0,-73.12 10.67,-159.32 22.69,-251.31 -12.91,-4.59 -26.44,-7.91 -40.85,-9.46 -6.52,-0.76 -13.23,-1.14 -20.13,-1.14 m 2003.57,294.05 c -31.27,13.25 -62.92,28.82 -87.09,47.82 -3.99,3.09 -7.74,6.37 -11.08,9.68 8.08,3.59 16.16,7.38 24.16,11.33 18.21,8.99 35.82,18.71 52.8,29.11 7.74,-27.52 16.36,-57.32 25.93,-89.55 l -1,-0.13 c -2.72,-0.35 -4.75,-1.96 -4.75,-3.65 0,-0.16 0.02,-0.31 0.06,-0.47 l 0.97,-4.14 m 295.13,151.02 c -2.28,26.54 -3.57,54.86 -3.57,87.56 0,21.08 0.53,43.99 1.66,69.42 7.95,-7.82 13.43,-12.63 13.43,-12.63 l 0.01,0.02 v 0 l 1.59,1.21 23.88,18.33 c 9.5,-11.21 18.91,-22.57 27.83,-34.32 3.31,-4.32 6.6,-8.66 9.85,-13.02 -21.52,-40.7 -46.47,-79.72 -74.68,-116.57"/><path style="fill:#242d38;fill-opacity:1;fill-rule:nonzero;stroke:none" id="path312" d="m 1580.22,2690.12 c -0.01,-5.93 3.13,-10.73 7,-10.74 3.87,0 7.02,4.8 7.02,10.72 0.01,5.93 -3.13,10.74 -7,10.74 -3.87,0.01 -7.02,-4.8 -7.02,-10.72"/><path style="fill:#ef344d;fill-opacity:1;fill-rule:nonzero;stroke:none" id="path314" d="m 1582.8,2679.39 c 0,0 13.45,-34.2 28.27,-50.71 -10.49,-9.77 -28.31,-5.29 -28.31,-5.29 l 0.04,56"/><path style="fill:#242d38;fill-opacity:1;fill-rule:nonzero;stroke:none" id="path316" d="m 1559.25,2722.97 c -1.08,0 -2.15,0.5 -2.83,1.45 -1.12,1.56 -0.77,3.74 0.8,4.86 15.62,11.24 30.67,5.6 31.31,5.35 1.79,-0.69 2.68,-2.71 1.98,-4.5 -0.69,-1.78 -2.7,-2.68 -4.49,-1.98 -0.58,0.21 -12.32,4.42 -24.74,-4.53 l -2.03,-0.65"/><path style="fill:#f3646c;fill-opacity:1;fill-rule:nonzero;stroke:none" id="path318" d="m 1377.96,2645.44 c 10.54,-53.74 21.05,-152.22 -16.55,-188.08 0,0 14.69,-54.52 114.56,-54.52 109.81,0 52.48,54.51 52.48,54.51 -59.93,14.32 -58.39,58.78 -47.95,100.54 l -102.54,87.55"/><path style="fill:#3a66b9;fill-opacity:1;fill-rule:nonzero;stroke:none" id="path320" d="m 1316.52,2429.25 c 11.86,18.51 -8.16,63.33 -8.16,63.33 0,0 176.89,44.52 249.16,-23.75 15,-14.16 -1.66,-34.93 -1.66,-34.93 l -239.34,-4.65"/><path style="fill:#375fb5;fill-opacity:1;fill-rule:nonzero;stroke:none" id="path322" d="m 1563.73,2453.02 c -11.31,1.71 -23.22,3.23 -35.28,4.33 -19.46,1.78 -44.46,2.46 -70.64,2.46 -33.21,0 -68.32,-1.1 -96.4,-2.45 -14.01,-0.68 -28.18,-1.85 -41.76,-3.27 -2.45,18.71 -11.29,38.49 -11.29,38.49 0,0 56.67,14.27 118.96,14.27 47.77,0 98.84,-8.39 130.2,-38.02 4.66,-4.4 6.27,-9.43 6.27,-14.28 -0.01,-0.52 -0.02,-1.03 -0.06,-1.53"/><path style="fill:#3a66b9;fill-opacity:1;fill-rule:nonzero;stroke:none" id="path324" d="m 1000.83,409.082 c 7.32,-8.402 18.97,-17.852 24.01,-16.652 0.48,0.121 1.96,0.468 2.56,3.679 0.26,1.371 -0.07,2.633 -1,3.852 -3.97,5.211 -17.36,8.008 -25.57,9.121 z m 23.15,-20.211 c -9.32,0 -24.195,15.559 -28.582,21.371 l -0.132,1.879 1.664,0.899 c 1.039,-0.09 25.56,-2.2 32.24,-10.95 1.53,-2.011 2.09,-4.238 1.65,-6.601 -0.83,-4.489 -3.28,-5.969 -5.19,-6.43 l -1.65,-0.168"/><path style="fill:#3a66b9;fill-opacity:1;fill-rule:nonzero;stroke:none" id="path326" d="m 1000.65,412.621 c 9.44,-0.371 24.45,3.109 26.81,7.449 0.21,0.391 0.72,1.321 -0.86,2.969 -1.21,1.27 -2.72,1.883 -4.63,1.883 h -0.01 c -6.6,0 -16.05,-7.43 -21.31,-12.301 z m 1.22,-3.473 c -2.089,0 -3.944,0.141 -5.409,0.422 l -1.332,1.18 0.402,1.73 c 0.625,0.661 15.409,15.93 26.429,15.93 h 0.01 c 2.87,-0.012 5.28,-1.012 7.15,-2.969 2.9,-3.043 2.12,-5.711 1.39,-7.043 -3.3,-6.058 -18.63,-9.25 -28.64,-9.25"/><path style="fill:#3a66b9;fill-opacity:1;fill-rule:nonzero;stroke:none" id="path328" d="m 1666.97,166.582 c 13.66,-1.941 32.24,-1.82 35.68,2.918 0.44,0.621 0.89,1.68 -0.35,3.852 -0.68,1.199 -1.8,2 -3.41,2.429 -7.51,2.071 -22.95,-4.601 -31.92,-9.199 z m 16.91,-4.652 c -8.78,0 -17.84,1.14 -22.53,2.062 l -1.38,1.43 0.85,1.789 c 1.08,0.629 26.72,15.289 38.98,11.93 2.51,-0.68 4.37,-2.051 5.52,-4.071 2.06,-3.59 1.22,-6.121 0.15,-7.601 -3.05,-4.239 -12.16,-5.539 -21.59,-5.539"/><path style="fill:#3a66b9;fill-opacity:1;fill-rule:nonzero;stroke:none" id="path330" d="m 1679.61,193.742 c -2.2,0 -4.19,-0.742 -6.04,-2.262 -6.14,-5.039 -8.76,-16.878 -9.7,-22.648 9.05,5.438 20.99,17.918 20.18,22.906 -0.06,0.403 -0.26,1.633 -3.39,1.953 z m -17.92,-29.773 -1.02,0.32 -0.71,1.582 c 0.08,0.84 2.06,20.621 11.4,28.301 2.85,2.34 6.1,3.348 9.65,2.976 4.78,-0.476 6.16,-2.91 6.48,-4.847 1.34,-8.309 -16.22,-24.199 -25.09,-28.192 l -0.71,-0.14"/><path style="fill:#f3646c;fill-opacity:1;fill-rule:nonzero;stroke:none" id="path332" d="m 1580.91,165.699 h 73.46 l 7.32,170.133 h -73.47 l -7.31,-170.133"/><path style="fill:#f3646c;fill-opacity:1;fill-rule:nonzero;stroke:none" id="path334" d="M 926.348,457.742 987.793,417.48 1123.39,532.02 1061.94,572.289 926.348,457.742"/><path style="fill:#242d38;fill-opacity:1;fill-rule:nonzero;stroke:none" id="path336" d="m 997.934,421.34 -63.836,52.301 c -2.321,1.91 -5.657,1.949 -8.02,0.089 l -52.609,-41.32 c -5.457,-4.269 -5.403,-12.609 0.043,-16.91 22.597,-17.879 34.496,-25.449 62.574,-48.449 17.269,-14.16 60.219,-57.301 84.064,-76.84 23.33,-19.129 46.3,1.48 38.28,11.621 -35.93,45.449 -50.44,84.367 -54.13,108.449 -0.67,4.348 -2.96,8.278 -6.366,11.059"/><path style="fill:#242d38;fill-opacity:1;fill-rule:nonzero;stroke:none" id="path338" d="m 1653.89,174.211 h -80.23 c -3,0 -5.6,-2.09 -6.25,-5.02 l -14.51,-65.293 c -1.51,-6.7769 3.63,-13.1988 10.56,-13.066 28.94,0.4883 70.76,2.1875 107.14,2.1875 42.53,0 79.26,-2.3281 129.14,-2.3281 30.15,0 38.53,30.4886 25.9,33.2576 -57.47,12.563 -104.39,13.91 -154.06,44.539 -5.39,3.332 -11.35,5.723 -17.69,5.723"/><path style="fill:#242d38;fill-opacity:1;fill-rule:nonzero;stroke:none" id="path340" d="m 1216.61,2435.4 c -63.72,-30.5 -99.6,-230.97 -99.6,-230.97 l 155.71,-62.14 c 0,0 35.04,82.98 55.06,171.53 20.98,92.77 -46.02,152.77 -111.17,121.58"/><path style="fill:#272d49;fill-opacity:1;fill-rule:nonzero;stroke:none" id="path342" d="m 1299.2,2322.32 c -38.5,-39 -56.1,-115.41 -63.8,-165.1 l 37.3,-14.9 c 0,0 33.8,79.9 54,166.49 -3.3,21.21 -11.5,29.71 -27.5,13.51"/><path style="fill:#242d38;fill-opacity:1;fill-rule:nonzero;stroke:none" id="path344" d="m 1641.45,2436.96 c 0,0 78.18,-88.31 4.34,-634.97 -118.39,0 -335.32,0 -392.93,0 -2.7,60.32 35.19,354.56 -22.98,638.76 0,0 67.35,13.52 131.53,16.61 50.21,2.42 122.9,4.02 167.04,-0.01 58.19,-5.3 113,-20.39 113,-20.39"/><path style="fill:#272d49;fill-opacity:1;fill-rule:nonzero;stroke:none" id="path346" d="m 1677.3,2224.82 -66.2,114.1 c -12.8,-62.5 -18.24,-101.15 -15.54,-162.75 1.79,-39.2 37.74,-184.35 69.84,-205.55 10.1,106.7 13,189.8 11.9,254.2"/><path style="fill:#f3646c;fill-opacity:1;fill-rule:nonzero;stroke:none" id="path348" d="m 1686.47,2358.93 c 9.78,-48.62 20.11,-98.37 30.73,-147.25 10.61,-48.99 21.76,-97.78 34.67,-145.11 3.34,-11.65 6.44,-23.61 10.12,-34.88 l 2.67,-8.58 1.33,-4.29 -0.46,0.52 c -0.77,0.87 -1.56,0.96 -0.96,0.06 0.79,-2 7.07,-6.34 15.24,-9.46 8.27,-3.2 18.39,-6.02 29.11,-8.16 43.39,-8.26 94.5,-9.45 143,-9.31 l 9.51,-54.33 c -13.43,-4.28 -25.97,-7.43 -39.12,-10.47 -13.03,-3.08 -26.19,-5.73 -39.56,-7.75 -26.74,-4.13 -54.09,-6.77 -83.28,-5.59 -14.64,0.61 -29.78,2 -46.01,5.98 -16.15,4.17 -34.02,9.83 -52.73,24.48 -9.14,7.31 -18.21,17.43 -24.68,29.74 -1.65,2.95 -3.07,6.38 -4.31,9.26 l -1.85,4.74 -3.69,9.46 c -5.12,12.68 -9.32,25.17 -13.91,37.77 -16.94,50.27 -30.96,100.44 -43.42,150.84 -12.27,50.56 -23.03,100.68 -31.96,152.37 l 109.56,19.96"/><path style="fill:#242d38;fill-opacity:1;fill-rule:nonzero;stroke:none" id="path350" d="m 1543.27,2383.39 c -20.7,-67.11 63.23,-267.16 63.23,-267.16 l 167.14,42.03 c 0,0 -6.42,103.93 -44.49,186.43 -57.44,124.45 -161.04,119.26 -185.88,38.7"/><path style="fill:#f3646c;fill-opacity:1;fill-rule:nonzero;stroke:none" id="path352" d="m 1950.9,1992.42 83.19,2.05 -40.01,-86.52 c 0,0 -33.84,-4.5 -61.65,41.21 l -29.33,34.92 33.73,6.77 c 4.63,0.93 9.34,1.46 14.07,1.57"/><path style="fill:#f3646c;fill-opacity:1;fill-rule:nonzero;stroke:none" id="path354" d="m 2086.61,1978.38 -47.64,-71.71 -44.89,1.28 40.01,86.52 52.52,-16.09"/><path style="fill:#e04c58;fill-opacity:1;fill-rule:nonzero;stroke:none" id="path356" d="m 1661.67,335.781 -3.76,-87.691 h -73.49 l 3.76,87.691 h 73.49"/><path style="fill:#e04c58;fill-opacity:1;fill-rule:nonzero;stroke:none" id="path358" d="m 1061.89,572.27 61.47,-40.29 -69.92,-59.019 -61.471,40.277 69.921,59.032"/><path style="fill:#f3646c;fill-opacity:1;fill-rule:nonzero;stroke:none" id="path360" d="m 1382.59,2702.85 c 4.41,-72.78 3.29,-115.6 40.01,-152.98 55.24,-56.24 145.1,-22.98 162.52,49.64 15.69,65.37 5.85,173.41 -65.36,202.42 -70.16,28.6 -141.57,-26.31 -137.17,-99.08"/><path style="fill:#242d38;fill-opacity:1;fill-rule:nonzero;stroke:none" id="path362" d="m 1297,2715.56 c 18.09,-66.35 60.7,-142.78 115.77,-147.63 68.44,-6.03 99.33,64.67 108.33,137.73 41.03,28.08 19.47,58.93 60.62,62.86 52.75,5.04 35.92,101.6 -33.63,117.14 0,0 23.28,-43.5 -25.59,-21.56 -48.86,21.95 -96.64,31.36 -149.37,25.91 0,0 62.32,-31.15 1.37,-45.05 -60.96,-13.91 -79.21,-51.55 -51.15,-74.26 0,0 -38.27,-11.46 -26.35,-55.14"/><path style="fill:#f3646c;fill-opacity:1;fill-rule:nonzero;stroke:none" id="path364" d="m 1479.41,2690.7 c 1.14,-19.06 10,-36.99 20.65,-48.72 16.02,-17.64 32.73,-6.66 35.56,14.84 2.55,19.34 -2.71,51.83 -22.29,61.55 -19.3,9.58 -35.22,-5.87 -33.92,-27.67"/><path style="fill:#3a66b9;fill-opacity:1;fill-rule:nonzero;stroke:none" id="path366" d="m 1506.41,1801.99 c 0,0 71.61,-518.51 15.19,-726.24 C 1432.25,746.73 1090.38,469.051 1090.38,469.051 L 974.496,545 c 0,0 291.084,234.5 326.724,509.87 32.01,247.39 -48.36,546.44 -48.36,747.12 91.52,0 253.55,0 253.55,0"/><path style="fill:#375fb5;fill-opacity:1;fill-rule:nonzero;stroke:none" id="path368" d="m 1127.4,501.242 -116.1,76.078 c 79.46,73.41 262.16,263.09 289.92,477.55 5.31,41.07 7.53,83.57 7.53,126.8 0,122.28 -17.71,250.46 -33.2,369.01 -12.02,91.99 -22.69,178.19 -22.69,251.31 91.52,0 253.55,0 253.55,0 v 0 H 1387.5 v 0 c 0,0 49.51,-155.95 92.14,-335.54 5.52,-98.89 9.56,-211.74 9.56,-317.88 0,-63.03 -1.42,-123.69 -4.8,-177.648 v 0 0 c 3,6.859 5.9,13.75 8.7,20.68 -49.48,-122.52 -128.74,-234.543 -203.9,-323.172 -49.86,-58.801 -97.92,-107.289 -134.3,-141.731 -10.15,-9.609 -19.38,-18.117 -27.5,-25.457"/><path style="fill:#375fb5;fill-opacity:1;fill-rule:nonzero;stroke:none" id="path370" d="m 1512.03,1043.59 c 0.04,0.12 0.08,0.25 0.12,0.38 -0.05,-0.14 -0.08,-0.25 -0.12,-0.38"/><path style="fill:#375fb5;fill-opacity:1;fill-rule:nonzero;stroke:none" id="path372" d="m 1512.25,1044.27 c 1.03,3.22 2.05,6.44 3.04,9.67 -0.99,-3.23 -2,-6.45 -3.04,-9.67"/><path style="fill:#375fb5;fill-opacity:1;fill-rule:nonzero;stroke:none" id="path374" d="m 1515.47,1054.53 c 0.01,0.03 0.02,0.07 0.03,0.1 -0.01,-0.02 -0.02,-0.08 -0.03,-0.1"/><path style="fill:#375fb5;fill-opacity:1;fill-rule:nonzero;stroke:none" id="path376" d="m 1528.14,1104 c 3.14,15.92 5.71,33.11 7.79,51.33 0,-0.02 0,-0.01 0,-0.03 -1.08,-9.43 -2.29,-18.6 -3.64,-27.45 -1.26,-8.22 -2.64,-16.19 -4.15,-23.85"/><path style="fill:#3a66b9;fill-opacity:1;fill-rule:nonzero;stroke:none" id="path378" d="m 1536,1505.42 c -33.7,38.19 -62.7,60.2 -62.7,60.2 12.2,-168.3 22.2,-417.6 11.1,-594.698 14.9,34.098 27.5,69.198 37.2,104.788 27.5,101.41 24.6,276.7 14.4,429.71"/><path style="fill:#3150aa;fill-opacity:1;fill-rule:nonzero;stroke:none" id="path380" d="m 1484.4,970.922 c 3.38,53.958 4.8,114.618 4.8,177.648 0,106.14 -4.04,218.99 -9.56,317.88 24.77,-104.38 47.22,-216.75 56.29,-311.12 -3.38,-29.61 -8.07,-56.53 -14.33,-79.62 -2.93,-10.75 -6.13,-21.47 -9.57,-32.12 -3.17,-9.79 -6.54,-19.51 -10.11,-29.18 -5.4,-14.648 -11.26,-29.16 -17.52,-43.488"/><path style="fill:#3a66b9;fill-opacity:1;fill-rule:nonzero;stroke:none" id="path382" d="m 1137.1,494.879 -44.86,-29.547 -126.619,82.977 39.469,33.082 132.01,-86.512"/><path style="fill:#3150aa;fill-opacity:1;fill-rule:nonzero;stroke:none" id="path384" d="m 1092.24,465.332 -26.93,17.648 -61.47,40.282 -38.219,25.047 39.469,33.082 132.01,-86.512 -44.86,-29.547"/><path style="fill:#3a66b9;fill-opacity:1;fill-rule:nonzero;stroke:none" id="path386" d="m 1645.79,1801.99 c 0,0 110.65,-469 118.45,-693.04 8.73,-251.251 -78.95,-843.88 -78.95,-843.88 h -124.45 c 0,0 -15.32,597.25 -20.86,826.09 -6.03,249.5 -152.48,710.83 -152.48,710.83 h 258.29"/><path style="fill:#375fb5;fill-opacity:1;fill-rule:nonzero;stroke:none" id="path388" d="m 1559.7,309.539 c -3.65,142.641 -15.1,590.543 -19.72,781.621 -0.49,20.13 -1.89,41.63 -4.05,64.17 -9.07,94.37 -31.52,206.74 -56.29,311.12 -42.63,179.59 -92.14,335.54 -92.14,335.54 h 258.29 c 0,0 110.65,-469 118.45,-693.04 0.41,-11.9 0.61,-24.57 0.61,-37.9 0,-4.61 -0.02,-9.31 -0.07,-14.07 -1.03,-106.91 -13.5,-251.871 -28.26,-388.55 -5.3,-49.02 -10.89,-96.981 -16.35,-141.731 -3.21,-26.277 -6.38,-51.429 -9.41,-75.07 -0.11,-0.82 -0.22,-1.68 -0.33,-2.5 -7.15,-55.609 -13.57,-102.508 -18.14,-135.07 l -132.59,-4.52"/><path style="fill:#3a66b9;fill-opacity:1;fill-rule:nonzero;stroke:none" id="path390" d="m 1709.24,314.641 -7.02,-51.661 h -151.39 l -4.09,46.11 162.5,5.551"/><path style="fill:#3150aa;fill-opacity:1;fill-rule:nonzero;stroke:none" id="path392" d="m 1702.22,262.98 h -151.39 l -4.09,46.11 162.5,5.551 -7.02,-51.661"/><path style="fill:#f3646c;fill-opacity:1;fill-rule:nonzero;stroke:none" id="path394" d="m 3559.5,2252.75 c 8.54,-8 15.16,-14.81 22.23,-22.46 6.86,-7.48 13.59,-15.02 20.14,-22.69 13.08,-15.33 25.23,-31.34 36.98,-47.6 23.7,-32.39 44.45,-66.89 62.76,-102.59 l 3.72,-7.27 c 1.76,-3.56 3.26,-7.25 4.51,-11 2.49,-7.51 3.91,-15.21 4.36,-22.61 0.82,-14.87 -1.74,-28.29 -5.45,-40.09 -7.56,-23.68 -19.62,-42.19 -32.1,-59.25 -26.06,-33.44 -54.97,-60.49 -88.05,-84.54 l -24.95,28.6 c 11.79,13.62 23.96,28.33 34.83,43.03 11.12,14.63 21.34,29.73 29.76,45.02 8.65,15 15.35,30.7 18.18,44.19 1.4,6.72 1.5,12.69 0.63,17.02 -0.4,2.18 -0.99,3.97 -1.74,5.52 l -1.27,2.21 -3.29,5.34 c -19.28,31.47 -40.17,61.94 -62.65,91.16 -11.15,14.68 -23.05,28.76 -34.96,42.7 -5.93,6.99 -12.01,13.82 -18.13,20.53 -6.04,6.46 -12.68,13.61 -18,18.96 l 52.49,55.82"/><path style="fill:#f3646c;fill-opacity:1;fill-rule:nonzero;stroke:none" id="path396" d="m 3573.62,1869.71 -74.68,12.25 39.03,-65.45 c 0,0 48.09,1.66 61.84,29.62 l -26.19,23.58"/><path style="fill:#f3646c;fill-opacity:1;fill-rule:nonzero;stroke:none" id="path398" d="m 3443.69,1851.67 35.65,-53.02 58.63,17.86 -39.03,65.45 -55.25,-30.29"/><path style="fill:#3a66b9;fill-opacity:1;fill-rule:nonzero;stroke:none" id="path400" d="m 3560.14,178.289 -2.26,-0.398 c -0.58,-0.262 -1.26,-0.75 -1.47,-2.243 -0.39,-2.789 0.2,-4.847 1.81,-6.316 3.78,-3.461 13.59,-3.91 26.65,-1.312 -8.03,4.859 -18.97,10.269 -24.73,10.269 z m 9.98,-15.5 c -5.77,0 -11.1,1 -14.29,3.91 -2.51,2.293 -3.5,5.473 -2.94,9.43 0.42,3 2.15,4.371 3.53,4.992 8.72,3.899 31.48,-10.75 34.05,-12.43 l 0.77,-1.793 -1.34,-1.418 c -5.29,-1.25 -12.86,-2.691 -19.78,-2.691"/><path style="fill:#3a66b9;fill-opacity:1;fill-rule:nonzero;stroke:none" id="path402" d="m 3576.75,195.809 -0.81,-0.047 c -2.27,-0.282 -2.76,-1.282 -2.92,-2.133 -1.04,-5.129 7.46,-17.277 14.59,-22.969 -0.41,7.18 -2.09,19.301 -6.95,23.602 -1.17,1.027 -2.46,1.547 -3.91,1.547 z m 12.74,-30.379 -0.88,0.23 c -7.15,4.059 -20.77,20.231 -19.08,28.68 0.32,1.609 1.53,4.402 5.98,4.941 2.85,0.418 5.34,-0.449 7.51,-2.371 8.14,-7.199 8.25,-28.781 8.25,-29.699 l -0.89,-1.539 -0.89,-0.242"/><path style="fill:#3a66b9;fill-opacity:1;fill-rule:nonzero;stroke:none" id="path404" d="m 3215.87,178.289 c -1.38,0 -2.5,-0.187 -3.31,-0.641 -0.73,-0.398 -1.1,-0.988 -1.18,-1.918 -0.22,-2.398 0.46,-4.25 2.05,-5.691 4.53,-4.078 16.89,-4.797 33.47,-2.039 -10.28,4.93 -23.93,10.289 -31.03,10.289 z m 13.36,-15.508 c -7.46,0 -14.33,1.168 -18.18,4.617 -2.45,2.204 -3.52,5.114 -3.21,8.653 0.2,2.109 1.23,3.75 3.01,4.711 9.27,5.109 39.05,-10.211 42.43,-11.981 l 0.94,-1.832 -1.42,-1.48 c -6.35,-1.27 -15.32,-2.688 -23.57,-2.688"/><path style="fill:#3a66b9;fill-opacity:1;fill-rule:nonzero;stroke:none" id="path406" d="m 3234.61,195.809 -1.07,-0.059 c -3.24,-0.32 -3.45,-1.621 -3.52,-2.039 -0.83,-5.102 11.16,-17.813 20.26,-23.332 -0.87,5.871 -3.36,17.973 -9.54,23.121 -1.86,1.551 -3.87,2.309 -6.13,2.309 z m 17.85,-30.379 -0.73,0.16 c -8.94,4.039 -26.6,20.211 -25.22,28.691 0.34,2.008 1.75,4.508 6.67,5.008 3.65,0.352 6.95,-0.66 9.84,-3.07 9.41,-7.84 11.14,-28.02 11.21,-28.867 l -0.74,-1.602 -1.03,-0.32"/><path style="fill:#f3646c;fill-opacity:1;fill-rule:nonzero;stroke:none" id="path408" d="m 3370.67,2482.65 c -2.87,-45.22 -10.72,-137.08 23.98,-162.46 0,0 -6.2,-46.31 -88.13,-57.03 -90.09,-11.78 -48.9,39.09 -48.9,39.09 47.63,18.18 41.59,54.49 28.54,87.63 l 84.51,92.77"/><path style="fill:#242d38;fill-opacity:1;fill-rule:nonzero;stroke:none" id="path410" d="m 3184.43,2562.53 c -0.98,0 -1.97,0.41 -2.67,1.22 -10.42,11.94 -23.38,10.25 -23.51,10.24 -2.17,-0.29 -3.74,1.08 -4.01,3.02 -0.28,1.94 1.08,3.73 3.02,4.01 0.71,0.08 16.92,2.19 29.85,-12.61 1.29,-1.47 1.13,-3.72 -0.34,-5.01 l -2.34,-0.87"/><path style="fill:#ef344d;fill-opacity:1;fill-rule:nonzero;stroke:none" id="path412" d="m 3168.83,2518.23 c 0,0 -6.79,-27.13 -16.36,-41.04 8.88,-6.35 21.9,-1.21 21.9,-1.21 l -5.54,42.25"/><path style="fill:#242d38;fill-opacity:1;fill-rule:nonzero;stroke:none" id="path414" d="m 3172.85,2529.23 c 0.78,-5.99 -1.76,-11.26 -5.67,-11.77 -3.93,-0.52 -7.74,3.93 -8.52,9.92 -0.78,5.99 1.76,11.27 5.68,11.78 3.91,0.51 7.72,-3.93 8.51,-9.93"/><path style="fill:#242d38;fill-opacity:1;fill-rule:nonzero;stroke:none" id="path416" d="m 3166.11,2539.05 -14.94,2.27 c 0,0 8.86,-10.28 14.94,-2.27"/><path style="fill:#f3646c;fill-opacity:1;fill-rule:nonzero;stroke:none" id="path418" d="m 3334.86,167.211 h -74.93 l -5.01,173.539 h 74.94 l 5,-173.539"/><path style="fill:#f3646c;fill-opacity:1;fill-rule:nonzero;stroke:none" id="path420" d="m 3675.34,167.211 h -74.93 l -24.09,173.539 h 74.93 l 24.09,-173.539"/><path style="fill:#242d38;fill-opacity:1;fill-rule:nonzero;stroke:none" id="path422" d="m 3595.76,175.891 h 84.19 c 3.07,0 5.55,-2.129 5.98,-5.121 l 9.6,-66.61 c 0.99,-6.91 -4.95,-13.4491 -12.02,-13.328 -29.35,0.5078 -43.5,2.2266 -80.52,2.2266 -22.78,0 -56.06,-2.3672 -87.51,-2.3672 -30.76,0 -33.13,31.1096 -20.03,33.9176 58.73,12.641 68,30.051 87.78,46.672 3.58,3 8.05,4.61 12.53,4.61"/><path style="fill:#242d38;fill-opacity:1;fill-rule:nonzero;stroke:none" id="path424" d="m 3257.36,175.891 h 84.19 c 3.06,0 5.55,-2.129 5.98,-5.121 l 9.59,-66.61 c 1,-6.91 -4.94,-13.4491 -12.01,-13.328 -29.36,0.5078 -43.5,2.2266 -80.52,2.2266 -22.78,0 -69.89,-2.3672 -101.35,-2.3672 -30.76,0 -33.12,31.1096 -20.03,33.9176 58.72,12.641 81.84,30.051 101.62,46.672 3.57,3 8.05,4.61 12.53,4.61"/><path style="fill:#e04c58;fill-opacity:1;fill-rule:nonzero;stroke:none" id="path426" d="m 3254.94,340.699 2.56,-89.449 h 74.97 l -2.56,89.449 h -74.97"/><path style="fill:#e04c58;fill-opacity:1;fill-rule:nonzero;stroke:none" id="path428" d="m 3651.28,340.699 h -74.97 l 12.45,-89.449 h 74.97 l -12.45,89.449"/><path style="fill:#f3646c;fill-opacity:1;fill-rule:nonzero;stroke:none" id="path430" d="m 3371.67,2576.17 c 5.11,-74.19 8.86,-105.49 -23.38,-148.13 -48.49,-64.15 -140.73,-54.2 -167.91,16.98 -24.46,64.06 -28.71,174.64 39.51,213.35 67.21,38.15 146.66,-8 151.78,-82.2"/><path style="fill:#242d38;fill-opacity:1;fill-rule:nonzero;stroke:none" id="path432" d="m 3414.87,2507.28 c 41.67,-23.21 72.5,34.04 72.5,34.04 0,0 -74.58,-8.1 -67.92,36.3 8.85,58.89 -33.33,130.5 -139.16,121.33 -5.86,-0.51 -11.52,-1.24 -17.01,-2.15 -20.51,8.57 -48.29,7.66 -65.8,-15.15 -29.6,-2.5 -70.44,-38.34 -43.03,-85.62 0,0 2.4,7.52 8.86,14.68 2.25,-27.68 26.53,-71.68 56.71,-74.56 6.51,-37.94 -18.67,-81.85 -9.73,-121.39 12.91,-57.1 109.16,-70.39 109.16,-70.39 -10.54,27.65 5.65,44.02 5.65,44.02 65.42,-29.86 108.52,-0.69 108.52,-0.69 -44.58,16.67 -31.11,46.25 -31.11,46.25 59.73,-22.78 84.86,30.83 84.86,30.83 -31.8,-1.66 -58.66,16.11 -72.5,42.5"/><path style="fill:#f3646c;fill-opacity:1;fill-rule:nonzero;stroke:none" id="path434" d="m 3246.14,2524.74 c 0.49,-15.41 -6.19,-29.61 -15.01,-38.7 -13.27,-13.69 -29.47,-4.13 -33.8,13.4 -3.89,15.78 -1.69,41.92 15.49,49.05 16.92,7.02 32.77,-6.13 33.32,-23.75"/><path style="fill:#242d38;fill-opacity:1;fill-rule:nonzero;stroke:none" id="path436" d="m 3308.39,1833.4 c 0,0 19.05,-493.57 64.17,-783.43 36.45,-234.13 198.1,-781.388 198.1,-781.388 h 102.2 c 0,0 -84.23,528.52 -102.73,760.088 -46.81,585.97 74.64,711.75 -39.66,833.78 l -222.08,-29.05"/><path style="fill:#1f2033;fill-opacity:1;fill-rule:nonzero;stroke:none" id="path438" d="m 3393.8,1677.32 c 0,0 -46.2,7.99 -73.2,-80 10.2,-166.7 27.1,-387.91 52,-547.3 5.5,-35.51 13.9,-78.301 24.2,-125.2 -19.5,281.6 -3,752.5 -3,752.5"/><path style="fill:#242d38;fill-opacity:1;fill-rule:nonzero;stroke:none" id="path440" d="m 3228.69,1822.97 c 0,0 -84.22,-546.06 -79.31,-774.58 5.1,-237.699 92.21,-779.808 92.21,-779.808 h 101.33 c 0,0 -16.04,528.219 -7.08,761.658 9.77,254.51 113.84,821.64 113.84,821.64 l -220.99,-28.91"/><path style="fill:#3a66b9;fill-opacity:1;fill-rule:nonzero;stroke:none" id="path442" d="m 3687.67,263.852 h -135.83 l -10.6,45.578 145.49,-1.039 0.94,-44.539"/><path style="fill:#3459b0;fill-opacity:1;fill-rule:nonzero;stroke:none" id="path444" d="m 3687.67,263.852 h -135.83 l -10.6,45.578 145.49,-1.039 0.94,-44.539"/><path style="fill:#3a66b9;fill-opacity:1;fill-rule:nonzero;stroke:none" id="path446" d="m 3525.01,2320.07 c 39.04,-3.73 98.48,-114.82 98.48,-114.82 l -98.7,-75.75 c 0,0 -81.72,71.71 -71.99,111.99 10.13,41.95 34.71,82.16 72.21,78.58"/><path style="fill:#375fb5;fill-opacity:1;fill-rule:nonzero;stroke:none" id="path448" d="m 3524.79,2129.5 c 0,0 -5.48,4.81 -13.43,12.63 0,0.01 0,0.02 0,0.03 7.92,-7.79 13.39,-12.6 13.44,-12.64 l -0.01,-0.02 m 1.6,1.23 5.71,4.39 -17.38,65.14 c 2.44,35.19 5.83,74.74 10.29,119.81 v 0 0 c 0,0 -0.56,0.05 -1.62,0.13 0.54,-0.04 1.08,-0.08 1.62,-0.13 39.04,-3.73 98.48,-114.82 98.48,-114.82 l -12.02,-9.22 -61.2,-46.97 -23.88,-18.33"/><path style="fill:#3a66b9;fill-opacity:1;fill-rule:nonzero;stroke:none" id="path450" d="m 3495.5,2272.32 c 0,0 -15.7,4.5 -30.6,3.39 -5.2,-10.59 -9.2,-22.3 -12.1,-34.19 -9.7,-40.3 72,-112 72,-112 l 7.3,5.6 -36.6,137.2"/><path style="fill:#3150aa;fill-opacity:1;fill-rule:nonzero;stroke:none" id="path452" d="m 3524.8,2129.52 c 0,0 -5.48,4.81 -13.44,12.64 0.81,18.02 1.92,37.29 3.36,58.1 l 17.38,-65.14 -7.3,-5.6"/><path style="fill:#f3646c;fill-opacity:1;fill-rule:nonzero;stroke:none" id="path454" d="m 3195.19,2165.65 c -28.5,-72.17 -58.53,-145.43 -82.41,-217.76 -1.54,-4.53 -2.93,-9.01 -4.26,-13.48 l -3.4,-11.1 c -0.91,-3.48 -1.1,-6.12 0.03,-10.37 2.22,-8.48 12.71,-20.79 25.9,-30.99 26.69,-20.99 62.51,-37.78 96.86,-51.9 l -8.96,-36.88 c -41.76,6.42 -81.19,17.26 -120.87,39.46 -19.19,11.76 -40.15,26.38 -53.83,54.55 -6.68,13.89 -9.52,31.64 -6.98,47.65 0.27,2.01 0.68,3.94 1.05,5.9 l 0.94,4.14 1.77,7.61 c 1.16,5.09 2.37,10.14 3.69,15.07 10.27,39.79 22.78,77.92 36.24,115.69 13.34,37.86 27.63,74.87 43.54,111.95 l 70.69,-29.54"/><path style="fill:#3a66b9;fill-opacity:1;fill-rule:nonzero;stroke:none" id="path456" d="m 3134.51,2266.79 c 0,0 -33.77,-17.1 94.18,-443.82 119.75,15.67 243.51,31.86 301.78,39.48 -21.13,122.16 -31.18,197.88 -5.46,457.62 0,0 -65.03,5.48 -130.36,0.12 -51.1,-4.2 -92.92,-8.02 -137.03,-17.94 -58.16,-13.07 -123.11,-35.46 -123.11,-35.46"/><path style="fill:#375fb5;fill-opacity:1;fill-rule:nonzero;stroke:none" id="path458" d="m 3222.86,1842.52 c -14.48,48.76 -26.76,91.9 -37.16,130.11 l 2.15,90.86 5.9,-2.87 c 0,0 41.69,104.83 41.65,159.83 -0.02,12.28 -2.11,22.08 -7.22,27.67 -17.98,19.67 -33.03,28.78 -52.07,28.78 -5.53,0 -11.39,-0.77 -17.76,-2.27 24.15,7.71 63.03,19.48 99.27,27.62 44.11,9.92 85.93,13.74 137.03,17.94 21.46,1.76 42.89,2.35 62,2.35 39.04,0 68.36,-2.47 68.36,-2.47 -4.46,-45.07 -7.85,-84.62 -10.29,-119.81 -1.44,-20.81 -2.55,-40.08 -3.36,-58.1 v 0 c 0,-0.01 0,-0.02 0,-0.03 -1.13,-25.43 -1.66,-48.34 -1.66,-69.42 0.01,-76.29 6.98,-128.72 17.37,-190.38 l -304.21,-39.81"/><path style="fill:#375fb5;fill-opacity:1;fill-rule:nonzero;stroke:none" id="path460" d="m 3184.04,1978.77 c -6.33,23.36 -11.94,44.87 -16.91,64.6 4.98,-19.74 10.59,-41.22 16.91,-64.6"/><path style="fill:#3a66b9;fill-opacity:1;fill-rule:nonzero;stroke:none" id="path462" d="m 3532.68,1880.75 17.13,-25.23 c 1.33,-1.95 -0.87,-4.42 -4.36,-4.87 l -316.48,-41.41 c -2.72,-0.36 -5.14,0.68 -5.54,2.37 l -6.26,26.66 c -0.43,1.84 1.72,3.74 4.69,4.12 l 305.6,39.99 c 2.25,0.29 4.36,-0.36 5.22,-1.63"/><path style="fill:#3459b0;fill-opacity:1;fill-rule:nonzero;stroke:none" id="path464" d="m 3227.91,1809.17 c -2.26,0 -4.13,0.97 -4.48,2.44 v 0 l -5.29,22.52 -0.97,4.14 c -0.04,0.16 -0.06,0.31 -0.06,0.47 0,1.69 2.03,3.3 4.75,3.65 l 305.6,39.99 c 0.36,0.05 0.71,0.07 1.06,0.07 1.83,0 3.43,-0.63 4.16,-1.7 l 17.13,-25.23 c 0.27,-0.39 0.39,-0.8 0.4,-1.21 0.01,-1.65 -1.96,-3.3 -4.76,-3.66 l -316.48,-41.41 c -0.36,-0.05 -0.71,-0.07 -1.06,-0.07"/><path style="fill:#242d38;fill-opacity:1;fill-rule:nonzero;stroke:none" id="path466" d="m 3496.1,1841.21 8.19,1.08 c 1.63,0.21 2.75,1.21 2.51,2.22 l -8.43,34.6 c -0.24,1.01 -1.78,1.66 -3.41,1.45 l -8.18,-1.07 c -1.63,-0.22 -2.77,-1.22 -2.52,-2.23 l 8.43,-34.59 c 0.25,-1.01 1.78,-1.67 3.41,-1.46"/><path style="fill:#242d38;fill-opacity:1;fill-rule:nonzero;stroke:none" id="path468" d="m 3297.71,1815.26 8.19,1.07 c 1.63,0.21 2.76,1.21 2.52,2.23 l -8.44,34.59 c -0.24,1.01 -1.78,1.67 -3.41,1.46 l -8.18,-1.08 c -1.63,-0.21 -2.76,-1.21 -2.52,-2.23 l 8.44,-34.59 c 0.24,-1.01 1.77,-1.67 3.4,-1.45"/><path style="fill:#3a66b9;fill-opacity:1;fill-rule:nonzero;stroke:none" id="path470" d="m 3148.6,2122.02 c 8.3,-38.61 20.3,-87.5 37.1,-149.4 l 3.7,156.9 -40.8,-7.5"/><path style="fill:#3150aa;fill-opacity:1;fill-rule:nonzero;stroke:none" id="path472" d="m 3185.7,1972.62 c -10.93,40.28 -19.83,75.04 -27,105.06 l 29.15,-14.19 -2.15,-90.86 v -0.01"/><path style="fill:#3a66b9;fill-opacity:1;fill-rule:nonzero;stroke:none" id="path474" d="m 3134.51,2266.79 c -37.53,-15.06 -69.72,-143.4 -69.72,-143.4 l 128.96,-62.77 c 0,0 62.4,156.91 34.43,187.5 -29.12,31.85 -50.51,35.99 -93.67,18.67"/><path style="fill:#375fb5;fill-opacity:1;fill-rule:nonzero;stroke:none" id="path476" d="m 3193.75,2060.62 -5.9,2.87 -29.15,14.19 -93.91,45.71 c 0,0 32.19,128.34 69.72,143.4 16.5,6.62 29.81,10.11 41.6,10.11 19.04,0 34.09,-9.11 52.07,-28.78 5.11,-5.59 7.2,-15.39 7.22,-27.67 0.04,-55 -41.65,-159.83 -41.65,-159.83"/><path style="fill:#3a66b9;fill-opacity:1;fill-rule:nonzero;stroke:none" id="path478" d="m 3360.17,263.852 h -135.83 l -10.6,45.578 151.25,-1.039 -4.82,-44.539"/><path style="fill:#3459b0;fill-opacity:1;fill-rule:nonzero;stroke:none" id="path480" d="m 3360.17,263.852 h -135.83 l -10.6,45.578 151.25,-1.039 -4.82,-44.539"/><path style="fill:#f3646c;fill-opacity:1;fill-rule:nonzero;stroke:none" id="path482" d="m 3230.01,1842.83 -10.9,4.49 c -11.75,4.83 -24.29,-5 -22.38,-17.57 l 7.89,-52.12 c 1.68,-11.09 13.09,-18.1 23.6,-14.22 3.61,1.34 7.36,3.28 10.96,6.11 7.49,5.86 11.24,15.34 10.79,24.84 l -1.02,21.59 c -0.56,11.88 -7.94,22.36 -18.94,26.88"/></g></g></svg>