<?xml version="1.0" encoding="UTF-8" standalone="no"?>
<svg
   xmlns:dc="http://purl.org/dc/elements/1.1/"
   xmlns:cc="http://creativecommons.org/ns#"
   xmlns:rdf="http://www.w3.org/1999/02/22-rdf-syntax-ns#"
   xmlns:svg="http://www.w3.org/2000/svg"
   xmlns="http://www.w3.org/2000/svg"
   xmlns:sodipodi="http://sodipodi.sourceforge.net/DTD/sodipodi-0.dtd"
   xmlns:inkscape="http://www.inkscape.org/namespaces/inkscape"
   version="1.1"
   id="svg2"
   xml:space="preserve"
   width="666.66669"
   height="496.81332"
   viewBox="0 0 666.66669 496.81332"
   sodipodi:docname="3071355.eps"><metadata
     id="metadata8"><rdf:RDF><cc:Work
         rdf:about=""><dc:format>image/svg+xml</dc:format><dc:type
           rdf:resource="http://purl.org/dc/dcmitype/StillImage" /></cc:Work></rdf:RDF></metadata><defs
     id="defs6" /><sodipodi:namedview
     pagecolor="#ffffff"
     bordercolor="#666666"
     borderopacity="1"
     objecttolerance="10"
     gridtolerance="10"
     guidetolerance="10"
     inkscape:pageopacity="0"
     inkscape:pageshadow="2"
     inkscape:window-width="640"
     inkscape:window-height="480"
     id="namedview4" /><g
     id="g10"
     inkscape:groupmode="layer"
     inkscape:label="ink_ext_XXXXXX"
     transform="matrix(1.3333333,0,0,-1.3333333,0,496.81333)"><g
       id="g12"
       transform="scale(0.1)"><path
         d="M 5000,449.129 H 0 v 2.5 h 5000 v -2.5"
         style="fill:#e7e8e5;fill-opacity:1;fill-rule:nonzero;stroke:none"
         id="path14" /><path
         d="m 4282.22,290.672 h 216.79 v -2.5 h -216.79 v 2.5"
         style="fill:#e7e8e5;fill-opacity:1;fill-rule:nonzero;stroke:none"
         id="path16" /><path
         d="m 3105.58,340.059 h 341.09 v 2.5 h -341.09 z"
         style="fill:#e7e8e5;fill-opacity:1;fill-rule:nonzero;stroke:none"
         id="path18" /><path
         d="m 3965.86,383.531 h 445.25 v -2.5 h -445.25 v 2.5"
         style="fill:#e7e8e5;fill-opacity:1;fill-rule:nonzero;stroke:none"
         id="path20" /><path
         d="m 1730.14,330.621 h -111.37 v 2.5 h 111.37 v -2.5"
         style="fill:#e7e8e5;fill-opacity:1;fill-rule:nonzero;stroke:none"
         id="path22" /><path
         d="m 1529.73,330.621 h -383.88 v 2.5 h 383.88 v -2.5"
         style="fill:#e7e8e5;fill-opacity:1;fill-rule:nonzero;stroke:none"
         id="path24" /><path
         d="M 940.02,372.84 H 663.066 v 2.5 H 940.02 v -2.5"
         style="fill:#e7e8e5;fill-opacity:1;fill-rule:nonzero;stroke:none"
         id="path26" /><path
         d="m 439.152,3723.59 c -30.101,0 -54.582,-24.48 -54.582,-54.57 V 954.699 c 0,-30.097 24.481,-54.578 54.582,-54.578 H 2370.14 c 30.09,0 54.57,24.481 54.57,54.578 V 3669.02 c 0,30.09 -24.48,54.57 -54.57,54.57 H 439.152 M 2370.14,897.621 H 439.152 c -31.476,0 -57.082,25.598 -57.082,57.078 V 3669.02 c 0,31.46 25.606,57.07 57.082,57.07 H 2370.14 c 31.46,0 57.07,-25.61 57.07,-57.07 V 954.699 c 0,-31.48 -25.61,-57.078 -57.07,-57.078"
         style="fill:#e7e8e5;fill-opacity:1;fill-rule:nonzero;stroke:none"
         id="path28" /><path
         d="m 2602.12,3723.59 c -30.09,0 -54.57,-24.48 -54.57,-54.57 V 954.699 c 0,-30.097 24.48,-54.578 54.57,-54.578 H 4533.1 c 30.1,0 54.59,24.481 54.59,54.578 V 3669.02 c 0,30.09 -24.49,54.57 -54.59,54.57 H 2602.12 M 4533.1,897.621 H 2602.12 c -31.47,0 -57.07,25.598 -57.07,57.078 V 3669.02 c 0,31.46 25.6,57.07 57.07,57.07 H 4533.1 c 31.48,0 57.09,-25.61 57.09,-57.07 V 954.699 c 0,-31.48 -25.61,-57.078 -57.09,-57.078"
         style="fill:#e7e8e5;fill-opacity:1;fill-rule:nonzero;stroke:none"
         id="path30" /><path
         d="m 1149.78,2529.35 c 115.49,0 209.11,93.62 209.11,209.1 0,115.49 -93.62,209.11 -209.11,209.11 h -25.65 v -418.21 h 25.65"
         style="fill:#dadbd8;fill-opacity:1;fill-rule:nonzero;stroke:none"
         id="path32" /><path
         d="m 915.027,2738.45 c 0,-115.48 93.623,-209.1 209.103,-209.1 115.49,0 209.11,93.62 209.11,209.1 0,115.49 -93.62,209.11 -209.11,209.11 -115.48,0 -209.103,-93.62 -209.103,-209.11"
         style="fill:#f3f2f1;fill-opacity:1;fill-rule:nonzero;stroke:none"
         id="path34" /><path
         d="m 1114.55,2712.17 c -154.339,0 -279.909,125.57 -279.909,279.91 v 167.24 c 0,14.52 11.769,26.29 26.285,26.29 14.512,0 26.281,-11.77 26.281,-26.29 v -167.24 c 0,-125.36 101.984,-227.34 227.343,-227.34 14.51,0 26.28,-11.77 26.28,-26.29 0,-14.51 -11.77,-26.28 -26.28,-26.28"
         style="fill:#dadbd8;fill-opacity:1;fill-rule:nonzero;stroke:none"
         id="path36" /><path
         d="m 628.32,3012.09 h 465.22 c 31.88,0 55.11,30.2 46.95,61.01 l -40.35,152.36 c -5.65,21.3 -24.92,36.13 -46.96,36.13 H 668.676 c -22.039,0 -41.313,-14.83 -46.953,-36.13 L 581.367,3073.1 c -8.164,-30.81 15.074,-61.01 46.953,-61.01"
         style="fill:#f3f2f1;fill-opacity:1;fill-rule:nonzero;stroke:none"
         id="path38" /><path
         d="m 4102.77,2529.35 c 115.49,0 209.11,93.62 209.11,209.1 0,115.49 -93.62,209.11 -209.11,209.11 h -25.65 v -418.21 h 25.65"
         style="fill:#dadbd8;fill-opacity:1;fill-rule:nonzero;stroke:none"
         id="path40" /><path
         d="m 3868.02,2738.45 c 0,-115.48 93.62,-209.1 209.1,-209.1 115.49,0 209.11,93.62 209.11,209.1 0,115.49 -93.62,209.11 -209.11,209.11 -115.48,0 -209.1,-93.62 -209.1,-209.11"
         style="fill:#f3f2f1;fill-opacity:1;fill-rule:nonzero;stroke:none"
         id="path42" /><path
         d="m 4067.54,2712.17 c -154.34,0 -279.91,125.57 -279.91,279.91 v 167.24 c 0,14.52 11.77,26.29 26.28,26.29 14.52,0 26.29,-11.77 26.29,-26.29 v -167.24 c 0,-125.36 101.98,-227.34 227.34,-227.34 14.51,0 26.28,-11.77 26.28,-26.29 0,-14.51 -11.77,-26.28 -26.28,-26.28"
         style="fill:#dadbd8;fill-opacity:1;fill-rule:nonzero;stroke:none"
         id="path44" /><path
         d="m 3581.31,3012.09 h 465.21 c 31.88,0 55.12,30.2 46.96,61.01 l -40.35,152.36 c -5.65,21.3 -24.92,36.13 -46.96,36.13 h -384.51 c -22.03,0 -41.31,-14.83 -46.95,-36.13 l -40.35,-152.36 c -8.17,-30.81 15.07,-61.01 46.95,-61.01"
         style="fill:#f3f2f1;fill-opacity:1;fill-rule:nonzero;stroke:none"
         id="path46" /><path
         d="m 1339.81,1117.08 h 152.07 v 589.297 h -152.07 z"
         style="fill:#e2e2e0;fill-opacity:1;fill-rule:nonzero;stroke:none"
         id="path48" /><path
         d="m 927.512,1117.08 h 504.698 l 76.22,689.73 h -504.7 l -76.218,-689.73"
         style="fill:#ededeb;fill-opacity:1;fill-rule:nonzero;stroke:none"
         id="path50" /><path
         d="m 872.848,1117.08 h 521.312 l 76.22,689.73 H 949.066 l -76.218,-689.73"
         style="fill:#f3f2f1;fill-opacity:1;fill-rule:nonzero;stroke:none"
         id="path52" /><path
         d="m 1356.49,1171.44 64.21,581.02 H 986.734 l -64.207,-581.02 h 433.963"
         style="fill:#ffffff;fill-opacity:1;fill-rule:nonzero;stroke:none"
         id="path54" /><path
         d="m 1266.87,1312.27 2.62,23.68 c 16.1,145.76 -74.91,275.68 -193.13,275.68 l -2.62,-23.68 c -16.11,-145.77 74.91,-275.68 193.13,-275.68 v 0"
         style="fill:#f3f2f1;fill-opacity:1;fill-rule:nonzero;stroke:none"
         id="path56" /><path
         d="m 590.84,451.629 h 448.39 V 1117.08 H 590.84 V 451.629"
         style="fill:#e2e2e0;fill-opacity:1;fill-rule:nonzero;stroke:none"
         id="path58" /><path
         d="M 635.941,451.629 H 590.84 v 128.293 h 92.39 L 635.941,451.629"
         style="fill:#ededeb;fill-opacity:1;fill-rule:nonzero;stroke:none"
         id="path60" /><path
         d="m 1847.54,451.629 h 448.391 v 665.453 H 1847.54 Z"
         style="fill:#e2e2e0;fill-opacity:1;fill-rule:nonzero;stroke:none"
         id="path62" /><path
         d="M 590.84,530.352 H 1886.9 v 586.73 H 590.84 Z"
         style="fill:#ededeb;fill-opacity:1;fill-rule:nonzero;stroke:none"
         id="path64" /><path
         d="m 1841.8,451.629 h 45.1 v 128.293 h -92.39 l 47.29,-128.293"
         style="fill:#ededeb;fill-opacity:1;fill-rule:nonzero;stroke:none"
         id="path66" /><path
         d="m 625.828,843.629 h 1226.08 v 236.75 H 625.828 Z"
         style="fill:#e2e2e0;fill-opacity:1;fill-rule:nonzero;stroke:none"
         id="path68" /><path
         d="m 1157.1,926.039 h 163.53 c 71.03,0 138.94,29.211 187.8,80.771 H 969.305 c 48.855,-51.56 116.765,-80.771 187.795,-80.771"
         style="fill:#ededeb;fill-opacity:1;fill-rule:nonzero;stroke:none"
         id="path70" /><path
         d="m 625.828,568.621 h 1226.08 v 236.75 H 625.828 Z"
         style="fill:#e2e2e0;fill-opacity:1;fill-rule:nonzero;stroke:none"
         id="path72" /><path
         d="m 1157.1,651.031 h 163.53 c 71.03,0 138.94,29.199 187.8,80.77 H 969.305 c 48.855,-51.571 116.765,-80.77 187.795,-80.77"
         style="fill:#ededeb;fill-opacity:1;fill-rule:nonzero;stroke:none"
         id="path74" /><path
         d="m 1804.8,1144.22 h 11.58 c -0.12,23.87 0.05,84.4 1.21,223.12 2.09,251.44 6.08,266.77 6.08,266.77 l -27.58,-116.07 c -17.48,-128.54 5.06,-257.7 8.71,-373.82"
         style="fill:#e2e2e0;fill-opacity:1;fill-rule:nonzero;stroke:none"
         id="path76" /><path
         d="m 1781.9,1535.33 c -39.7,47.32 -124.51,61.09 -211.35,72.86 -34.09,4.63 89.59,-73.28 150.04,-128.61 46.97,-42.99 76.99,-54.87 89.89,-97.71 6.71,53.42 5.62,112.69 -28.58,153.46"
         style="fill:#e2e2e0;fill-opacity:1;fill-rule:nonzero;stroke:none"
         id="path78" /><path
         d="m 1834.56,1450.77 c 39.69,47.31 124.51,61.08 211.35,72.86 34.09,4.62 -89.59,-73.29 -150.05,-128.62 -46.96,-42.98 -76.99,-54.86 -89.88,-97.7 -6.72,53.42 -5.63,112.69 28.58,153.46"
         style="fill:#e2e2e0;fill-opacity:1;fill-rule:nonzero;stroke:none"
         id="path80" /><path
         d="m 1817.56,1645.23 c 29.76,56.55 104.66,109.79 188.7,129.99 33,7.93 -76.43,-104.43 -118.02,-176.87 -32.31,-56.28 -75.16,-122.39 -81.82,-169.88 -10.05,94.09 -18.62,160.21 11.14,216.76"
         style="fill:#e2e2e0;fill-opacity:1;fill-rule:nonzero;stroke:none"
         id="path82" /><path
         d="m 1814.05,1117.08 c -35.46,0 -64.76,17.77 -66.8,40.51 l -5.91,38.86 h 145.42 l -5.91,-38.86 c -2.04,-22.74 -31.34,-40.51 -66.8,-40.51"
         style="fill:#ededeb;fill-opacity:1;fill-rule:nonzero;stroke:none"
         id="path84" /><path
         d="m 1896.17,1181.5 h -164.24 l -4.71,43.28 h 173.65 l -4.7,-43.28"
         style="fill:#ededeb;fill-opacity:1;fill-rule:nonzero;stroke:none"
         id="path86" /><path
         d="M 1695.4,2008.39 H 3297.46 V 3469.7 H 1695.4 Z"
         style="fill:#e2e2e0;fill-opacity:1;fill-rule:nonzero;stroke:none"
         id="path88" /><path
         d="M 1659.35,2008.39 H 3281.79 V 3469.7 H 1659.35 Z"
         style="fill:#f3f2f1;fill-opacity:1;fill-rule:nonzero;stroke:none"
         id="path90" /><path
         d="M 1724.06,2073.85 H 3217.08 V 3404.24 H 1724.06 Z"
         style="fill:#fafaf9;fill-opacity:1;fill-rule:nonzero;stroke:none"
         id="path92" /><path
         d="m 3033.88,2073.85 -587.62,1330.39 h -199.59 l 587.62,-1330.39 h 199.59"
         style="fill:#ffffff;fill-opacity:1;fill-rule:nonzero;stroke:none"
         id="path94" /><path
         d="m 2777.71,2073.85 -587.62,1330.39 h -137.43 l 587.61,-1330.39 h 137.44"
         style="fill:#ffffff;fill-opacity:1;fill-rule:nonzero;stroke:none"
         id="path96" /><path
         d="m 2201.23,2073.85 h 77.2109 V 3404.24 H 2201.23 Z"
         style="fill:#e2e2e0;fill-opacity:1;fill-rule:nonzero;stroke:none"
         id="path98" /><path
         d="m 2714.42,2073.85 h 77.207 v 1330.39 h -77.207 z"
         style="fill:#e2e2e0;fill-opacity:1;fill-rule:nonzero;stroke:none"
         id="path100" /><path
         d="m 2166.92,2032.31 h 97.5977 V 3452.92 H 2166.92 Z"
         style="fill:#f3f2f1;fill-opacity:1;fill-rule:nonzero;stroke:none"
         id="path102" /><path
         d="m 2680.12,2032.31 h 97.5898 V 3452.92 H 2680.12 Z"
         style="fill:#f3f2f1;fill-opacity:1;fill-rule:nonzero;stroke:none"
         id="path104" /><path
         d="m 1724.06,2073.85 h 6.8711 v 1330.39 h -6.8711 z"
         style="fill:#e2e2e0;fill-opacity:1;fill-rule:nonzero;stroke:none"
         id="path106" /><path
         d="m 1632.17,3553.89 h 1735.66 c 4.59,0 8.34,-3.76 8.34,-8.35 0,-4.59 -3.75,-8.34 -8.34,-8.34 H 1632.17 c -4.59,0 -8.34,3.75 -8.34,8.34 0,4.59 3.75,8.35 8.34,8.35"
         style="fill:#e2e2e0;fill-opacity:1;fill-rule:nonzero;stroke:none"
         id="path108" /><path
         d="m 3297.46,3498.8 v 0 c 6.2,0 11.27,5.08 11.27,11.27 v 24.21 c 0,6.19 -5.07,11.26 -11.27,11.26 -6.2,0 -11.27,-5.07 -11.27,-11.26 v -24.21 c 0,-6.19 5.07,-11.27 11.27,-11.27"
         style="fill:#e2e2e0;fill-opacity:1;fill-rule:nonzero;stroke:none"
         id="path110" /><path
         d="m 1758.04,3498.8 c 6.2,0 11.27,5.07 11.27,11.27 v 24.21 c 0,6.19 -5.07,11.26 -11.27,11.26 -6.19,0 -11.26,-5.07 -11.26,-11.26 v -24.21 c 0,-6.2 5.07,-11.27 11.26,-11.27"
         style="fill:#e2e2e0;fill-opacity:1;fill-rule:nonzero;stroke:none"
         id="path112" /><path
         d="m 1659.35,3026.07 h -24.51 v 511.13 h 112.32 c -0.25,-0.94 -0.38,-1.91 -0.38,-2.92 v -24.21 c 0,-6.2 5.07,-11.27 11.26,-11.27 6.2,0 11.27,5.07 11.27,11.27 v 24.21 c 0,1.01 -0.13,1.98 -0.38,2.92 h 655.78 v -67.5 H 1695.4 1659.35 V 3026.07 M 3256.1,3469.7 h -708.55 v 67.5 h 708.55 v -67.5 m -711.05,0 h -117.84 v 67.5 h 117.84 v -67.5"
         style="fill:#e9e9e7;fill-opacity:1;fill-rule:nonzero;stroke:none"
         id="path114" /><path
         d="m 2424.71,3469.7 h 2.5 v 67.4922 h -2.5 z"
         style="fill:#dedfdc;fill-opacity:1;fill-rule:nonzero;stroke:none"
         id="path116" /><path
         d="m 2545.05,3469.7 h 2.5 v 67.4922 h -2.5 z"
         style="fill:#dedfdc;fill-opacity:1;fill-rule:nonzero;stroke:none"
         id="path118" /><path
         d="m 3256.1,2599.97 c -9.72,1.57 -20.67,3.21 -32.45,4.74 -0.17,0.67 -0.35,1.33 -0.53,2 -0.62,2.22 -2.64,3.68 -4.83,3.68 -0.4,0 -0.81,-0.05 -1.21,-0.15 v 794 h -439.37 v 48.67 h -97.59 v -48.67 h -415.6 v 48.67 h -97.6 v -48.67 h -442.86 v -378.17 h -64.71 v 443.63 h 36.05 1560.7 v -869.73"
         style="fill:#e4e4e2;fill-opacity:1;fill-rule:nonzero;stroke:none"
         id="path120" /><path
         d="m 2680.12,2401.17 h -32.66 l -5.58,108.29 38.24,-86.56 v -21.73 m 169.61,89.59 -58.1,131.54 v 781.94 h -13.92 439.37 v -794 c -0.04,-0.01 -0.07,-0.02 -0.11,-0.03 -2.01,-0.55 -3.4,-2.26 -3.64,-4.21 -18.31,2.19 -38.18,4.06 -58.19,5.02 -32.02,1.54 -60.82,2.79 -88.77,2.79 -22.03,0 -43.53,-0.77 -65.71,-2.8 -19.41,-1.77 -39.58,-4.34 -58.4,-7.09 -0.45,0.23 -0.88,0.45 -1.32,0.65 -3.86,1.83 -7.43,2.75 -10.67,2.75 -2.2,0 -4.25,-0.43 -6.14,-1.28 -2.1,-0.95 -3.23,-3.17 -2.89,-5.34 -35.54,-5.69 -62.17,-11.14 -62.17,-11.14 0,0 -12.9,-4.55 -9.34,-98.8 m -169.61,384.02 -233.86,529.46 h -181.74 415.6 v -529.46 m -266.42,151.29 h -56.57 l -78.69,178.15 v 128.1 l 135.26,-306.25 m -246.78,0 h -435.99 v 378.17 h -6.87 v -378.17 378.17 h 442.86 -114.26 l 114.26,-258.7 v -119.47"
         style="fill:#e6e6e4;fill-opacity:1;fill-rule:nonzero;stroke:none"
         id="path122" /><path
         d="m 2856.02,2401.17 h -64.39 v 221.13 l 58.1,-131.54 c 0.9,-23.73 2.84,-53.13 6.29,-89.59 m -175.9,21.73 -38.24,86.56 -22.86,443.61 c -2.08,40.32 -36.44,73 -76.75,73 H 2413.7 l -135.26,306.25 v 71.92 h -13.92 181.74 l 233.86,-529.46 V 2422.9"
         style="fill:#e8e9e6;fill-opacity:1;fill-rule:nonzero;stroke:none"
         id="path124" /><path
         d="m 2357.13,3026.07 h -78.69 v 178.15 l 78.69,-178.15 m -190.21,119.47 -114.26,258.7 h 114.26 v -258.7"
         style="fill:#e8e9e6;fill-opacity:1;fill-rule:nonzero;stroke:none"
         id="path126" /><path
         d="m 2278.44,3026.07 h -13.92 v 378.17 h 13.92 v -71.92 -128.1 -178.15"
         style="fill:#dcddda;fill-opacity:1;fill-rule:nonzero;stroke:none"
         id="path128" /><path
         d="m 2791.63,2401.17 h -13.92 v 1003.07 h 13.92 V 2622.3 2401.17"
         style="fill:#dcddda;fill-opacity:1;fill-rule:nonzero;stroke:none"
         id="path130" /><path
         d="m 2264.52,3026.07 h -97.6 v 426.84 h 97.6 v -48.67 -378.17"
         style="fill:#e4e4e2;fill-opacity:1;fill-rule:nonzero;stroke:none"
         id="path132" /><path
         d="m 2777.71,2401.17 h -97.59 v 1051.74 h 97.59 v -48.67 -1003.07"
         style="fill:#e4e4e2;fill-opacity:1;fill-rule:nonzero;stroke:none"
         id="path134" /><path
         d="m 1724.06,3026.07 h 6.8711 v 378.172 h -6.8711 z"
         style="fill:#dcddda;fill-opacity:1;fill-rule:nonzero;stroke:none"
         id="path136" /><path
         d="M 3256.1,3537.2 H 1768.93 c -1.3,4.79 -5.7,8.34 -10.89,8.34 H 3256.1 v -8.34 m -1508.94,0 h -112.32 v 8.34 h 123.2 c -5.19,0 -9.58,-3.55 -10.88,-8.34"
         style="fill:#dcddda;fill-opacity:1;fill-rule:nonzero;stroke:none"
         id="path138" /><path
         d="m 1758.04,3498.8 c -6.19,0 -11.26,5.07 -11.26,11.27 v 24.21 c 0,1.01 0.13,1.98 0.38,2.92 1.3,4.79 5.69,8.34 10.88,8.34 v 0 c 5.19,0 9.59,-3.55 10.89,-8.34 0.25,-0.94 0.38,-1.91 0.38,-2.92 v -24.21 c 0,-6.2 -5.07,-11.27 -11.27,-11.27"
         style="fill:#dcddda;fill-opacity:1;fill-rule:nonzero;stroke:none"
         id="path140" /><path
         d="m 3402.86,1438.9 h -279.51 c -29.72,0 -53.82,24.09 -53.82,53.82 v 129.37 c 0,29.73 24.1,53.82 53.82,53.82 h 279.51 c 29.72,0 53.82,-24.09 53.82,-53.82 v -129.37 c 0,-29.73 -24.1,-53.82 -53.82,-53.82"
         style="fill:#fafaf9;fill-opacity:1;fill-rule:nonzero;stroke:none"
         id="path142" /><path
         d="M 3438.61,1668.94 H 3087.6 c -9.98,0 -18.07,8.09 -18.07,18.07 v 14.61 c 0,9.98 8.09,18.07 18.07,18.07 h 351.01 c 9.98,0 18.07,-8.09 18.07,-18.07 v -14.61 c 0,-9.98 -8.09,-18.07 -18.07,-18.07"
         style="fill:#e2e2e0;fill-opacity:1;fill-rule:nonzero;stroke:none"
         id="path144" /><path
         d="m 3075.23,1176.07 c 0,0 5.07,-166.63 199.27,-166.63 194.2,0 199.27,166.63 199.27,166.63 h -398.54"
         style="fill:#ededeb;fill-opacity:1;fill-rule:nonzero;stroke:none"
         id="path146" /><path
         d="m 3518.04,1176.07 c 0,0 5.07,-166.63 199.27,-166.63 194.21,0 199.27,166.63 199.27,166.63 h -398.54"
         style="fill:#ededeb;fill-opacity:1;fill-rule:nonzero;stroke:none"
         id="path148" /><path
         d="m 3820.48,1438.9 h -384.11 c -40.85,0 -73.96,33.11 -73.96,73.96 v 196.44 c 0,40.85 33.11,73.96 73.96,73.96 h 384.11 c 40.85,0 73.96,-33.11 73.96,-73.96 v -196.44 c 0,-40.85 -33.11,-73.96 -73.96,-73.96"
         style="fill:#ededeb;fill-opacity:1;fill-rule:nonzero;stroke:none"
         id="path150" /><path
         d="m 3869.61,1773.67 h -482.37 c -13.72,0 -24.83,11.12 -24.83,24.83 v 20.09 c 0,13.72 11.11,24.83 24.83,24.83 h 482.37 c 13.72,0 24.83,-11.11 24.83,-24.83 v -20.09 c 0,-13.71 -11.11,-24.83 -24.83,-24.83"
         style="fill:#f3f2f1;fill-opacity:1;fill-rule:nonzero;stroke:none"
         id="path152" /><path
         d="m 2928.96,451.641 h 50.38 v 826.429 h -50.38 V 451.641"
         style="fill:#e2e2e0;fill-opacity:1;fill-rule:nonzero;stroke:none"
         id="path154" /><path
         d="m 4384.18,1278.07 h -272.9 v 160.83 h 272.9 v -160.83"
         style="fill:#e2e2e0;fill-opacity:1;fill-rule:nonzero;stroke:none"
         id="path156" /><path
         d="m 2754.47,1278.07 h 1356.8 v 160.828 h -1356.8 z"
         style="fill:#f3f2f1;fill-opacity:1;fill-rule:nonzero;stroke:none"
         id="path158" /><path
         d="m 4384.18,848.602 h -272.9 v 160.828 h 272.9 V 848.602"
         style="fill:#e2e2e0;fill-opacity:1;fill-rule:nonzero;stroke:none"
         id="path160" /><path
         d="M 2754.47,848.602 H 4111.28 V 1009.43 H 2754.47 V 848.602"
         style="fill:#f3f2f1;fill-opacity:1;fill-rule:nonzero;stroke:none"
         id="path162" /><path
         d="m 4285.77,451.641 h 50.38 v 826.429 h -50.38 V 451.641"
         style="fill:#e2e2e0;fill-opacity:1;fill-rule:nonzero;stroke:none"
         id="path164" /><path
         d="m 4060.89,451.641 h 50.39 v 826.429 h -50.39 V 451.641"
         style="fill:#f3f2f1;fill-opacity:1;fill-rule:nonzero;stroke:none"
         id="path166" /><path
         d="m 2754.47,451.641 h 50.38 v 826.429 h -50.38 V 451.641"
         style="fill:#f3f2f1;fill-opacity:1;fill-rule:nonzero;stroke:none"
         id="path168" /><path
         d="M 4438.89,113.238 C 4438.89,50.6992 3570.82,0 2500,0 1429.18,0 561.109,50.6992 561.109,113.238 c 0,62.532 868.071,113.231 1938.891,113.231 1070.82,0 1938.89,-50.699 1938.89,-113.231"
         style="fill:#f3f2f1;fill-opacity:1;fill-rule:nonzero;stroke:none"
         id="path170" /><path
         d="M 2604.14,620.66 H 1328.4 c -42.15,0 -78.08,34.172 -80.25,76.32 l -114.18,2215.5 c -2.17,42.16 30.24,76.32 72.38,76.32 h 1275.74 c 42.15,0 78.08,-34.16 80.26,-76.32 l 114.17,-2215.5 c 2.18,-42.148 -30.23,-76.32 -72.38,-76.32"
         style="fill:#406fbf;fill-opacity:1;fill-rule:nonzero;stroke:none"
         id="path172" /><path
         d="M 2604.14,620.66 H 1328.4 c -24.9,0 -47.63,11.918 -62.51,30.371 -10.31,12.778 -16.85,28.688 -17.74,45.949 l -94.54,1834.43 -19.64,381.07 c -0.07,1.32 -0.1,2.63 -0.1,3.93 -0.04,40.33 31.65,72.39 72.48,72.39 h 54.06 c -5.4,-10.56 -8.16,-22.75 -7.49,-35.73 l 109.2,-2118.898 c 2.08,-40.32 36.44,-73 76.76,-73 h 1220.11 c 4.87,0 9.6,0.476 14.15,1.387 l 3.38,-65.579 c 0.07,-1.32 0.11,-2.628 0.11,-3.929 0.03,-40.332 -31.66,-72.391 -72.49,-72.391"
         style="fill:#cfe0f5;fill-opacity:1;fill-rule:nonzero;stroke:none"
         id="path174" /><path
         d="m 2356.19,3051.07 h -141.12 v 10 h 141.12 v -10"
         style="fill:#406fbf;fill-opacity:1;fill-rule:nonzero;stroke:none"
         id="path176" /><path
         d="m 2166.19,3051.07 h -51.67 v 10 h 51.67 v -10"
         style="fill:#406fbf;fill-opacity:1;fill-rule:nonzero;stroke:none"
         id="path178" /><path
         d="M 2658.99,761.172 H 1438.88 c -40.32,0 -74.68,32.68 -76.76,73 l -109.2,2118.898 c -2.07,40.32 28.92,73 69.23,73 h 1220.12 c 40.31,0 74.67,-32.68 76.75,-73 l 109.2,-2118.898 c 2.08,-40.32 -28.92,-73 -69.23,-73"
         style="fill:#406fbf;fill-opacity:1;fill-rule:nonzero;stroke:none"
         id="path180" /><path
         d="m 1322.15,2974.82 c -6.77,0 -10.98,-2.94 -13.32,-5.39 -2.35,-2.48 -5.08,-6.87 -4.73,-13.72 L 1413.31,836.801 c 0.66,-12.992 12.61,-24.379 25.57,-24.379 h 1220.11 c 6.78,0 10.98,2.93 13.31,5.387 2.36,2.472 5.09,6.863 4.74,13.722 l -109.2,2118.899 c -0.67,12.99 -12.62,24.39 -25.57,24.39 H 1322.15 M 2658.99,809.922 H 1438.88 c -14.22,0 -27.34,12.5 -28.07,26.75 L 1301.6,2955.59 c -0.39,7.73 2.73,12.73 5.42,15.55 2.67,2.82 7.47,6.18 15.13,6.18 h 1220.12 c 14.21,0 27.33,-12.5 28.07,-26.76 l 109.2,-2118.9 c 0.39,-7.738 -2.73,-12.738 -5.42,-15.57 -2.67,-2.809 -7.46,-6.168 -15.13,-6.168"
         style="fill:#ffffff;fill-opacity:1;fill-rule:nonzero;stroke:none"
         id="path182" /><path
         d="m 1979.93,2100.12 c -203.99,0 -377.88,165.37 -388.4,369.36 -10.51,203.99 146.34,369.36 350.33,369.36 203.99,0 377.88,-165.37 388.39,-369.36 10.52,-203.99 -146.33,-369.36 -350.32,-369.36"
         style="fill:#6d97d6;fill-opacity:1;fill-rule:nonzero;stroke:none"
         id="path184" /><path
         d="m 2259.73,2469.48 c 2.66,-51.61 -7.94,-100.07 -28.78,-142.35 -45.61,-93.14 -141.05,-156.49 -254.65,-156.49 -113.61,0 -215.58,63.35 -270.79,156.49 -25.2,42.28 -40.79,90.74 -43.45,142.35 -8.51,165.07 118.37,298.83 283.43,298.83 165.07,0 305.73,-133.76 314.24,-298.83"
         style="fill:#ffffff;fill-opacity:1;fill-rule:nonzero;stroke:none"
         id="path186" /><path
         d="m 2230.95,2327.13 c -45.61,-93.14 -141.05,-156.49 -254.65,-156.49 -113.61,0 -215.58,63.35 -270.79,156.49 72.64,50.26 161.41,79.6 258.62,79.6 97.2,0 189,-29.34 266.82,-79.6"
         style="fill:#406fbf;fill-opacity:1;fill-rule:nonzero;stroke:none"
         id="path188" /><path
         d="m 2088.74,2571.71 c 3.79,-73.51 -52.73,-133.11 -126.25,-133.11 -73.52,0 -136.19,59.6 -139.97,133.11 -3.79,73.52 52.73,133.12 126.25,133.12 73.52,0 136.19,-59.6 139.97,-133.12"
         style="fill:#406fbf;fill-opacity:1;fill-rule:nonzero;stroke:none"
         id="path190" /><path
         d="m 2484.13,1585.4 h -955.34 c -17.06,0 -31.6,13.83 -32.48,30.89 l -7.23,140.38 c -0.88,17.06 12.23,30.89 29.29,30.89 h 955.34 c 17.06,0 31.6,-13.83 32.48,-30.89 l 7.24,-140.38 c 0.87,-17.06 -12.24,-30.89 -29.3,-30.89"
         style="fill:#ffffff;fill-opacity:1;fill-rule:nonzero;stroke:none"
         id="path192" /><path
         d="m 2191.56,1864.65 h -398.99 c -17.06,0 -31.6,13.83 -32.48,30.89 l -1.53,29.81 c -0.88,17.06 12.23,30.88 29.29,30.88 h 399 c 17.06,0 31.6,-13.82 32.48,-30.88 l 1.53,-29.81 c 0.88,-17.06 -12.24,-30.89 -29.3,-30.89"
         style="fill:#2d5bb2;fill-opacity:1;fill-rule:nonzero;stroke:none"
         id="path194" /><path
         d="m 2339.94,912.551 h -597.61 c -29.05,0 -53.81,23.539 -55.31,52.597 l -3.55,68.922 c -1.5,29.05 20.84,52.6 49.89,52.6 h 597.61 c 29.05,0 53.81,-23.55 55.31,-52.6 l 3.55,-68.922 c 1.5,-29.058 -20.84,-52.597 -49.89,-52.597"
         style="fill:#2d5bb2;fill-opacity:1;fill-rule:nonzero;stroke:none"
         id="path196" /><path
         d="m 2501.57,1247.05 h -955.34 c -17.06,0 -31.6,13.83 -32.48,30.89 l -7.24,140.38 c -0.88,17.06 12.24,30.89 29.3,30.89 h 955.34 c 17.06,0 31.6,-13.83 32.48,-30.89 l 7.23,-140.38 c 0.88,-17.06 -12.23,-30.89 -29.29,-30.89"
         style="fill:#ffffff;fill-opacity:1;fill-rule:nonzero;stroke:none"
         id="path198" /><path
         d="m 1650.28,1686.48 c 0.97,-18.88 -13.55,-34.19 -32.43,-34.19 -18.89,0 -34.99,15.31 -35.96,34.19 -0.97,18.89 13.55,34.2 32.43,34.2 18.89,0 34.98,-15.31 35.96,-34.2"
         style="fill:#17282f;fill-opacity:1;fill-rule:nonzero;stroke:none"
         id="path200" /><path
         d="m 1755.35,1686.48 c 0.97,-18.88 -13.55,-34.19 -32.43,-34.19 -18.89,0 -34.99,15.31 -35.96,34.19 -0.97,18.89 13.55,34.2 32.43,34.2 18.89,0 34.99,-15.31 35.96,-34.2"
         style="fill:#17282f;fill-opacity:1;fill-rule:nonzero;stroke:none"
         id="path202" /><path
         d="m 1860.42,1686.48 c 0.97,-18.88 -13.55,-34.19 -32.43,-34.19 -18.89,0 -34.98,15.31 -35.96,34.19 -0.97,18.89 13.55,34.2 32.44,34.2 18.88,0 34.98,-15.31 35.95,-34.2"
         style="fill:#17282f;fill-opacity:1;fill-rule:nonzero;stroke:none"
         id="path204" /><path
         d="m 1965.49,1686.48 c 0.98,-18.88 -13.54,-34.19 -32.43,-34.19 -18.88,0 -34.98,15.31 -35.95,34.19 -0.98,18.89 13.54,34.2 32.43,34.2 18.88,0 34.98,-15.31 35.95,-34.2"
         style="fill:#17282f;fill-opacity:1;fill-rule:nonzero;stroke:none"
         id="path206" /><path
         d="m 1667.71,1348.13 c 0.98,-18.89 -13.54,-34.2 -32.43,-34.2 -18.88,0 -34.98,15.31 -35.95,34.2 -0.98,18.88 13.54,34.19 32.43,34.19 18.88,0 34.98,-15.31 35.95,-34.19"
         style="fill:#17282f;fill-opacity:1;fill-rule:nonzero;stroke:none"
         id="path208" /><path
         d="m 1772.79,1348.13 c 0.97,-18.89 -13.55,-34.2 -32.44,-34.2 -18.88,0 -34.98,15.31 -35.95,34.2 -0.98,18.88 13.55,34.19 32.43,34.19 18.89,0 34.98,-15.31 35.96,-34.19"
         style="fill:#17282f;fill-opacity:1;fill-rule:nonzero;stroke:none"
         id="path210" /><path
         d="m 1877.86,1348.13 c 0.97,-18.89 -13.55,-34.2 -32.43,-34.2 -18.89,0 -34.99,15.31 -35.96,34.2 -0.97,18.88 13.55,34.19 32.43,34.19 18.89,0 34.99,-15.31 35.96,-34.19"
         style="fill:#17282f;fill-opacity:1;fill-rule:nonzero;stroke:none"
         id="path212" /><path
         d="m 1982.93,1348.13 c 0.97,-18.89 -13.55,-34.2 -32.43,-34.2 -18.89,0 -34.98,15.31 -35.96,34.2 -0.97,18.88 13.55,34.19 32.43,34.19 18.89,0 34.99,-15.31 35.96,-34.19"
         style="fill:#17282f;fill-opacity:1;fill-rule:nonzero;stroke:none"
         id="path214" /><path
         d="m 2088,1348.13 c 0.98,-18.89 -13.54,-34.2 -32.43,-34.2 -18.88,0 -34.98,15.31 -35.96,34.2 -0.97,18.88 13.55,34.19 32.44,34.19 18.88,0 34.98,-15.31 35.95,-34.19"
         style="fill:#17282f;fill-opacity:1;fill-rule:nonzero;stroke:none"
         id="path216" /><path
         d="m 2193.08,1348.13 c 0.97,-18.89 -13.55,-34.2 -32.44,-34.2 -18.88,0 -34.98,15.31 -35.95,34.2 -0.98,18.88 13.54,34.19 32.43,34.19 18.88,0 34.98,-15.31 35.96,-34.19"
         style="fill:#17282f;fill-opacity:1;fill-rule:nonzero;stroke:none"
         id="path218" /><path
         d="m 3330.31,2509.37 c 2.51,-3.71 3.78,-5.75 5.43,-8.42 l 4.47,-7.48 c 2.9,-4.95 5.44,-9.89 8,-14.83 5,-9.89 9.73,-19.79 13.96,-29.79 8.57,-20 15.6,-40.42 21.68,-60.98 12.32,-41.1 19.85,-83.22 23.71,-125.35 l 0.78,-7.9 c 0.14,-1.13 0.24,-2.91 0.32,-4.77 l 0.22,-5.38 c 0.13,-7.11 -0.22,-14.14 -1.21,-20.79 -1.88,-13.41 -5.49,-25.79 -9.92,-37.24 -8.99,-22.8 -21.34,-42.17 -34.59,-59.8 -27.12,-35.11 -57.91,-63.21 -93.09,-88.12 l -27.55,32.26 c 24.72,28.59 48.67,60.27 66.41,91.9 9.05,15.77 15.97,32.04 20.27,47.2 2.02,7.58 3.11,14.87 3.28,21.44 0.23,3.32 -0.01,6.39 -0.33,9.3 l -0.31,2.13 c -0.07,0.65 -0.15,1.38 -0.41,2.73 l -1.25,7.04 c -6.54,37.53 -15.47,74.41 -27.18,110.03 -5.75,17.86 -12.86,35.12 -20.07,52.08 -3.57,8.51 -7.52,16.76 -11.56,24.81 l -6.2,11.75 -3.08,5.57 -2.54,4.37 70.76,48.24"
         style="fill:#892f38;fill-opacity:1;fill-rule:nonzero;stroke:none"
         id="path220" /><path
         d="m 3236.96,2037.88 36.21,-76.45 28.72,64.65 c 0,0 -25.45,56 -59.89,50.87 l -5.04,-39.07"
         style="fill:#872f37;fill-opacity:1;fill-rule:nonzero;stroke:none"
         id="path222" /><path
         d="m 3299.12,1957.64 28.75,47.14 -25.98,21.3 -28.72,-64.65 25.95,-3.79"
         style="fill:#872f37;fill-opacity:1;fill-rule:nonzero;stroke:none"
         id="path224" /><path
         d="m 3152.85,199.281 c -14.59,-2.922 -25.55,-2.41 -29.79,1.457 -1.81,1.641 -2.47,3.953 -2.04,7.051 0.24,1.68 1.01,2.231 1.65,2.52 5.15,2.363 19.81,-4.758 30.18,-11.028 z m -16.51,-5.84 c 7.74,0 16.2,1.598 22.12,3.008 l 1.5,1.582 -0.87,2 c -2.86,1.891 -28.31,18.309 -38.05,13.899 -1.54,-0.7 -3.48,-2.231 -3.95,-5.578 -0.62,-4.442 0.48,-7.993 3.29,-10.551 3.57,-3.25 9.52,-4.36 15.96,-4.36"
         style="fill:#406fbf;fill-opacity:1;fill-rule:nonzero;stroke:none"
         id="path226" /><path
         d="m 3143.75,230.34 c 1.63,0 3.07,-0.57 4.39,-1.738 5.43,-4.813 7.3,-18.352 7.76,-26.372 -7.97,6.352 -17.47,19.93 -16.32,25.692 0.19,0.937 0.73,2.058 3.27,2.367 z m 14.25,-33.949 1,0.269 0.99,1.711 c 0,1.027 -0.12,25.141 -9.22,33.199 -2.42,2.149 -5.26,3.051 -8.4,2.649 -4.97,-0.598 -6.32,-3.719 -6.68,-5.528 -1.89,-9.441 13.34,-27.511 21.34,-32.043 l 0.97,-0.257"
         style="fill:#406fbf;fill-opacity:1;fill-rule:nonzero;stroke:none"
         id="path228" /><path
         d="m 2995.34,227.91 c 4.46,4.832 24.24,6.129 39.1,5.891 -15.58,-10.551 -28.44,-15.59 -34.96,-13.559 -2.29,0.707 -3.83,2.289 -4.73,4.809 -0.35,0.988 -0.26,1.758 0.29,2.508 z m 46.56,6.34 0.45,1.91 -1.81,1.418 c -4.15,0.203 -40.09,1.692 -48.19,-7.058 l -0.49,-0.59 c -1.35,-1.821 -1.65,-3.969 -0.85,-6.2 1.33,-3.738 3.78,-6.191 7.29,-7.281 11.64,-3.617 32.13,9.442 43.31,17.543 l 0.29,0.258"
         style="fill:#406fbf;fill-opacity:1;fill-rule:nonzero;stroke:none"
         id="path230" /><path
         d="m 3005.99,254.301 1.9,1.449 c 2.61,1.531 5.35,1.879 8.37,1.07 8.69,-2.351 16.87,-13.461 20.49,-19.019 -11.82,1.347 -29.94,8.66 -31.47,14.219 -0.1,0.332 -0.32,1.16 0.71,2.281 z m 35.91,-20.051 0.26,0.352 0.01,1.968 c -0.47,0.828 -11.64,20.512 -24.88,24.078 -4.04,1.09 -7.89,0.594 -11.41,-1.476 -4.76,-2.793 -5.03,-6.012 -4.43,-8.203 2.56,-9.27 28.05,-17.43 39.01,-17.36 l 1.44,0.641"
         style="fill:#406fbf;fill-opacity:1;fill-rule:nonzero;stroke:none"
         id="path232" /><path
         d="m 3151.99,2802.32 c -9.74,-49.71 -31.63,-158.13 3.15,-191.3 0,0 -13.59,-50.42 -105.95,-50.42 -101.55,0 -48.53,50.41 -48.53,50.41 55.43,13.24 54,54.36 44.34,92.98 l 106.99,98.33"
         style="fill:#872f37;fill-opacity:1;fill-rule:nonzero;stroke:none"
         id="path234" /><path
         d="m 2982.75,2919.54 1.78,0.42 c 1.95,0.98 2.75,3.36 1.77,5.33 -9.83,19.62 -28.01,21.9 -28.78,21.98 -2.17,0.27 -4.14,-1.31 -4.39,-3.49 -0.25,-2.17 1.31,-4.13 3.47,-4.39 0.6,-0.07 14.76,-2 22.6,-17.66 0.7,-1.39 2.1,-2.19 3.55,-2.19"
         style="fill:#17282f;fill-opacity:1;fill-rule:nonzero;stroke:none"
         id="path236" /><path
         d="m 2952.47,2876.1 c 0,0 -14.95,-27.46 -29.2,-39.84 7.83,-9.35 23.35,-7.44 23.35,-7.44 l 5.85,47.28"
         style="fill:#6b1317;fill-opacity:1;fill-rule:nonzero;stroke:none"
         id="path238" /><path
         d="m 2959.9,2886.88 c -0.83,-6.71 -5.06,-11.7 -9.44,-11.16 -4.39,0.54 -7.27,6.42 -6.44,13.12 0.83,6.71 5.06,11.7 9.44,11.16 4.38,-0.54 7.26,-6.42 6.44,-13.12"
         style="fill:#17282f;fill-opacity:1;fill-rule:nonzero;stroke:none"
         id="path240" /><path
         d="m 2955.35,2899.39 -15.53,6.63 c 0,0 6.71,-13.6 15.53,-6.63"
         style="fill:#17282f;fill-opacity:1;fill-rule:nonzero;stroke:none"
         id="path242" /><path
         d="m 3130.16,253.25 -81.57,-19.051 -49.57,187.621 81.57,19.051 49.57,-187.621"
         style="fill:#872f37;fill-opacity:1;fill-rule:nonzero;stroke:none"
         id="path244" /><path
         d="m 3255.41,198.379 h -83.76 l 6.57,193.973 h 83.76 l -6.57,-193.973"
         style="fill:#872f37;fill-opacity:1;fill-rule:nonzero;stroke:none"
         id="path246" /><path
         d="m 3165.01,208.07 h 94.11 c 3.42,0 6.2,-2.379 6.68,-5.718 l 10.72,-74.454 c 1.12,-7.726 -5.53,-15.039 -13.42,-14.898 -32.81,0.57 -48.62,2.488 -90.01,2.488 -25.46,0 -62.65,-2.636 -97.81,-2.636 -34.39,0 -37.03,34.757 -22.39,37.91 65.64,14.117 76.01,33.59 98.12,52.16 3.99,3.348 8.99,5.148 14,5.148"
         style="fill:#17282f;fill-opacity:1;fill-rule:nonzero;stroke:none"
         id="path248" /><path
         d="m 3041.36,246.699 85.49,39.321 c 3.11,1.429 6.63,0.441 8.47,-2.399 l 40.85,-63.16 c 4.24,-6.551 1.26,-15.973 -5.97,-19.152 -30.04,-13.188 -45.21,-18.047 -82.81,-35.348 -23.13,-10.641 -69.86,-35.051 -101.8,-49.742 -31.24,-14.367 -48.18,16.113 -36.19,25.082 53.73,40.258 69.07,68.75 81.39,94.859 2.23,4.711 6.02,8.442 10.57,10.539"
         style="fill:#17282f;fill-opacity:1;fill-rule:nonzero;stroke:none"
         id="path250" /><path
         d="m 3106.15,344.109 -13.75,52.063 0.04,0.019 13.75,-52.07 -0.04,-0.012"
         style="fill:#c3c5c2;fill-opacity:1;fill-rule:nonzero;stroke:none"
         id="path252" /><path
         d="m 3025.59,321.262 -12.22,46.277 79.03,28.633 13.75,-52.063 -80.56,-22.847"
         style="fill:#682329;fill-opacity:1;fill-rule:nonzero;stroke:none"
         id="path254" /><path
         d="m 3258.65,292.309 h -0.06 l 0.66,19.363 h 0.05 l -0.65,-19.363"
         style="fill:#c3c5c2;fill-opacity:1;fill-rule:nonzero;stroke:none"
         id="path256" /><path
         d="m 3258.59,292.309 h -83.74 l 0.65,19.363 h 83.75 l -0.66,-19.363"
         style="fill:#682329;fill-opacity:1;fill-rule:nonzero;stroke:none"
         id="path258" /><path
         d="m 3299.6,2591.99 c 34.79,-7.63 71.96,-132.81 71.96,-132.81 l -98.39,-104.62 c 0,0 -81.63,117.57 -65,160.81 17.32,45.02 50.3,85.63 91.43,76.62"
         style="fill:#17282f;fill-opacity:1;fill-rule:nonzero;stroke:none"
         id="path260" /><path
         d="m 3265.34,2366.22 c -2.65,4.1 -5.85,9.13 -9.38,14.86 0.01,0.03 0.01,0.05 0.02,0.07 3.52,-5.73 6.72,-10.75 9.38,-14.86 0,-0.02 -0.01,-0.05 -0.02,-0.07"
         style="fill:#858889;fill-opacity:1;fill-rule:nonzero;stroke:none"
         id="path262" /><path
         d="m 3265.36,2366.29 c -2.66,4.11 -5.86,9.13 -9.38,14.86 4.06,24.11 8.93,50.27 14.73,79 6.23,-33.98 0.19,-71.66 -5.35,-93.86"
         style="fill:#0c1418;fill-opacity:1;fill-rule:nonzero;stroke:none"
         id="path264" /><path
         d="m 2859.07,2589.56 c 0,0 -39.9,-14.06 40.03,-505.55 134.99,0 274.5,0 340.19,0 -5.71,138.45 -5.87,223.83 60.31,507.98 0,0 -71.28,15.5 -144.46,19.03 -57.25,2.76 -104.15,4.59 -154.48,-0.01 -66.35,-6.05 -141.59,-21.45 -141.59,-21.45"
         style="fill:#17282f;fill-opacity:1;fill-rule:nonzero;stroke:none"
         id="path266" /><path
         d="m 2863.95,2327.73 c -3.27,26.78 -5.83,50.77 -7.83,72.32 2.06,-21.57 4.63,-45.57 7.83,-72.32"
         style="fill:#8c8f8f;fill-opacity:1;fill-rule:nonzero;stroke:none"
         id="path268" /><path
         d="m 2864.94,2319.72 c -0.33,2.7 -0.66,5.37 -0.99,8.01 -3.2,26.75 -5.77,50.75 -7.83,72.32 -0.02,0.29 -0.05,0.58 -0.08,0.87 13.7,20 31.7,42.4 51.2,56.89 8.34,-41.64 -14.44,-113 -42.3,-138.09"
         style="fill:#0c1418;fill-opacity:1;fill-rule:nonzero;stroke:none"
         id="path270" /><path
         d="m 2892.35,2475.43 c -18.51,-46.75 -38.89,-91.18 -61.83,-135.55 -22.9,-44.31 -47.35,-87.85 -79.85,-129.95 l -6.4,-7.88 -3.19,-3.92 c -1.1,-1.33 -1.96,-2.49 -3.73,-4.31 -6.18,-6.82 -12.88,-12.67 -19.75,-17.57 -13.77,-9.82 -28.01,-16.07 -41.81,-20.88 -27.64,-9.3 -54.35,-12.6 -80.4,-14.16 -52.27,-2.12 -101.72,2.72 -151.59,13.46 l 5.55,42.05 c 22.98,-0.12 47.09,0.4 70.33,1.86 23.36,1.22 46.48,3.72 68.66,7.68 22.13,3.71 43.54,9.34 61.39,17.11 8.81,3.95 16.47,8.68 22.1,13.47 2.84,2.39 5.06,4.83 6.84,7.16 0.38,0.34 1.27,1.66 2.04,2.73 l 2.33,3.3 4.68,6.57 c 24.64,36.45 46.27,78.8 66.93,121.13 20.29,42.52 39.87,86.62 58.24,129.65 l 79.46,-31.95"
         style="fill:#892f38;fill-opacity:1;fill-rule:nonzero;stroke:none"
         id="path272" /><path
         d="m 2859.07,2589.56 c -41.63,-10.15 -92.86,-124.45 -92.86,-124.45 l 86.41,-126.95 c 0,0 115.05,144.83 101.37,189.09 -14.25,46.09 -44.41,74.62 -94.92,62.31"
         style="fill:#17282f;fill-opacity:1;fill-rule:nonzero;stroke:none"
         id="path274" /><path
         d="m 2473.31,2190.49 -72.08,33.28 -7.24,-71.65 c 0,0 60.24,-17.73 89.94,0.43 l -10.62,37.94"
         style="fill:#872f37;fill-opacity:1;fill-rule:nonzero;stroke:none"
         id="path276" /><path
         d="m 2358.06,2231.01 -6.88,-54.56 42.81,-24.33 7.24,71.65 -43.17,7.24"
         style="fill:#872f37;fill-opacity:1;fill-rule:nonzero;stroke:none"
         id="path278" /><path
         d="m 3188.19,2882 c -15.25,-81.72 -19.96,-116.64 -66.78,-153.76 -70.42,-55.83 -167.47,-19.24 -176.94,65.39 -8.54,76.18 17.83,197.03 102.49,219.82 83.41,22.46 156.47,-49.73 141.23,-131.45"
         style="fill:#872f37;fill-opacity:1;fill-rule:nonzero;stroke:none"
         id="path280" /><path
         d="m 3008.68,2864.79 c -4.67,-41.67 -6.47,-149.94 85.07,-153.34 112.19,-4.17 145.77,91.67 135.77,130 58.33,47.5 66.77,129.16 1.18,191.67 -65.59,62.5 -210,27.56 -250.35,-33.33 -50,-75.48 28.33,-135 28.33,-135"
         style="fill:#17282f;fill-opacity:1;fill-rule:nonzero;stroke:none"
         id="path282" /><path
         d="m 3121.01,3008.84 c -5.42,43.95 -1.21,74.28 39.9,74.28 41.11,0 97.36,-14.94 117.98,-57.05 20.63,-42.12 22.29,-107.95 -35.21,-101.28 -57.5,6.66 -116.18,31.43 -122.67,84.05"
         style="fill:#406fbf;fill-opacity:1;fill-rule:nonzero;stroke:none"
         id="path284" /><path
         d="m 3184.77,3019.39 c -9.79,52.44 36.91,199.97 150.86,209.56 52.78,4.44 77.22,-52.36 49.58,-61.72 49.86,0.61 82,-65.48 35.37,-75.44 36.87,-23.55 27.69,-72 -24.81,-95.75 -38.71,-17.52 -197.44,-49.19 -211,23.35"
         style="fill:#17282f;fill-opacity:1;fill-rule:nonzero;stroke:none"
         id="path286" /><path
         d="m 3306.5,2963.1 c -36.66,-0.01 -75,5.38 -98.75,21.29 -14.42,9.66 -22.33,22.46 -23.51,38.06 -0.1,1.38 0.93,2.58 2.3,2.68 1.46,0.11 2.58,-0.93 2.69,-2.3 1.05,-13.99 8.22,-25.53 21.3,-34.29 45.25,-30.3 149.84,-20.49 182.61,-9.79 28.19,9.19 47.28,27.02 51.07,47.69 2.78,15.16 -3.17,29.52 -16.74,40.45 -1.08,0.87 -1.25,2.45 -0.39,3.52 0.87,1.07 2.45,1.24 3.52,0.38 14.85,-11.96 21.6,-28.45 18.53,-45.25 -4.13,-22.5 -24.48,-41.77 -54.44,-51.55 -17.16,-5.6 -51.85,-10.89 -88.19,-10.89"
         style="fill:#17282f;fill-opacity:1;fill-rule:nonzero;stroke:none"
         id="path288" /><path
         d="m 2983.17,2875.83 c -10.05,-13.91 -12.93,-31.2 -10.72,-45.15 3.33,-20.97 23.78,-22.36 38.58,-8.92 13.33,12.1 27.65,37.6 16.74,54.99 -10.75,17.13 -33.12,14.98 -44.6,-0.92"
         style="fill:#872f37;fill-opacity:1;fill-rule:nonzero;stroke:none"
         id="path290" /><path
         d="m 2988.94,2084.01 c 0,0 48.61,-574.91 99.05,-898.92 40.74,-261.699 72.86,-873.418 72.86,-873.418 h 114.23 c 0,0 40.62,593.437 19.94,852.278 -52.32,654.98 64.37,708.33 -55.73,920.06 h -250.35"
         style="fill:#406fbf;fill-opacity:1;fill-rule:nonzero;stroke:none"
         id="path292" /><path
         d="m 3061.85,1374.45 c -1.33,10.63 -2.66,21.34 -3.97,32.12 v 0.01 c 1.32,-10.79 2.64,-21.49 3.97,-32.13"
         style="fill:#858889;fill-opacity:1;fill-rule:nonzero;stroke:none"
         id="path294" /><path
         d="m 3070.73,1305.72 c -2.99,22.4 -5.96,45.37 -8.88,68.73 -1.33,10.64 -2.65,21.34 -3.97,32.13 33.46,97.56 62.76,176.77 85.96,248.97 -6.15,-139.7 -37.91,-260.96 -73.11,-349.83"
         style="fill:#2251aa;fill-opacity:1;fill-rule:nonzero;stroke:none"
         id="path296" /><path
         d="m 2908.99,2087.64 c 0,0 -105.46,-627.89 -122.12,-910.91 41.42,-261.71 210.83,-814.859 210.83,-814.859 l 103.9,37.629 c 0,0 -57.48,603.2 -120.33,768.34 140.7,473.72 244.11,593.45 214.02,916.17 -71.76,0 -286.3,3.63 -286.3,3.63"
         style="fill:#406fbf;fill-opacity:1;fill-rule:nonzero;stroke:none"
         id="path298" /><path
         d="m 2983.76,334.23 140.4,38.122 -7.95,55.957 -150.33,-40.649 17.88,-53.43"
         style="fill:#17282f;fill-opacity:1;fill-rule:nonzero;stroke:none"
         id="path300" /><path
         d="m 3145.22,309.41 h 145.49 l 7.64,51.039 -153.96,5.211 0.83,-56.25"
         style="fill:#17282f;fill-opacity:1;fill-rule:nonzero;stroke:none"
         id="path302" /><path
         d="m 3244.39,2103.97 15.34,-30.45 c 1.19,-2.36 -1.61,-4.77 -5.54,-4.77 h -356.77 c -3.07,0 -5.61,1.5 -5.8,3.43 l -3.07,30.45 c -0.21,2.11 2.44,3.9 5.8,3.9 h 344.5 c 2.53,0 4.77,-1.04 5.54,-2.56"
         style="fill:#406fbf;fill-opacity:1;fill-rule:nonzero;stroke:none"
         id="path304" /><path
         d="m 3060.36,2068.75 h -162.94 c -3.07,0 -5.61,1.5 -5.8,3.43 l -3.07,30.45 c -0.01,0.09 -0.01,0.17 -0.01,0.25 0,2 2.59,3.65 5.81,3.65 h 144.85 c 5.06,-14.16 11.99,-26.93 21.16,-37.78 m 198.46,1.45 c 0.37,0.52 0.74,1.05 1.1,1.58 -0.16,-0.58 -0.55,-1.12 -1.1,-1.58"
         style="fill:#254583;fill-opacity:1;fill-rule:nonzero;stroke:none"
         id="path306" /><path
         d="m 3198.12,2065.45 h 9.22 c 1.84,0 3.24,0.95 3.12,2.11 l -4.33,39.56 c -0.13,1.16 -1.73,2.1 -3.57,2.1 h -9.23 c -1.84,0 -3.24,-0.94 -3.11,-2.1 l 4.33,-39.56 c 0.12,-1.16 1.73,-2.11 3.57,-2.11"
         style="fill:#406fbf;fill-opacity:1;fill-rule:nonzero;stroke:none"
         id="path308" /><path
         d="m 3074.27,2356.87 c -2.25,0 -4.24,1.51 -4.82,3.69 -32.63,120.54 -100.44,219.68 -132.78,234.97 -3.63,1.71 -6.63,2.2 -8.43,1.39 -2.54,-1.14 -5.49,0 -6.62,2.51 -1.13,2.51 -0.01,5.48 2.51,6.61 4.66,2.11 10.31,1.6 16.81,-1.47 34.52,-16.32 102.92,-114.32 137.14,-237.68 24.52,0.31 62.35,3.37 71.48,4.14 11.43,13.57 95.28,118.39 63.91,233.04 -0.73,2.66 0.84,5.42 3.5,6.14 2.64,0.73 5.41,-0.83 6.15,-3.5 34.92,-127.62 -66.35,-242.68 -67.38,-243.83 -0.85,-0.95 -2.02,-1.53 -3.29,-1.64 -0.5,-0.05 -50.37,-4.37 -78.18,-4.37"
         style="fill:#406fbf;fill-opacity:1;fill-rule:nonzero;stroke:none"
         id="path310" /><path
         d="m 3239.92,2286.18 c -54.51,102.18 -76.8,109.32 -86.55,142.17 0,0 8.78,24.8 31.08,49.91 -6.69,1.86 -20.84,4.69 -29.72,6.4 1.01,4.48 2.04,8.9 3.05,13.14 -7.36,2.04 -22.66,-0.07 -30.48,-1.38 l -0.35,10.09 c 0,0 -27.64,5.54 -38.75,2.46 1.11,-4.65 2.23,-9.49 3.35,-14.4 -9.74,-1.88 -25.26,-4.98 -32.59,-7.02 21.23,-23.91 28.89,-49.44 30.54,-55.74 -29.35,-50.45 -143.59,-375.1 42.16,-399.51 185.87,-24.43 162.76,151.69 108.26,253.88"
         style="fill:#406fbf;fill-opacity:1;fill-rule:nonzero;stroke:none"
         id="path312" /><path
         d="m 3164.67,2030 c -10.19,0 -21.18,0.74 -33.01,2.3 -79.18,10.4 -103.85,75.36 -103.82,150.39 0.04,100.97 44.82,220.17 61.66,249.12 v 0 0 c -1.65,6.3 -9.31,31.83 -30.54,55.74 7.33,2.04 22.85,5.14 32.59,7.02 v 0 0 c -1.12,4.91 -2.24,9.75 -3.35,14.4 2.42,0.67 5.62,0.93 9.15,0.93 12.68,0 29.6,-3.39 29.6,-3.39 l 0.35,-10.09 c 5.48,0.92 14.62,2.23 22.14,2.23 3.21,0 6.13,-0.24 8.34,-0.85 -1.01,-4.24 -2.04,-8.66 -3.05,-13.14 v 0 0 c 8.88,-1.71 23.03,-4.54 29.72,-6.4 -22.3,-25.11 -31.08,-49.91 -31.08,-49.91 v 0 0 c 9.75,-32.85 32.04,-39.99 86.55,-142.17 22.07,-41.4 39,-94.92 38.97,-142.33 -0.03,-62.18 -29.23,-113.85 -114.22,-113.85"
         style="fill:#7da6dd;fill-opacity:1;fill-rule:nonzero;stroke:none"
         id="path314" /><path
         d="m 3082.57,2441.47 c -1.37,-2.48 -1.25,-11.88 -1.45,-15.63 -0.21,-3.75 9.79,-6.25 21.04,-7.29 11.25,-1.04 57.71,-2.91 56.25,2.29 -1.46,5.21 2.29,12.3 2.5,16.67 0.21,4.38 -18.54,4.58 -34.17,3.96 -15.62,-0.63 -41.04,5.62 -44.17,0"
         style="fill:#406fbf;fill-opacity:1;fill-rule:nonzero;stroke:none"
         id="path316" /><path
         d="m 2974.48,2065.45 h 9.23 c 1.83,0 3.23,0.95 3.11,2.11 l -4.33,39.56 c -0.13,1.16 -1.73,2.1 -3.57,2.1 h -9.23 c -1.83,0 -3.23,-0.94 -3.11,-2.1 l 4.33,-39.56 c 0.13,-1.16 1.73,-2.11 3.57,-2.11"
         style="fill:#406fbf;fill-opacity:1;fill-rule:nonzero;stroke:none"
         id="path318" /></g></g></svg>
